{"glyphs":{"0":{"ha":716,"x_min":41,"x_max":714,"o":"m 647 351 q 528 80 620 175 q 302 -14 436 -14 q 108 85 175 -14 q 66 351 41 184 l 109 635 q 228 906 135 810 q 454 1002 320 1002 q 647 902 581 1002 q 690 635 714 802 l 647 351 m 553 655 q 540 833 570 771 q 437 896 510 896 q 318 831 368 896 q 251 655 267 766 l 203 332 q 215 153 184 216 q 318 90 245 90 q 437 156 387 90 q 505 332 488 221 l 553 655 z "},"1":{"ha":716,"x_min":200,"x_max":553,"o":"m 402 0 l 264 0 l 395 871 l 200 859 l 216 961 l 553 1002 l 402 0 z "},"2":{"ha":716,"x_min":36,"x_max":696,"o":"m 606 0 l 36 0 l 49 92 l 379 457 q 496 613 461 552 q 540 731 532 674 q 524 852 551 809 q 433 896 498 896 q 317 840 364 896 q 258 701 269 785 l 123 701 l 121 705 q 225 918 136 834 q 448 1002 315 1002 q 633 927 570 1002 q 680 731 696 852 q 614 569 667 644 q 455 378 562 494 l 228 108 l 229 104 l 621 104 l 606 0 z "},"3":{"ha":716,"x_min":31,"x_max":714,"o":"m 289 559 l 384 559 q 499 605 456 559 q 554 728 543 652 q 537 850 566 804 q 439 896 509 896 q 329 849 379 896 q 269 730 279 802 l 135 730 l 134 734 q 240 927 149 852 q 456 1002 332 1002 q 647 930 581 1002 q 694 727 714 858 q 638 596 683 654 q 526 508 594 538 q 623 418 593 479 q 640 273 653 357 q 527 59 619 133 q 303 -14 435 -14 q 111 60 191 -14 q 54 262 31 134 l 55 266 l 189 266 q 213 139 177 189 q 319 90 250 90 q 438 140 387 90 q 501 271 488 191 q 482 411 515 368 q 368 455 449 455 l 273 455 l 277 479 l 282 515 l 285 533 l 289 559 z "},"4":{"ha":716,"x_min":28,"x_max":675,"o":"m 559 337 l 675 337 l 659 232 l 544 232 l 509 0 l 370 0 l 405 232 l 28 232 l 36 309 l 513 987 l 657 987 l 559 337 m 177 337 l 420 337 l 490 796 l 486 798 l 461 756 l 177 337 z "},"5":{"ha":716,"x_min":50,"x_max":713,"o":"m 113 439 l 245 987 l 713 987 l 696 874 l 345 874 l 273 577 q 345 620 304 603 q 434 637 385 636 q 612 553 556 639 q 645 315 667 467 q 537 74 622 161 q 307 -14 453 -14 q 122 56 194 -14 q 73 256 50 126 l 74 260 l 206 262 q 225 133 193 176 q 323 90 258 90 q 442 149 395 90 q 505 314 490 208 q 491 472 520 416 q 389 529 462 529 q 290 503 328 529 q 232 428 252 477 l 113 439 z "},"6":{"ha":716,"x_min":52,"x_max":676,"o":"m 498 1002 q 595 990 548 1002 q 676 959 642 979 l 634 858 q 566 886 602 876 q 482 895 531 895 q 338 818 404 895 q 255 617 273 741 l 243 543 q 341 608 286 585 q 458 631 395 631 q 622 544 568 631 q 655 315 675 456 q 541 74 631 161 q 320 -14 450 -14 q 123 90 195 -14 q 79 370 52 194 l 115 608 q 250 895 142 789 q 498 1002 357 1002 m 397 530 q 298 503 342 530 q 227 430 254 475 l 216 363 q 231 160 197 231 q 336 90 264 90 q 452 154 401 90 q 517 315 502 218 q 501 474 532 418 q 397 530 469 530 z "},"7":{"ha":716,"x_min":133,"x_max":753,"o":"m 737 882 q 466 509 553 684 q 345 108 378 333 l 329 0 l 190 0 l 206 108 q 339 520 241 341 q 601 882 437 699 l 133 882 l 149 987 l 753 987 l 737 882 z "},"8":{"ha":716,"x_min":26,"x_max":707,"o":"m 688 735 q 628 597 675 655 q 511 510 581 538 q 620 416 583 479 q 646 271 658 353 q 532 58 625 130 q 310 -14 440 -14 q 103 61 180 -14 q 47 271 26 136 q 116 421 59 358 q 260 513 174 485 q 164 602 196 544 q 144 735 133 660 q 250 935 164 869 q 462 1002 336 1002 q 641 932 575 1002 q 688 735 707 863 m 507 274 q 483 408 519 358 q 380 458 446 458 q 255 407 311 458 q 187 274 199 355 q 213 139 174 187 q 326 90 252 90 q 442 141 389 90 q 507 274 494 191 m 549 732 q 530 852 559 808 q 446 896 501 896 q 340 852 387 896 q 283 732 294 808 q 302 609 271 653 q 397 564 334 564 q 494 611 450 564 q 549 732 537 657 z "},"9":{"ha":716,"x_min":81,"x_max":704,"o":"m 280 90 q 416 156 356 90 q 494 338 475 222 l 507 429 q 423 359 471 382 q 323 335 375 335 q 142 425 203 335 q 104 663 81 515 q 220 909 126 816 q 437 1002 314 1002 q 634 906 564 1002 q 679 640 704 810 l 634 342 q 507 77 608 168 q 264 -14 406 -14 q 171 -3 219 -14 q 85 28 123 7 l 122 128 q 195 99 159 108 q 280 90 231 90 m 353 437 q 452 468 407 437 q 525 547 496 499 l 542 661 q 527 837 559 779 q 423 896 495 896 q 310 829 362 896 q 243 663 258 762 q 255 498 227 559 q 353 437 283 437 z "},"\u0000":{"ha":305,"x_min":0,"x_max":0,"o":""},"\r":{"ha":305,"x_min":0,"x_max":0,"o":""}," ":{"ha":305,"x_min":0,"x_max":0,"o":""},"!":{"ha":323,"x_min":38,"x_max":325,"o":"m 227 329 l 88 329 l 186 987 l 325 987 l 227 329 m 178 0 l 38 0 l 59 138 l 199 138 l 178 0 z "},"\"":{"ha":478,"x_min":127,"x_max":489,"o":"m 276 818 l 193 645 l 127 645 l 154 812 l 178 987 l 300 987 l 276 818 m 465 818 l 382 645 l 317 645 l 344 816 l 368 987 l 489 987 l 465 818 z "},"#":{"ha":736,"x_min":26,"x_max":741,"o":"m 390 278 l 256 278 l 170 0 l 77 0 l 162 278 l 26 278 l 39 366 l 189 366 l 267 616 l 121 616 l 134 705 l 294 705 l 381 987 l 475 987 l 388 705 l 522 705 l 610 987 l 703 987 l 616 705 l 741 705 l 728 616 l 589 616 l 512 366 l 646 366 l 633 278 l 485 278 l 399 0 l 304 0 l 390 278 m 283 366 l 417 366 l 494 616 l 360 616 l 283 366 z "},"$":{"ha":709,"x_min":41,"x_max":695,"o":"m 481 251 q 465 359 491 318 q 362 437 438 399 q 190 550 243 484 q 155 734 138 616 q 240 918 171 849 q 415 1000 309 987 l 435 1143 l 524 1143 l 504 998 q 648 904 601 982 q 678 698 695 825 l 541 698 q 527 841 553 789 q 439 893 500 893 q 341 849 379 893 q 294 735 303 805 q 309 628 283 667 q 414 549 334 589 q 585 436 533 502 q 620 252 636 370 q 532 66 603 133 q 352 -12 462 0 l 334 -142 l 245 -142 l 263 -12 q 100 74 160 1 q 61 290 41 148 l 199 290 q 219 137 183 180 q 320 94 254 94 q 428 137 384 94 q 481 251 471 181 z "},"%":{"ha":929,"x_min":111,"x_max":864,"o":"m 132 798 q 203 944 144 887 q 349 1002 262 1002 q 474 942 431 1002 q 504 798 517 883 l 496 745 q 425 599 482 655 q 281 543 367 543 q 154 601 197 543 q 124 745 111 660 l 132 798 m 222 745 q 231 659 214 693 q 293 624 249 624 q 362 660 333 624 q 399 745 391 695 l 406 798 q 396 885 414 850 q 336 920 379 920 q 266 884 295 920 q 229 798 237 848 l 222 745 m 479 242 q 550 389 492 332 q 696 446 609 446 q 821 387 779 446 q 852 242 864 328 l 844 189 q 772 42 829 99 q 627 -14 714 -14 q 501 45 545 -14 q 471 189 457 104 l 479 242 m 568 189 q 579 102 560 137 q 640 67 597 67 q 710 102 682 67 q 746 189 738 138 l 754 242 q 744 330 762 296 q 684 364 726 364 q 613 328 642 364 q 576 242 584 292 l 568 189 m 255 77 l 190 119 l 721 891 l 786 848 l 255 77 z "},"&":{"ha":806,"x_min":12,"x_max":762,"o":"m 30 260 q 94 407 43 347 q 241 534 144 467 q 191 654 205 600 q 185 763 176 707 q 272 942 203 882 q 449 1002 342 1002 q 592 940 541 1002 q 631 793 644 879 q 586 678 621 724 q 490 586 551 631 l 405 525 l 568 258 q 617 351 597 301 q 646 458 637 401 l 762 458 q 714 291 747 365 q 627 159 682 217 l 724 0 l 562 0 l 519 71 q 401 7 461 28 q 277 -14 340 -14 q 81 62 150 -14 q 30 260 12 138 m 296 90 q 383 107 338 90 q 469 155 427 123 l 294 445 l 279 433 q 199 342 222 385 q 170 263 175 299 q 191 138 158 186 q 296 90 224 90 m 315 764 q 319 692 309 728 q 353 612 329 655 l 431 667 q 487 724 469 694 q 509 789 504 753 q 495 865 516 835 q 431 896 475 896 q 355 858 387 896 q 315 764 323 819 z "},"'":{"ha":277,"x_min":112,"x_max":294,"o":"m 272 834 l 186 645 l 112 645 l 140 825 l 163 987 l 294 987 l 272 834 z "},"(":{"ha":412,"x_min":46,"x_max":487,"o":"m 85 400 q 236 853 122 668 q 468 1101 351 1038 l 472 1100 l 487 1027 q 321 794 400 958 q 210 401 241 630 l 208 388 q 208 -8 174 150 q 309 -241 241 -166 l 275 -310 l 271 -310 q 109 -60 172 -248 q 83 389 46 129 l 85 400 z "},")":{"ha":415,"x_min":-69,"x_max":376,"o":"m 339 389 q 185 -63 301 121 q -48 -311 70 -247 l -52 -310 l -69 -241 q 97 -6 17 -172 q 210 388 178 159 l 212 401 q 210 798 245 637 q 109 1031 175 959 l 145 1101 l 149 1101 q 312 847 247 1040 q 341 400 376 655 l 339 389 z "},"*":{"ha":538,"x_min":70,"x_max":516,"o":"m 209 468 l 70 518 l 113 611 l 254 552 l 279 733 l 374 733 l 347 548 l 500 608 l 516 515 l 359 462 l 428 317 l 341 259 l 273 412 l 163 263 l 92 319 l 209 468 z "},"+":{"ha":703,"x_min":52,"x_max":678,"o":"m 441 525 l 678 525 l 661 407 l 423 407 l 377 99 l 242 99 l 288 407 l 52 407 l 69 525 l 306 525 l 350 818 l 485 818 l 441 525 z "},",":{"ha":281,"x_min":-43,"x_max":183,"o":"m 164 16 l 45 -184 l -43 -184 l 29 21 l 47 146 l 183 146 l 164 16 z "},"-":{"ha":534,"x_min":94,"x_max":454,"o":"m 437 368 l 94 368 l 110 473 l 454 473 l 437 368 z "},".":{"ha":339,"x_min":39,"x_max":199,"o":"m 178 0 l 39 0 l 60 138 l 199 138 l 178 0 z "},"/":{"ha":495,"x_min":-61,"x_max":560,"o":"m 67 -85 l -61 -85 l 432 987 l 560 987 l 67 -85 z "},":":{"ha":325,"x_min":39,"x_max":288,"o":"m 178 0 l 39 0 l 60 138 l 199 138 l 178 0 m 267 594 l 128 594 l 149 732 l 288 732 l 267 594 z "},";":{"ha":321,"x_min":-8,"x_max":288,"o":"m 268 594 l 129 594 l 149 732 l 288 732 l 268 594 m 199 16 l 80 -184 l -8 -184 l 64 21 l 82 146 l 218 146 l 199 16 z "},"<":{"ha":617,"x_min":36,"x_max":578,"o":"m 192 385 l 146 375 l 146 371 l 189 361 l 507 199 l 487 68 l 36 323 l 40 353 l 46 394 l 51 426 l 578 680 l 559 549 l 192 385 z "},"=":{"ha":690,"x_min":74,"x_max":637,"o":"m 621 548 l 116 548 l 132 656 l 637 656 l 621 548 m 579 264 l 74 264 l 90 373 l 595 373 l 579 264 z "},">":{"ha":629,"x_min":32,"x_max":589,"o":"m 104 544 l 124 671 l 589 418 l 585 387 l 585 387 l 574 315 l 32 60 l 52 189 l 433 356 l 477 365 l 477 369 l 436 379 l 104 544 z "},"?":{"ha":588,"x_min":92,"x_max":618,"o":"m 191 277 q 229 406 205 367 q 328 509 254 446 q 419 619 387 570 q 463 734 452 668 q 449 852 474 812 q 365 892 424 892 q 277 854 317 892 q 225 748 236 815 l 93 748 l 92 752 q 189 935 107 869 q 382 1002 270 1002 q 558 930 498 1002 q 601 736 618 858 q 536 575 587 644 q 404 435 486 506 q 351 369 365 400 q 329 277 338 337 l 191 277 m 290 0 l 149 0 l 169 134 l 311 134 l 290 0 z "},"@":{"ha":1126,"x_min":1,"x_max":1112,"o":"m 1060 345 q 947 92 1032 199 q 724 -14 861 -14 q 648 17 677 -14 q 614 103 619 47 q 528 16 575 45 q 425 -14 481 -14 q 313 68 347 -14 q 311 282 280 151 q 439 560 352 455 q 629 665 526 665 q 731 646 692 665 q 812 592 770 628 l 810 590 l 813 590 l 723 199 q 719 92 706 121 q 757 68 731 63 l 761 67 q 889 144 831 64 q 970 345 947 224 q 944 743 1019 600 q 666 885 869 885 q 343 729 485 885 q 155 324 201 574 q 186 -76 106 73 q 458 -226 267 -226 q 568 -212 509 -226 q 667 -174 626 -197 l 679 -247 q 569 -291 634 -275 q 444 -307 503 -307 q 109 -136 216 -307 q 55 324 1 35 q 279 788 110 612 q 680 964 448 964 q 1009 797 906 964 q 1060 345 1112 629 m 426 282 q 416 132 404 186 q 473 78 427 78 q 546 100 510 78 q 616 177 583 121 q 617 187 616 182 q 621 199 618 193 l 704 562 q 672 574 689 569 q 636 578 655 578 q 513 504 566 578 q 426 282 460 429 z "},"A":{"ha":764,"x_min":-33,"x_max":691,"o":"m 515 250 l 219 250 l 111 0 l -33 0 l 412 987 l 545 987 l 691 0 l 548 0 l 515 250 m 267 359 l 500 359 l 446 760 l 443 761 l 267 359 z "},"B":{"ha":766,"x_min":40,"x_max":742,"o":"m 40 0 l 188 987 l 461 987 q 670 920 597 987 q 723 722 742 853 q 670 597 711 650 q 563 520 628 545 q 682 438 646 505 q 705 279 718 371 q 595 69 683 138 q 368 0 508 0 l 40 0 m 247 460 l 193 104 l 384 104 q 505 150 456 104 q 566 279 553 195 q 546 410 578 363 q 442 460 514 458 l 435 460 l 247 460 m 262 559 l 412 559 q 526 601 479 559 q 584 719 572 642 q 562 843 597 804 q 446 882 526 882 l 310 882 l 262 559 z "},"C":{"ha":768,"x_min":41,"x_max":789,"o":"m 702 297 l 703 293 q 588 63 683 141 q 345 -14 494 -14 q 120 84 198 -14 q 68 356 41 182 l 109 630 q 238 907 136 812 q 492 1002 340 1002 q 714 922 638 1002 q 764 694 789 843 l 763 690 l 630 690 q 608 848 646 801 q 476 896 570 896 q 327 827 389 896 q 247 632 265 758 l 205 356 q 225 156 185 222 q 360 90 266 90 q 500 140 446 90 q 570 297 553 190 l 702 297 z "},"D":{"ha":808,"x_min":40,"x_max":795,"o":"m 40 0 l 188 987 l 468 987 q 708 867 622 987 q 768 564 795 747 l 747 423 q 600 115 717 229 q 320 0 482 0 l 40 0 m 309 882 l 193 104 l 336 104 q 510 195 433 104 q 608 423 587 285 l 629 565 q 603 795 650 709 q 452 882 555 882 l 309 882 z "},"E":{"ha":671,"x_min":40,"x_max":717,"o":"m 581 458 l 246 458 l 193 104 l 588 104 l 572 0 l 40 0 l 188 987 l 717 987 l 701 882 l 309 882 l 262 564 l 597 564 l 581 458 z "},"F":{"ha":670,"x_min":40,"x_max":730,"o":"m 589 439 l 243 439 l 178 0 l 40 0 l 188 987 l 730 987 l 715 882 l 309 882 l 259 544 l 604 544 l 589 439 z "},"G":{"ha":812,"x_min":41,"x_max":790,"o":"m 690 129 q 562 29 646 73 q 357 -14 479 -14 q 125 81 208 -14 q 68 349 41 176 l 112 642 q 243 911 138 820 q 501 1002 347 1002 q 718 924 646 1002 q 768 712 790 846 l 766 709 l 636 709 q 612 848 650 801 q 488 896 574 896 q 333 830 398 896 q 250 643 269 765 l 206 349 q 232 154 186 217 q 373 90 277 90 q 487 112 440 90 q 556 165 534 134 l 591 395 l 409 395 l 425 495 l 745 495 l 690 129 z "},"H":{"ha":850,"x_min":40,"x_max":850,"o":"m 702 0 l 564 0 l 629 435 l 243 435 l 178 0 l 40 0 l 188 987 l 326 987 l 258 541 l 645 541 l 712 987 l 850 987 l 702 0 z "},"I":{"ha":351,"x_min":52,"x_max":338,"o":"m 190 0 l 52 0 l 200 987 l 338 987 l 190 0 z "},"J":{"ha":668,"x_min":1,"x_max":669,"o":"m 531 987 l 669 987 l 566 292 q 458 66 543 146 q 253 -14 372 -14 q 66 61 131 -14 q 22 278 1 136 l 160 278 q 174 135 144 179 q 269 90 203 90 q 368 145 323 90 q 427 292 413 200 l 531 987 z "},"K":{"ha":731,"x_min":33,"x_max":797,"o":"m 303 444 l 238 444 l 172 0 l 33 0 l 181 987 l 319 987 l 255 559 l 326 559 l 618 987 l 797 987 l 422 497 l 661 0 l 503 0 l 303 444 z "},"L":{"ha":669,"x_min":40,"x_max":593,"o":"m 193 104 l 593 104 l 577 0 l 40 0 l 188 987 l 326 987 l 193 104 z "},"M":{"ha":1013,"x_min":36,"x_max":1017,"o":"m 479 182 l 483 182 l 840 987 l 1017 987 l 869 0 l 732 0 l 838 711 l 834 712 l 501 0 l 407 0 l 285 723 l 281 723 l 173 0 l 36 0 l 184 987 l 363 987 l 479 182 z "},"N":{"ha":851,"x_min":40,"x_max":850,"o":"m 703 0 l 564 0 l 290 728 l 286 728 l 178 0 l 40 0 l 188 987 l 326 987 l 600 261 l 604 262 l 712 987 l 850 987 l 703 0 z "},"O":{"ha":826,"x_min":39,"x_max":825,"o":"m 758 357 q 623 80 730 175 q 353 -14 515 -14 q 121 84 202 -14 q 66 357 39 183 l 106 629 q 240 906 134 811 q 505 1002 347 1002 q 742 902 659 1002 q 799 629 825 802 l 758 357 m 663 631 q 637 829 682 765 q 489 893 593 893 q 328 826 393 893 q 244 631 262 758 l 203 357 q 225 157 182 222 q 370 93 269 93 q 535 160 468 93 q 621 357 602 228 l 663 631 z "},"P":{"ha":766,"x_min":40,"x_max":783,"o":"m 236 389 l 178 0 l 40 0 l 188 987 l 509 987 q 713 904 644 987 q 764 688 783 821 q 652 469 743 548 q 419 389 561 389 l 236 389 m 252 495 l 435 495 q 564 550 513 495 q 627 687 614 606 q 607 828 640 774 q 493 882 574 882 l 310 882 l 252 495 z "},"Q":{"ha":844,"x_min":39,"x_max":825,"o":"m 758 357 q 721 220 746 281 q 656 115 695 159 l 758 -20 l 654 -99 l 553 32 q 460 -3 510 8 q 353 -14 410 -14 q 121 84 202 -14 q 66 357 39 183 l 106 629 q 240 906 134 811 q 505 1002 347 1002 q 742 902 659 1002 q 799 629 825 802 l 758 357 m 663 631 q 637 829 682 765 q 489 893 593 893 q 328 826 393 893 q 244 631 262 758 l 203 357 q 225 157 182 222 q 370 93 269 93 q 535 160 468 93 q 621 357 602 228 l 663 631 z "},"R":{"ha":772,"x_min":39,"x_max":754,"o":"m 241 425 l 177 0 l 39 0 l 187 987 l 478 987 q 685 913 615 987 q 734 706 754 840 q 677 568 722 625 q 559 479 632 511 q 654 394 629 454 q 668 248 680 334 l 655 161 q 651 76 648 115 q 673 16 654 38 l 671 0 l 529 0 q 509 68 509 22 q 516 163 509 115 l 528 246 q 510 378 541 332 q 411 425 479 425 l 241 425 m 256 530 l 403 530 q 534 576 485 530 q 596 703 583 622 q 576 836 609 791 q 463 882 544 882 l 309 882 l 256 530 z "},"S":{"ha":738,"x_min":38,"x_max":734,"o":"m 541 226 q 516 348 551 302 q 379 439 480 394 q 175 561 238 490 q 130 760 111 632 q 234 938 147 873 q 443 1002 320 1002 q 657 921 581 1002 q 710 701 734 841 l 709 698 l 576 698 q 548 841 589 786 q 427 896 507 896 q 321 857 366 896 q 269 761 277 817 q 291 639 256 682 q 438 549 326 596 q 636 426 575 496 q 678 227 697 355 q 573 47 660 109 q 358 -14 486 -14 q 130 58 222 -14 q 64 284 38 131 l 66 288 l 197 288 q 236 135 181 180 q 374 90 291 90 q 483 129 434 90 q 541 226 532 168 z "},"T":{"ha":709,"x_min":103,"x_max":779,"o":"m 763 882 l 500 882 l 369 0 l 231 0 l 362 882 l 103 882 l 119 987 l 779 987 l 763 882 z "},"U":{"ha":823,"x_min":55,"x_max":834,"o":"m 834 987 l 736 334 q 606 75 711 164 q 353 -14 502 -14 q 134 79 214 -14 q 79 334 55 172 l 177 987 l 315 987 l 217 334 q 241 153 199 216 q 368 90 283 90 q 516 155 452 90 q 598 334 581 220 l 696 987 l 834 987 z "},"V":{"ha":764,"x_min":107,"x_max":844,"o":"m 345 227 l 351 166 l 355 165 l 378 226 l 697 987 l 844 987 l 395 0 l 260 0 l 107 987 l 254 987 l 345 227 z "},"W":{"ha":1053,"x_min":115,"x_max":1124,"o":"m 742 286 l 746 286 l 979 987 l 1124 987 l 773 0 l 646 0 l 578 700 l 574 701 l 297 0 l 170 0 l 115 987 l 260 987 l 284 288 l 288 288 l 559 987 l 680 987 l 742 286 z "},"X":{"ha":764,"x_min":-22,"x_max":821,"o":"m 416 602 l 420 602 l 659 987 l 821 987 l 486 498 l 684 0 l 519 0 l 391 394 l 387 395 l 141 0 l -22 0 l 321 498 l 132 987 l 294 987 l 416 602 z "},"Y":{"ha":764,"x_min":113,"x_max":838,"o":"m 401 506 l 405 506 l 683 987 l 838 987 l 447 356 l 393 0 l 256 0 l 311 365 l 113 987 l 266 987 l 401 506 z "},"Z":{"ha":677,"x_min":12,"x_max":679,"o":"m 172 104 l 597 104 l 582 0 l 14 0 l 12 85 l 504 882 l 127 882 l 142 987 l 679 987 l 667 905 l 172 104 z "},"[":{"ha":344,"x_min":5,"x_max":437,"o":"m 423 1030 l 320 1030 l 160 -113 l 263 -113 l 248 -216 l 5 -216 l 195 1134 l 437 1134 l 423 1030 z "},"\\":{"ha":505,"x_min":111,"x_max":438,"o":"m 111 987 l 244 987 l 438 -85 l 304 -85 l 111 987 z "},"]":{"ha":344,"x_min":-71,"x_max":361,"o":"m 118 1134 l 361 1134 l 172 -216 l -71 -216 l -56 -113 l 47 -113 l 208 1030 l 104 1030 l 118 1134 z "},"^":{"ha":520,"x_min":56,"x_max":503,"o":"m 172 494 l 56 494 l 304 987 l 403 987 l 503 494 l 387 494 l 333 795 l 331 830 l 327 831 l 314 795 l 172 494 z "},"_":{"ha":544,"x_min":-64,"x_max":483,"o":"m 467 -103 l -64 -103 l -49 0 l 483 0 l 467 -103 z "},"`":{"ha":404,"x_min":138,"x_max":393,"o":"m 393 849 l 273 849 l 138 1029 l 302 1029 l 393 849 z "},"a":{"ha":656,"x_min":12,"x_max":616,"o":"m 406 0 q 401 58 402 31 q 403 112 400 85 q 312 22 366 58 q 198 -14 259 -14 q 58 44 104 -14 q 27 203 12 103 q 124 369 43 311 q 336 427 205 427 l 449 427 l 460 502 q 447 608 471 572 q 367 644 423 644 q 283 611 319 644 q 240 528 248 578 l 109 528 l 108 532 q 196 684 117 620 q 391 747 275 747 q 556 683 496 747 q 599 500 616 618 l 547 160 q 540 78 541 117 q 546 0 540 39 l 406 0 m 242 92 q 346 127 296 92 q 417 212 395 163 l 436 341 l 321 341 q 217 300 260 341 q 165 203 174 259 q 177 121 157 151 q 242 92 197 92 z "},"b":{"ha":684,"x_min":25,"x_max":656,"o":"m 628 344 q 525 80 602 175 q 329 -14 447 -14 q 231 14 271 -14 q 168 94 191 41 l 138 0 l 25 0 l 184 1058 l 322 1058 l 262 654 q 342 723 298 699 q 442 747 387 747 q 606 640 556 747 q 630 358 656 532 l 628 344 m 492 358 q 489 565 511 490 q 392 640 467 640 q 308 612 346 640 q 243 535 270 583 l 192 190 q 232 118 203 143 q 311 92 261 92 q 427 161 382 92 q 490 344 472 229 l 492 358 z "},"c":{"ha":629,"x_min":26,"x_max":618,"o":"m 294 90 q 384 130 342 90 q 435 236 425 170 l 558 236 l 560 232 q 464 55 547 124 q 278 -14 382 -14 q 87 91 148 -14 q 50 353 26 195 l 54 379 q 166 646 78 545 q 392 747 255 747 q 558 672 498 747 q 600 477 618 597 l 471 477 q 456 597 482 553 q 376 642 431 642 q 255 566 302 642 q 191 379 208 490 l 187 353 q 192 162 170 234 q 294 90 215 90 z "},"d":{"ha":684,"x_min":26,"x_max":706,"o":"m 53 358 q 159 644 80 541 q 357 747 239 747 q 446 722 408 747 q 507 651 484 697 l 568 1058 l 706 1058 l 547 0 l 433 0 l 433 88 q 347 12 395 38 q 241 -14 299 -14 q 78 85 130 -14 q 51 344 26 184 l 53 358 m 188 344 q 194 158 170 224 q 292 92 218 92 q 374 118 337 92 q 438 189 410 143 l 491 541 q 449 613 477 587 q 376 640 421 640 q 257 561 306 640 q 190 358 208 481 l 188 344 z "},"e":{"ha":633,"x_min":26,"x_max":618,"o":"m 288 -14 q 92 87 157 -14 q 50 347 26 189 l 55 379 q 172 647 80 547 q 389 747 263 747 q 564 657 510 747 q 597 420 618 568 l 585 342 l 187 342 q 200 158 170 226 q 313 90 229 90 q 416 109 369 90 q 503 161 463 127 l 535 75 q 429 12 492 37 q 288 -14 365 -14 m 374 642 q 272 586 316 642 q 208 444 228 530 l 210 440 l 464 440 l 467 456 q 458 591 479 541 q 374 642 436 642 z "},"f":{"ha":413,"x_min":70,"x_max":533,"o":"m 71 0 l 166 635 l 70 635 l 84 734 l 181 734 l 195 828 q 279 1011 214 949 q 447 1072 344 1072 q 488 1068 466 1072 q 533 1058 509 1064 l 505 957 q 479 962 493 960 q 448 964 465 964 q 373 929 404 964 q 333 828 342 893 l 319 734 l 440 734 l 426 635 l 304 635 l 209 0 l 71 0 z "},"g":{"ha":684,"x_min":29,"x_max":661,"o":"m 56 358 q 162 644 83 541 q 360 747 241 747 q 455 719 416 747 q 517 638 494 690 l 545 734 l 661 734 l 551 -1 q 443 -222 528 -148 q 218 -296 357 -296 q 121 -282 174 -296 q 31 -243 69 -267 l 68 -140 q 145 -174 103 -162 q 234 -185 186 -185 q 353 -139 308 -185 q 412 -1 398 -92 l 423 72 q 343 7 387 29 q 245 -14 298 -14 q 81 85 134 -14 q 54 344 29 184 l 56 358 m 192 344 q 197 158 174 224 q 296 92 221 92 q 377 117 340 92 q 440 186 413 142 l 494 545 q 453 614 481 589 q 379 640 425 640 q 261 561 309 640 q 194 358 212 481 l 192 344 z "},"h":{"ha":684,"x_min":23,"x_max":642,"o":"m 257 640 q 346 719 296 691 q 452 747 395 747 q 595 673 548 747 q 619 449 642 600 l 552 0 l 414 0 l 481 450 q 474 598 496 555 q 395 640 452 640 q 310 616 349 640 q 243 549 272 591 l 161 0 l 23 0 l 182 1058 l 320 1058 l 257 640 z "},"i":{"ha":315,"x_min":34,"x_max":331,"o":"m 172 0 l 34 0 l 144 734 l 282 734 l 172 0 m 311 926 l 173 926 l 193 1058 l 331 1058 l 311 926 z "},"j":{"ha":319,"x_min":-143,"x_max":333,"o":"m 288 734 l 170 -50 q 89 -235 151 -173 q -72 -296 26 -296 q -108 -293 -91 -296 q -143 -284 -125 -290 l -119 -179 q -95 -186 -109 -183 q -69 -189 -81 -189 q -5 -154 -33 -189 q 33 -50 22 -119 l 150 734 l 288 734 m 313 928 l 175 928 l 195 1058 l 333 1058 l 313 928 z "},"k":{"ha":633,"x_min":26,"x_max":657,"o":"m 265 336 l 214 336 l 163 0 l 26 0 l 184 1058 l 322 1058 l 229 441 l 278 441 l 498 734 l 655 734 l 657 730 l 386 401 l 574 0 l 414 0 l 265 336 z "},"l":{"ha":315,"x_min":34,"x_max":331,"o":"m 172 0 l 34 0 l 193 1058 l 331 1058 l 172 0 z "},"m":{"ha":1049,"x_min":24,"x_max":1004,"o":"m 254 637 q 343 719 292 690 q 458 747 395 747 q 556 713 516 747 q 609 612 596 680 q 702 712 648 676 q 823 747 756 747 q 959 669 914 747 q 981 433 1004 591 l 916 0 l 777 0 l 842 434 q 839 597 860 553 q 760 640 817 640 q 676 604 714 640 q 614 509 637 568 q 611 481 612 492 q 608 460 610 471 l 539 0 l 401 0 l 467 434 q 462 595 484 549 q 384 640 440 640 q 305 615 340 640 q 244 544 270 589 l 163 0 l 24 0 l 134 734 l 261 734 l 254 637 z "},"n":{"ha":684,"x_min":24,"x_max":641,"o":"m 252 629 q 344 716 292 686 q 456 747 396 747 q 596 675 551 747 q 619 452 641 602 l 551 0 l 414 0 l 481 451 q 475 600 497 559 q 394 640 453 640 q 310 614 349 640 q 243 544 272 589 l 162 0 l 24 0 l 134 734 l 260 734 l 252 629 z "},"o":{"ha":684,"x_min":26,"x_max":657,"o":"m 54 375 q 171 646 79 545 q 399 747 262 747 q 593 642 528 747 q 633 375 657 536 l 631 357 q 513 86 605 186 q 286 -14 422 -14 q 91 90 155 -14 q 51 357 26 195 l 54 375 m 189 357 q 197 163 170 236 q 302 90 224 90 q 424 166 374 90 q 492 357 475 242 l 495 375 q 486 568 513 494 q 383 642 460 642 q 259 565 310 642 q 192 375 208 488 l 189 357 z "},"p":{"ha":684,"x_min":-17,"x_max":655,"o":"m 627 344 q 524 80 602 175 q 328 -14 446 -14 q 237 8 275 -14 q 174 74 199 31 l 121 -282 l -17 -282 l 135 734 l 252 734 l 252 646 q 337 721 290 695 q 441 747 384 747 q 604 640 553 747 q 629 358 655 532 l 627 344 m 491 358 q 486 564 511 487 q 389 640 462 640 q 307 614 344 640 q 245 543 271 587 l 190 176 q 231 113 202 135 q 307 90 260 90 q 424 160 376 90 q 489 344 471 231 l 491 358 z "},"q":{"ha":684,"x_min":26,"x_max":654,"o":"m 53 358 q 159 644 80 541 q 357 747 239 747 q 450 721 411 747 q 512 644 489 694 l 541 734 l 654 734 l 502 -282 l 363 -282 l 416 67 q 337 6 380 27 q 241 -14 294 -14 q 78 85 130 -14 q 51 344 26 184 l 53 358 m 188 344 q 194 157 170 224 q 292 90 218 90 q 371 113 336 90 q 433 178 406 136 l 488 551 q 447 617 475 593 q 376 642 420 642 q 257 562 306 642 q 190 358 208 481 l 188 344 z "},"r":{"ha":427,"x_min":25,"x_max":467,"o":"m 433 619 l 374 623 q 298 595 332 623 q 241 518 264 568 l 163 0 l 25 0 l 135 734 l 262 734 l 255 633 l 259 631 q 331 716 288 685 q 423 747 373 747 q 447 745 436 747 q 467 739 458 743 l 433 619 z "},"s":{"ha":612,"x_min":10,"x_max":596,"o":"m 402 185 q 384 257 408 229 q 283 321 360 286 q 127 414 176 364 q 89 543 77 465 q 177 689 101 631 q 363 747 252 747 q 534 682 472 747 q 581 524 596 616 l 578 519 l 446 519 q 428 610 453 573 q 349 647 402 647 q 263 617 298 647 q 223 549 228 587 q 238 482 217 505 q 340 420 260 459 q 499 326 449 380 q 539 192 550 273 q 448 41 525 97 q 256 -14 371 -14 q 74 56 137 -14 q 26 216 10 125 l 28 220 l 156 220 q 182 117 149 149 q 272 85 216 85 q 360 114 324 85 q 402 185 396 142 z "},"t":{"ha":416,"x_min":62,"x_max":427,"o":"m 340 916 l 312 734 l 427 734 l 412 635 l 298 635 l 232 199 q 236 116 222 139 q 279 94 250 94 q 302 96 291 94 q 326 102 313 98 l 326 7 q 280 -8 305 -3 q 229 -14 255 -14 q 115 37 153 -14 q 94 199 77 89 l 159 635 l 62 635 l 77 734 l 174 734 l 201 916 l 340 916 z "},"u":{"ha":684,"x_min":43,"x_max":661,"o":"m 433 0 l 436 104 q 348 16 399 46 q 235 -14 296 -14 q 90 64 137 -14 q 68 306 43 143 l 132 734 l 270 734 l 205 304 q 207 137 187 182 q 283 92 227 92 q 373 117 334 92 q 441 189 413 142 l 522 734 l 661 734 l 551 0 l 433 0 z "},"v":{"ha":612,"x_min":77,"x_max":649,"o":"m 274 220 l 277 163 l 281 162 l 302 220 l 507 734 l 649 734 l 315 0 l 193 0 l 77 734 l 221 734 l 274 220 z "},"w":{"ha":901,"x_min":83,"x_max":925,"o":"m 615 239 l 619 239 l 787 734 l 925 734 l 644 0 l 530 0 l 467 475 l 463 476 l 259 0 l 144 0 l 83 734 l 220 734 l 243 245 l 248 245 l 454 734 l 553 734 l 615 239 z "},"x":{"ha":612,"x_min":-31,"x_max":639,"o":"m 318 466 l 322 466 l 480 734 l 639 734 l 386 372 l 536 0 l 378 0 l 296 277 l 292 277 l 127 0 l -31 0 l 229 372 l 85 734 l 241 734 l 318 466 z "},"y":{"ha":612,"x_min":-35,"x_max":654,"o":"m 272 253 l 275 204 l 279 203 l 503 734 l 654 734 l 264 -114 q 175 -243 228 -189 q 38 -296 122 -296 q 2 -293 22 -296 q -35 -284 -17 -289 l -4 -182 q 15 -185 2 -184 q 36 -186 28 -186 q 105 -152 75 -186 q 155 -71 135 -117 l 191 5 l 69 734 l 220 734 l 272 253 z "},"z":{"ha":612,"x_min":-1,"x_max":606,"o":"m 170 104 l 527 104 l 511 0 l -1 0 l 12 87 l 432 627 l 101 627 l 117 734 l 606 734 l 593 648 l 170 104 z "},"{":{"ha":408,"x_min":37,"x_max":477,"o":"m 272 -257 q 128 -139 164 -220 q 108 58 92 -58 l 128 201 q 117 321 139 280 q 37 363 95 363 l 39 384 l 47 441 l 50 462 q 141 504 106 462 q 186 622 176 547 l 207 768 q 281 966 223 888 q 457 1080 340 1044 l 460 1078 l 477 1006 q 382 920 415 981 q 336 768 349 859 l 316 622 q 270 493 305 547 q 176 411 235 438 q 246 326 226 380 q 258 201 267 271 l 237 58 q 240 -95 224 -36 q 311 -179 256 -154 l 272 -257 z "},"|":{"ha":304,"x_min":8,"x_max":303,"o":"m 128 -183 l 8 -183 l 183 987 l 303 987 l 128 -183 z "},"}":{"ha":408,"x_min":-56,"x_max":382,"o":"m -56 -179 q 38 -93 5 -154 q 84 58 71 -32 l 104 201 q 151 332 115 278 q 250 413 186 387 q 174 496 196 441 q 163 622 153 551 l 183 768 q 180 921 196 861 q 111 1006 165 981 l 148 1083 q 291 965 255 1046 q 311 768 328 884 l 291 622 q 302 503 279 543 q 382 462 324 462 l 372 387 l 369 363 q 278 319 313 363 q 233 201 243 276 l 212 58 q 137 -140 195 -62 q -37 -254 79 -218 l -41 -252 l -56 -179 z "},"~":{"ha":802,"x_min":66,"x_max":747,"o":"m 747 505 q 674 339 733 406 q 537 273 614 273 q 448 296 488 273 q 367 369 408 319 q 316 419 339 403 q 265 435 293 435 q 200 397 231 435 q 162 302 170 359 l 66 316 q 139 480 81 416 q 276 545 197 545 q 365 520 323 545 q 448 449 407 496 q 496 398 473 414 q 548 382 519 382 q 612 422 581 382 q 652 519 644 462 l 747 505 z "}," ":{"ha":305,"x_min":0,"x_max":0,"o":"z "},"¡":{"ha":323,"x_min":-3,"x_max":283,"o":"m 135 -254 l -3 -254 l 95 404 l 233 404 l 135 -254 m 262 589 l 122 589 l 144 734 l 283 734 l 262 589 z "},"¢":{"ha":681,"x_min":27,"x_max":614,"o":"m 294 90 q 384 130 342 90 q 435 236 425 170 l 559 236 l 561 233 q 490 80 549 144 q 348 -5 431 16 l 324 -166 l 213 -166 l 236 -11 q 77 108 127 6 q 50 353 27 210 l 54 379 q 153 630 76 531 q 350 745 230 728 l 372 894 l 484 894 l 460 738 q 575 645 536 715 q 600 477 614 575 l 471 477 q 456 597 482 553 q 376 642 431 642 q 255 566 302 642 q 191 379 208 490 l 187 353 q 192 162 170 234 q 294 90 215 90 z "},"£":{"ha":711,"x_min":35,"x_max":715,"o":"m 297 419 l 286 323 q 251 201 275 258 q 190 104 227 144 l 623 104 l 608 0 l 35 0 l 50 104 l 56 104 q 111 181 86 113 q 147 321 136 249 l 158 419 l 60 419 l 76 524 l 170 524 l 191 703 q 292 924 213 847 q 485 1002 370 1002 q 658 928 601 1002 q 696 734 715 854 l 559 734 q 546 858 572 821 q 469 896 520 896 q 381 845 420 896 q 330 703 343 793 l 309 524 l 536 524 l 520 419 l 297 419 z "},"¤":{"ha":888,"x_min":16,"x_max":895,"o":"m 629 75 q 514 9 576 32 q 390 -14 453 -14 q 276 10 329 -14 q 182 77 222 33 l 83 -18 l 16 62 l 122 165 q 88 281 96 218 q 90 412 79 344 q 129 552 101 486 q 199 671 157 618 l 123 776 l 215 857 l 288 758 q 398 816 339 795 q 517 837 456 837 q 627 814 575 837 q 719 752 678 792 l 828 858 l 895 776 l 781 665 q 816 546 806 610 q 815 412 825 481 q 778 278 804 341 q 714 163 752 215 l 788 62 l 696 -18 l 629 75 m 194 412 q 235 181 173 273 q 406 90 296 90 q 600 185 509 90 q 711 412 692 279 q 671 641 732 550 q 502 732 610 732 q 306 638 398 732 q 194 412 214 544 z "},"¥":{"ha":735,"x_min":62,"x_max":804,"o":"m 393 557 l 397 557 l 650 987 l 804 987 l 489 492 l 661 492 l 648 410 l 439 410 l 422 294 l 631 294 l 618 213 l 410 213 l 378 0 l 241 0 l 273 213 l 62 213 l 74 294 l 285 294 l 302 410 l 92 410 l 104 492 l 281 492 l 114 987 l 268 987 l 393 557 z "},"¦":{"ha":302,"x_min":3,"x_max":307,"o":"m 3 -183 l 83 349 l 212 349 l 132 -183 l 3 -183 m 231 473 l 102 473 l 178 987 l 307 987 l 231 473 z "},"§":{"ha":750,"x_min":-23,"x_max":741,"o":"m 673 301 q 626 189 663 235 q 532 117 590 143 q 590 35 574 82 q 595 -80 606 -12 q 489 -264 577 -201 q 264 -328 401 -328 q 57 -259 137 -328 q 2 -41 -23 -189 l 3 -38 l 136 -37 q 164 -181 121 -138 q 281 -223 207 -223 q 399 -183 351 -223 q 457 -81 448 -143 q 433 15 466 -18 q 295 87 400 47 q 102 192 160 131 q 62 370 43 254 q 107 482 71 435 q 200 555 142 529 q 144 637 160 589 q 139 752 129 684 q 245 935 156 869 q 471 1002 335 1002 q 673 925 604 1002 q 718 713 741 848 l 717 710 l 584 710 q 563 845 596 793 q 454 896 529 896 q 333 856 380 896 q 278 753 287 815 q 298 652 267 685 q 438 581 329 620 q 632 476 575 536 q 673 301 690 416 m 372 473 q 329 486 349 479 q 292 502 309 494 q 230 453 254 486 q 200 377 206 420 q 220 273 189 306 q 361 198 251 239 q 399 184 380 191 q 437 170 418 178 q 502 218 476 185 q 535 294 528 251 q 511 394 545 359 q 372 473 477 430 z "},"¨":{"ha":644,"x_min":173,"x_max":628,"o":"m 610 862 l 469 862 l 486 987 l 628 987 l 610 862 m 315 862 l 173 862 l 191 987 l 332 987 l 315 862 z "},"©":{"ha":991,"x_min":47,"x_max":977,"o":"m 687 404 l 688 400 q 615 243 675 294 q 459 191 555 191 q 318 264 366 191 q 288 454 270 337 l 300 534 q 385 726 317 656 q 550 797 452 797 q 688 742 641 797 q 718 587 735 688 l 715 584 l 632 584 q 620 687 643 656 q 538 718 596 718 q 440 667 481 718 q 387 535 399 615 l 374 454 q 386 318 361 367 q 471 269 411 269 q 560 301 526 269 q 604 404 593 334 l 687 404 m 149 494 q 207 181 120 304 q 448 58 294 58 q 720 185 592 58 q 875 494 848 313 q 817 805 903 683 q 578 927 730 927 q 304 801 432 927 q 149 494 176 674 m 79 494 q 259 859 113 716 q 589 1001 406 1001 q 869 853 761 1001 q 945 494 977 705 q 765 129 912 272 q 437 -14 618 -14 q 155 134 263 -14 q 79 494 47 282 z "},"ª":{"ha":541,"x_min":102,"x_max":526,"o":"m 379 479 q 376 511 377 494 q 377 547 376 528 q 316 491 352 513 q 235 469 280 469 q 135 511 168 469 q 113 624 102 553 q 178 739 124 700 q 327 777 232 777 l 410 777 l 416 815 q 409 891 423 865 q 360 916 395 916 q 295 895 321 916 q 263 835 269 873 l 174 843 l 173 847 q 236 959 180 916 q 373 1002 291 1002 q 487 953 448 1002 q 513 814 526 904 l 481 602 q 474 537 475 566 q 477 479 473 507 l 379 479 m 270 552 q 336 574 300 552 q 387 624 372 597 l 399 707 l 317 707 q 244 684 273 707 q 210 627 215 660 q 219 571 204 589 q 270 552 233 552 z "},"«":{"ha":588,"x_min":57,"x_max":588,"o":"m 176 351 l 281 83 l 186 83 l 57 345 l 58 349 l 58 353 l 59 357 l 266 618 l 361 618 l 176 351 m 403 351 l 508 83 l 413 83 l 284 345 l 285 349 l 286 353 l 286 357 l 493 618 l 588 618 l 403 351 z "},"¬":{"ha":668,"x_min":90,"x_max":589,"o":"m 582 490 l 574 440 l 547 256 l 437 256 l 465 440 l 90 440 l 105 537 l 589 537 l 582 490 z "},"­":{"ha":534,"x_min":94,"x_max":454,"o":"m 437 368 l 94 368 l 110 473 l 454 473 l 437 368 z "},"®":{"ha":991,"x_min":47,"x_max":977,"o":"m 79 494 q 258 859 112 716 q 587 1001 405 1001 q 868 853 760 1001 q 945 494 977 705 q 764 129 911 272 q 435 -14 617 -14 q 155 134 262 -14 q 79 494 47 282 m 149 494 q 207 181 120 304 q 446 58 294 58 q 719 185 591 58 q 874 494 847 313 q 816 805 903 684 q 576 927 729 927 q 303 801 431 927 q 149 494 176 674 m 415 448 l 380 214 l 294 214 l 381 791 l 549 791 q 685 746 637 791 q 720 618 732 701 q 688 542 713 574 q 621 490 663 511 q 670 435 657 471 q 676 349 684 399 l 671 311 q 665 260 666 281 q 668 225 664 239 l 666 214 l 578 214 q 577 254 575 229 q 585 312 580 279 l 590 349 q 581 425 598 402 q 515 448 564 448 l 415 448 m 427 526 l 517 526 q 594 550 561 526 q 633 616 627 574 q 620 691 641 670 q 538 713 600 713 l 455 713 l 427 526 z "},"¯":{"ha":603,"x_min":159,"x_max":609,"o":"m 596 898 l 159 898 l 172 987 l 609 987 l 596 898 z "},"ˉ":{"ha":603,"x_min":159,"x_max":609,"o":"m 596 898 l 159 898 l 172 987 l 609 987 l 596 898 z "},"°":{"ha":485,"x_min":142,"x_max":481,"o":"m 153 825 q 219 950 165 899 q 340 1002 273 1002 q 441 949 402 1002 q 470 825 481 896 q 406 700 458 749 q 287 650 353 650 q 183 701 223 650 q 153 825 142 752 m 233 825 q 246 757 227 783 q 299 731 265 731 q 358 758 331 731 q 391 825 385 784 q 379 893 397 867 q 328 920 361 920 q 267 892 295 920 q 233 825 239 865 z "},"±":{"ha":677,"x_min":24,"x_max":651,"o":"m 438 592 l 651 592 l 636 486 l 423 486 l 384 205 l 260 205 l 300 486 l 78 486 l 93 592 l 315 592 l 353 868 l 477 868 l 438 592 m 511 3 l 24 3 l 41 109 l 528 109 l 511 3 z "},"²":{"ha":511,"x_min":86,"x_max":504,"o":"m 439 452 l 86 452 l 98 534 l 305 715 q 365 783 349 756 q 386 840 381 809 q 378 898 391 876 q 333 920 366 920 q 274 896 298 920 q 245 834 250 871 l 144 834 l 143 838 q 207 956 150 909 q 347 1003 263 1003 q 465 960 425 1003 q 493 839 504 917 q 450 744 484 783 q 336 635 415 704 l 236 538 l 237 534 l 451 534 l 439 452 z "},"³":{"ha":513,"x_min":87,"x_max":515,"o":"m 234 743 l 237 766 l 307 766 q 367 787 345 766 q 395 844 389 807 q 384 899 400 878 q 330 919 368 919 q 276 900 298 919 q 249 851 253 881 l 148 851 l 147 855 q 209 963 154 924 q 342 1002 264 1002 q 469 962 424 1002 q 504 848 515 921 q 472 777 498 808 q 406 729 446 745 q 463 680 445 713 q 474 602 481 648 q 405 485 463 525 q 260 444 348 444 q 135 485 184 444 q 102 600 87 525 l 103 604 l 205 604 q 216 547 199 568 q 272 526 234 526 q 335 548 309 526 q 368 605 361 569 q 356 670 374 650 q 296 690 338 690 l 226 690 l 233 743 l 234 743 z "},"´":{"ha":420,"x_min":149,"x_max":451,"o":"m 292 1029 l 450 1029 l 451 1025 l 262 849 l 151 849 l 149 852 l 292 1029 z "},"µ":{"ha":715,"x_min":-6,"x_max":675,"o":"m 283 734 l 216 290 q 224 131 201 171 q 304 91 248 91 q 395 118 357 91 q 458 196 433 145 l 538 734 l 675 734 l 565 0 l 439 0 l 444 58 q 374 4 412 22 q 289 -14 335 -14 q 225 -3 253 -14 q 178 32 197 7 l 131 -282 l -6 -282 l 146 734 l 283 734 z "},"¶":{"ha":615,"x_min":67,"x_max":610,"o":"m 325 0 l 378 353 l 328 353 q 132 441 197 353 q 88 670 67 530 q 198 901 110 815 q 422 987 286 987 l 610 987 l 463 0 l 325 0 z "},"·":{"ha":345,"x_min":106,"x_max":267,"o":"m 245 411 l 106 411 l 127 556 l 267 556 l 245 411 z "},"¸":{"ha":317,"x_min":-20,"x_max":201,"o":"m 134 1 l 121 -38 q 180 -72 159 -45 q 193 -155 201 -100 q 128 -261 182 -223 q -16 -297 74 -298 l -20 -295 l -12 -223 q 49 -206 23 -223 q 80 -155 75 -189 q 67 -107 85 -120 q 0 -90 50 -94 l 31 1 l 134 1 z "},"¹":{"ha":336,"x_min":135,"x_max":334,"o":"m 252 451 l 143 451 l 211 903 l 135 901 l 148 986 l 334 1002 l 252 451 z "},"º":{"ha":553,"x_min":110,"x_max":552,"o":"m 136 774 q 215 940 152 878 q 371 1002 279 1002 q 506 938 459 1002 q 537 774 552 873 l 526 695 q 447 529 509 590 q 292 469 385 469 q 157 532 203 469 q 125 695 110 595 l 136 774 m 222 695 q 232 590 212 628 q 304 552 252 552 q 386 592 352 552 q 429 695 419 632 l 440 774 q 429 878 450 839 q 358 916 409 916 q 276 876 310 916 q 234 774 243 836 l 222 695 z "},"»":{"ha":587,"x_min":52,"x_max":568,"o":"m 176 373 l 113 579 l 209 579 l 296 437 l 331 437 l 332 378 l 334 376 l 332 374 l 333 369 l 330 366 l 311 309 l 278 309 l 147 166 l 52 166 l 176 373 m 410 373 l 348 579 l 444 579 l 530 437 l 566 437 l 567 378 l 568 376 l 567 374 l 568 369 l 565 366 l 546 309 l 513 309 l 382 166 l 286 166 l 410 373 z "},"¼":{"ha":907,"x_min":184,"x_max":919,"o":"m 312 450 l 203 450 l 271 902 l 195 900 l 208 985 l 395 1001 l 312 450 m 249 82 l 184 125 l 715 897 l 780 854 l 249 82 m 850 188 l 919 188 l 906 105 l 838 105 l 823 0 l 715 0 l 731 105 l 489 105 l 494 170 l 796 543 l 904 543 l 850 188 m 608 188 l 743 188 l 776 404 l 772 406 l 763 393 l 608 188 z "},"½":{"ha":949,"x_min":193,"x_max":986,"o":"m 258 82 l 193 125 l 724 897 l 789 854 l 258 82 m 312 450 l 203 450 l 271 902 l 195 900 l 208 985 l 395 1001 l 312 450 m 921 0 l 568 0 l 581 82 l 787 263 q 847 330 831 304 q 868 387 863 357 q 860 446 873 424 q 815 467 848 467 q 756 443 780 467 q 726 382 732 419 l 626 382 l 625 386 q 689 504 632 456 q 829 551 745 551 q 947 508 907 551 q 975 387 986 465 q 932 291 966 331 q 818 183 897 252 l 718 86 l 720 82 l 933 82 l 921 0 z "},"¾":{"ha":1024,"x_min":98,"x_max":1047,"o":"m 373 82 l 308 125 l 839 897 l 904 854 l 373 82 m 979 188 l 1047 188 l 1034 105 l 966 105 l 951 0 l 844 0 l 859 105 l 617 105 l 622 170 l 924 543 l 1032 543 l 979 188 m 736 188 l 871 188 l 904 404 l 901 406 l 891 393 l 736 188 m 248 767 l 318 767 q 378 787 356 767 q 406 845 400 808 q 395 899 411 879 q 341 920 379 920 q 287 901 309 920 q 260 852 264 882 l 159 852 l 158 856 q 220 964 165 924 q 353 1003 275 1003 q 480 962 435 1003 q 515 848 526 922 q 483 778 509 809 q 418 730 457 747 q 474 682 456 714 q 485 603 492 649 q 416 485 473 526 q 271 445 359 445 q 146 485 195 445 q 113 601 98 526 l 114 605 l 216 605 q 228 548 210 569 q 283 527 245 527 q 346 548 320 527 q 378 606 372 570 q 367 670 385 650 q 307 690 349 690 l 237 690 l 240 713 l 245 744 l 248 767 z "},"¿":{"ha":603,"x_min":-14,"x_max":513,"o":"m 414 456 q 375 326 399 366 q 277 224 351 287 q 185 114 218 163 q 142 0 152 65 q 155 -118 130 -77 q 240 -158 180 -158 q 328 -120 288 -158 q 380 -14 369 -81 l 512 -14 l 513 -18 q 416 -201 497 -135 q 224 -267 335 -267 q 46 -196 106 -267 q 5 -2 -14 -124 q 68 157 18 88 q 201 298 119 227 q 253 364 239 332 q 276 456 267 395 l 414 456 m 315 734 l 456 734 l 436 599 l 294 599 l 315 734 z "},"À":{"ha":764,"x_min":-33,"x_max":691,"o":"m 515 250 l 219 250 l 111 0 l -33 0 l 412 987 l 545 987 l 691 0 l 548 0 l 515 250 m 267 359 l 500 359 l 446 760 l 443 761 l 267 359 m 552 1086 l 432 1086 l 297 1267 l 461 1267 l 552 1086 z "},"Á":{"ha":764,"x_min":-33,"x_max":722,"o":"m 515 250 l 219 250 l 111 0 l -33 0 l 412 987 l 545 987 l 691 0 l 548 0 l 515 250 m 267 359 l 500 359 l 446 760 l 443 761 l 267 359 m 562 1264 l 720 1264 l 722 1260 l 532 1084 l 422 1084 l 420 1087 l 562 1264 z "},"Â":{"ha":764,"x_min":-33,"x_max":691,"o":"m 515 250 l 219 250 l 111 0 l -33 0 l 412 987 l 545 987 l 691 0 l 548 0 l 515 250 m 267 359 l 500 359 l 446 760 l 443 761 l 267 359 m 689 1099 l 687 1084 l 576 1084 l 505 1187 l 406 1084 l 296 1084 l 298 1100 l 475 1257 l 558 1257 l 689 1099 z "},"Ã":{"ha":764,"x_min":-33,"x_max":716,"o":"m 515 250 l 219 250 l 111 0 l -33 0 l 412 987 l 545 987 l 691 0 l 548 0 l 515 250 m 267 359 l 500 359 l 446 760 l 443 761 l 267 359 m 716 1246 q 667 1140 707 1182 q 574 1099 627 1099 q 491 1132 535 1099 q 416 1165 446 1165 q 374 1142 393 1165 q 350 1086 354 1120 l 277 1105 q 326 1212 286 1169 q 418 1255 366 1255 q 498 1221 450 1255 q 578 1187 547 1187 q 620 1211 600 1187 q 644 1267 640 1234 l 716 1246 z "},"Ä":{"ha":764,"x_min":-33,"x_max":724,"o":"m 515 250 l 219 250 l 111 0 l -33 0 l 412 987 l 545 987 l 691 0 l 548 0 l 515 250 m 267 359 l 500 359 l 446 760 l 443 761 l 267 359 m 707 1097 l 565 1097 l 583 1222 l 724 1222 l 707 1097 m 411 1097 l 269 1097 l 287 1222 l 429 1222 l 411 1097 z "},"Å":{"ha":764,"x_min":-33,"x_max":691,"o":"m 515 250 l 219 250 l 111 0 l -33 0 l 412 987 l 545 987 l 691 0 l 548 0 l 515 250 m 267 359 l 500 359 l 446 760 l 443 761 l 267 359 m 396 1177 q 439 1257 404 1226 q 522 1289 475 1289 q 591 1256 564 1289 q 610 1177 617 1223 q 568 1098 602 1128 q 488 1069 533 1069 q 416 1100 444 1069 q 396 1177 389 1131 m 458 1177 q 466 1140 454 1154 q 497 1126 477 1126 q 529 1141 514 1126 q 547 1177 544 1156 q 541 1215 551 1200 q 513 1230 531 1230 q 478 1215 494 1230 q 458 1177 462 1200 z "},"Æ":{"ha":1152,"x_min":-41,"x_max":1164,"o":"m 1052 0 l 534 0 l 562 245 l 273 245 l 123 0 l -41 0 l 591 987 l 1164 987 l 1148 881 l 772 881 l 736 564 l 1053 564 l 1038 459 l 724 459 l 684 105 l 1067 105 l 1052 0 m 574 360 l 626 811 l 623 812 l 345 360 l 574 360 z "},"Ç":{"ha":768,"x_min":41,"x_max":789,"o":"m 702 297 l 703 293 q 588 63 683 141 q 345 -14 494 -14 q 120 84 198 -14 q 68 356 41 182 l 109 630 q 238 907 136 812 q 492 1002 340 1002 q 714 922 638 1002 q 764 694 789 843 l 763 690 l 630 690 q 608 848 646 801 q 476 896 570 896 q 327 827 389 896 q 247 632 265 758 l 205 356 q 225 156 185 222 q 360 90 266 90 q 500 140 446 90 q 570 297 553 190 l 702 297 m 395 -3 l 382 -42 q 440 -76 419 -49 q 454 -159 461 -104 q 389 -265 443 -227 q 244 -301 334 -302 l 241 -299 l 248 -227 q 309 -210 283 -227 q 340 -159 335 -193 q 328 -111 345 -124 q 260 -94 310 -98 l 292 -3 l 395 -3 z "},"È":{"ha":671,"x_min":40,"x_max":717,"o":"m 581 458 l 246 458 l 193 104 l 588 104 l 572 0 l 40 0 l 188 987 l 717 987 l 701 882 l 309 882 l 262 564 l 597 564 l 581 458 m 530 1086 l 410 1086 l 275 1267 l 439 1267 l 530 1086 z "},"É":{"ha":671,"x_min":40,"x_max":717,"o":"m 581 458 l 246 458 l 193 104 l 588 104 l 572 0 l 40 0 l 188 987 l 717 987 l 701 882 l 309 882 l 262 564 l 597 564 l 581 458 m 541 1264 l 699 1264 l 700 1260 l 511 1084 l 400 1084 l 398 1087 l 541 1264 z "},"Ê":{"ha":671,"x_min":40,"x_max":717,"o":"m 581 458 l 246 458 l 193 104 l 588 104 l 572 0 l 40 0 l 188 987 l 717 987 l 701 882 l 309 882 l 262 564 l 597 564 l 581 458 m 667 1099 l 665 1084 l 554 1084 l 484 1187 l 385 1084 l 275 1084 l 277 1100 l 453 1257 l 536 1257 l 667 1099 z "},"Ë":{"ha":671,"x_min":40,"x_max":717,"o":"m 581 458 l 246 458 l 193 104 l 588 104 l 572 0 l 40 0 l 188 987 l 717 987 l 701 882 l 309 882 l 262 564 l 597 564 l 581 458 m 685 1097 l 543 1097 l 561 1222 l 703 1222 l 685 1097 m 389 1097 l 248 1097 l 265 1222 l 407 1222 l 389 1097 z "},"Ì":{"ha":351,"x_min":52,"x_max":345,"o":"m 190 0 l 52 0 l 200 987 l 338 987 l 190 0 m 345 1086 l 225 1086 l 90 1267 l 254 1267 l 345 1086 z "},"Í":{"ha":351,"x_min":52,"x_max":515,"o":"m 190 0 l 52 0 l 200 987 l 338 987 l 190 0 m 355 1264 l 513 1264 l 515 1260 l 326 1084 l 215 1084 l 213 1087 l 355 1264 z "},"Î":{"ha":351,"x_min":52,"x_max":483,"o":"m 190 0 l 52 0 l 200 987 l 338 987 l 190 0 m 483 1099 l 481 1084 l 370 1084 l 299 1187 l 200 1084 l 90 1084 l 92 1100 l 269 1257 l 352 1257 l 483 1099 z "},"Ï":{"ha":351,"x_min":52,"x_max":518,"o":"m 190 0 l 52 0 l 200 987 l 338 987 l 190 0 m 500 1097 l 359 1097 l 376 1222 l 518 1222 l 500 1097 m 205 1097 l 63 1097 l 81 1222 l 222 1222 l 205 1097 z "},"Ð":{"ha":808,"x_min":20,"x_max":795,"o":"m 40 0 l 108 454 l 20 454 l 34 550 l 122 550 l 188 987 l 468 987 q 708 867 622 987 q 768 564 795 747 l 747 423 q 600 115 717 229 q 320 0 482 0 l 40 0 m 401 454 l 245 454 l 193 104 l 336 104 q 510 195 433 104 q 608 423 587 285 l 629 565 q 603 795 650 709 q 452 882 555 882 l 309 882 l 260 550 l 416 550 l 401 454 z "},"Ñ":{"ha":851,"x_min":40,"x_max":850,"o":"m 703 0 l 564 0 l 290 728 l 286 728 l 178 0 l 40 0 l 188 987 l 326 987 l 600 261 l 604 262 l 712 987 l 850 987 l 703 0 m 758 1246 q 709 1140 749 1182 q 616 1099 669 1099 q 533 1132 577 1099 q 458 1165 488 1165 q 416 1142 435 1165 q 392 1086 396 1120 l 319 1105 q 368 1212 328 1169 q 460 1255 408 1255 q 541 1221 492 1255 q 620 1187 589 1187 q 662 1211 642 1187 q 686 1267 682 1234 l 758 1246 z "},"Ò":{"ha":826,"x_min":39,"x_max":825,"o":"m 758 357 q 623 80 730 175 q 353 -14 515 -14 q 121 84 202 -14 q 66 357 39 183 l 106 629 q 240 906 134 811 q 505 1002 347 1002 q 742 902 659 1002 q 799 629 825 802 l 758 357 m 663 631 q 637 829 682 765 q 489 893 593 893 q 328 826 393 893 q 244 631 262 758 l 203 357 q 225 157 182 222 q 370 93 269 93 q 535 160 468 93 q 621 357 602 228 l 663 631 m 584 1101 l 464 1101 l 329 1281 l 493 1281 l 584 1101 z "},"Ó":{"ha":826,"x_min":39,"x_max":825,"o":"m 758 357 q 623 80 730 175 q 353 -14 515 -14 q 121 84 202 -14 q 66 357 39 183 l 106 629 q 240 906 134 811 q 505 1002 347 1002 q 742 902 659 1002 q 799 629 825 802 l 758 357 m 663 631 q 637 829 682 765 q 489 893 593 893 q 328 826 393 893 q 244 631 262 758 l 203 357 q 225 157 182 222 q 370 93 269 93 q 535 160 468 93 q 621 357 602 228 l 663 631 m 594 1278 l 752 1278 l 753 1274 l 564 1098 l 454 1098 l 452 1101 l 594 1278 z "},"Ô":{"ha":826,"x_min":39,"x_max":825,"o":"m 758 357 q 623 80 730 175 q 353 -14 515 -14 q 121 84 202 -14 q 66 357 39 183 l 106 629 q 240 906 134 811 q 505 1002 347 1002 q 742 902 659 1002 q 799 629 825 802 l 758 357 m 663 631 q 637 829 682 765 q 489 893 593 893 q 328 826 393 893 q 244 631 262 758 l 203 357 q 225 157 182 222 q 370 93 269 93 q 535 160 468 93 q 621 357 602 228 l 663 631 m 721 1114 l 719 1099 l 608 1099 l 537 1201 l 438 1099 l 328 1099 l 330 1114 l 507 1272 l 590 1272 l 721 1114 z "},"Õ":{"ha":826,"x_min":39,"x_max":825,"o":"m 758 357 q 623 80 730 175 q 353 -14 515 -14 q 121 84 202 -14 q 66 357 39 183 l 106 629 q 240 906 134 811 q 505 1002 347 1002 q 742 902 659 1002 q 799 629 825 802 l 758 357 m 663 631 q 637 829 682 765 q 489 893 593 893 q 328 826 393 893 q 244 631 262 758 l 203 357 q 225 157 182 222 q 370 93 269 93 q 535 160 468 93 q 621 357 602 228 l 663 631 m 748 1261 q 699 1155 739 1196 q 606 1113 659 1113 q 523 1146 567 1113 q 448 1179 478 1179 q 406 1157 425 1179 q 382 1101 386 1134 l 309 1120 q 357 1226 317 1183 q 450 1269 397 1269 q 530 1235 481 1269 q 610 1202 579 1202 q 651 1225 631 1202 q 676 1282 671 1249 l 748 1261 z "},"Ö":{"ha":826,"x_min":39,"x_max":825,"o":"m 758 357 q 623 80 730 175 q 353 -14 515 -14 q 121 84 202 -14 q 66 357 39 183 l 106 629 q 240 906 134 811 q 505 1002 347 1002 q 742 902 659 1002 q 799 629 825 802 l 758 357 m 663 631 q 637 829 682 765 q 489 893 593 893 q 328 826 393 893 q 244 631 262 758 l 203 357 q 225 157 182 222 q 370 93 269 93 q 535 160 468 93 q 621 357 602 228 l 663 631 m 739 1111 l 597 1111 l 614 1236 l 756 1236 l 739 1111 m 443 1111 l 301 1111 l 319 1236 l 460 1236 l 443 1111 z "},"×":{"ha":672,"x_min":33,"x_max":661,"o":"m 33 233 l 270 463 l 103 691 l 200 772 l 361 551 l 588 772 l 661 691 l 425 463 l 594 233 l 498 153 l 334 375 l 105 153 l 33 233 z "},"Ø":{"ha":827,"x_min":41,"x_max":841,"o":"m 758 357 q 623 80 730 175 q 353 -14 515 -14 q 261 -3 304 -14 q 183 30 218 7 l 123 -61 l 41 -61 l 130 74 q 69 194 86 122 q 66 357 52 266 l 106 629 q 240 906 134 811 q 505 1002 347 1002 q 614 986 564 1002 q 703 941 664 970 l 759 1025 l 841 1025 l 751 890 q 798 775 785 841 q 799 629 810 709 l 758 357 m 203 357 q 196 265 195 306 q 209 199 198 224 l 212 198 l 633 835 q 574 879 610 864 q 489 893 538 893 q 328 826 393 893 q 244 631 262 758 l 203 357 m 663 631 q 668 698 668 667 q 664 751 668 729 l 660 752 l 250 130 q 300 102 271 111 q 370 93 330 93 q 535 160 468 93 q 621 357 602 228 l 663 631 z "},"Ù":{"ha":823,"x_min":55,"x_max":834,"o":"m 834 987 l 736 334 q 606 75 711 164 q 353 -14 502 -14 q 134 79 214 -14 q 79 334 55 172 l 177 987 l 315 987 l 217 334 q 241 153 199 216 q 368 90 283 90 q 516 155 452 90 q 598 334 581 220 l 696 987 l 834 987 m 583 1086 l 463 1086 l 328 1267 l 492 1267 l 583 1086 z "},"Ú":{"ha":823,"x_min":55,"x_max":834,"o":"m 834 987 l 736 334 q 606 75 711 164 q 353 -14 502 -14 q 134 79 214 -14 q 79 334 55 172 l 177 987 l 315 987 l 217 334 q 241 153 199 216 q 368 90 283 90 q 516 155 452 90 q 598 334 581 220 l 696 987 l 834 987 m 593 1264 l 751 1264 l 753 1260 l 564 1084 l 453 1084 l 451 1087 l 593 1264 z "},"Û":{"ha":823,"x_min":55,"x_max":834,"o":"m 834 987 l 736 334 q 606 75 711 164 q 353 -14 502 -14 q 134 79 214 -14 q 79 334 55 172 l 177 987 l 315 987 l 217 334 q 241 153 199 216 q 368 90 283 90 q 516 155 452 90 q 598 334 581 220 l 696 987 l 834 987 m 720 1099 l 718 1084 l 607 1084 l 536 1187 l 437 1084 l 328 1084 l 330 1100 l 506 1257 l 589 1257 l 720 1099 z "},"Ü":{"ha":823,"x_min":55,"x_max":834,"o":"m 834 987 l 736 334 q 606 75 711 164 q 353 -14 502 -14 q 134 79 214 -14 q 79 334 55 172 l 177 987 l 315 987 l 217 334 q 241 153 199 216 q 368 90 283 90 q 516 155 452 90 q 598 334 581 220 l 696 987 l 834 987 m 738 1097 l 596 1097 l 614 1222 l 755 1222 l 738 1097 m 442 1097 l 300 1097 l 318 1222 l 460 1222 l 442 1097 z "},"Ý":{"ha":764,"x_min":113,"x_max":838,"o":"m 401 506 l 405 506 l 683 987 l 838 987 l 447 356 l 393 0 l 256 0 l 311 365 l 113 987 l 266 987 l 401 506 m 562 1261 l 720 1261 l 722 1257 l 532 1081 l 422 1081 l 420 1084 l 562 1261 z "},"Þ":{"ha":726,"x_min":37,"x_max":715,"o":"m 323 987 l 293 791 l 441 791 q 646 709 576 791 q 696 500 715 627 q 586 288 675 366 q 353 210 496 210 l 206 210 l 175 0 l 37 0 l 185 987 l 323 987 m 277 686 l 222 315 l 370 315 q 496 369 446 315 q 557 499 545 423 q 537 632 569 579 q 425 686 506 686 l 277 686 z "},"ß":{"ha":741,"x_min":31,"x_max":683,"o":"m 168 0 l 31 0 l 141 738 q 246 968 164 890 q 447 1046 328 1046 q 598 987 541 1046 q 639 821 654 928 q 582 671 627 741 q 531 557 538 602 q 603 407 522 501 q 669 217 683 312 q 579 41 651 97 q 392 -14 508 -14 q 298 -1 347 -14 q 231 33 250 13 l 273 138 q 330 104 296 119 q 401 90 363 90 q 488 123 453 90 q 531 212 522 157 q 459 368 540 275 q 393 555 379 461 q 449 690 402 619 q 503 812 495 760 q 489 907 512 873 q 428 942 466 942 q 334 888 376 942 q 278 736 292 833 l 168 0 z "},"à":{"ha":656,"x_min":12,"x_max":616,"o":"m 406 0 q 401 58 402 31 q 403 112 400 85 q 312 22 366 58 q 198 -14 259 -14 q 58 44 104 -14 q 27 203 12 103 q 124 369 43 311 q 336 427 205 427 l 449 427 l 460 502 q 447 608 471 572 q 367 644 423 644 q 283 611 319 644 q 240 528 248 578 l 109 528 l 108 532 q 196 684 117 620 q 391 747 275 747 q 556 683 496 747 q 599 500 616 618 l 547 160 q 540 78 541 117 q 546 0 540 39 l 406 0 m 242 92 q 346 127 296 92 q 417 212 395 163 l 436 341 l 321 341 q 217 300 260 341 q 165 203 174 259 q 177 121 157 151 q 242 92 197 92 m 462 868 l 342 868 l 207 1048 l 371 1048 l 462 868 z "},"á":{"ha":656,"x_min":12,"x_max":632,"o":"m 406 0 q 401 58 402 31 q 403 112 400 85 q 312 22 366 58 q 198 -14 259 -14 q 58 44 104 -14 q 27 203 12 103 q 124 369 43 311 q 336 427 205 427 l 449 427 l 460 502 q 447 608 471 572 q 367 644 423 644 q 283 611 319 644 q 240 528 248 578 l 109 528 l 108 532 q 196 684 117 620 q 391 747 275 747 q 556 683 496 747 q 599 500 616 618 l 547 160 q 540 78 541 117 q 546 0 540 39 l 406 0 m 242 92 q 346 127 296 92 q 417 212 395 163 l 436 341 l 321 341 q 217 300 260 341 q 165 203 174 259 q 177 121 157 151 q 242 92 197 92 m 473 1046 l 631 1046 l 632 1042 l 443 865 l 332 865 l 330 869 l 473 1046 z "},"â":{"ha":656,"x_min":12,"x_max":616,"o":"m 406 0 q 401 58 402 31 q 403 112 400 85 q 312 22 366 58 q 198 -14 259 -14 q 58 44 104 -14 q 27 203 12 103 q 124 369 43 311 q 336 427 205 427 l 449 427 l 460 502 q 447 608 471 572 q 367 644 423 644 q 283 611 319 644 q 240 528 248 578 l 109 528 l 108 532 q 196 684 117 620 q 391 747 275 747 q 556 683 496 747 q 599 500 616 618 l 547 160 q 540 78 541 117 q 546 0 540 39 l 406 0 m 242 92 q 346 127 296 92 q 417 212 395 163 l 436 341 l 321 341 q 217 300 260 341 q 165 203 174 259 q 177 121 157 151 q 242 92 197 92 m 600 881 l 597 866 l 486 866 l 416 968 l 317 866 l 207 866 l 209 882 l 385 1039 l 469 1039 l 600 881 z "},"ã":{"ha":656,"x_min":12,"x_max":627,"o":"m 406 0 q 401 58 402 31 q 403 112 400 85 q 312 22 366 58 q 198 -14 259 -14 q 58 44 104 -14 q 27 203 12 103 q 124 369 43 311 q 336 427 205 427 l 449 427 l 460 502 q 447 608 471 572 q 367 644 423 644 q 283 611 319 644 q 240 528 248 578 l 109 528 l 108 532 q 196 684 117 620 q 391 747 275 747 q 556 683 496 747 q 599 500 616 618 l 547 160 q 540 78 541 117 q 546 0 540 39 l 406 0 m 242 92 q 346 127 296 92 q 417 212 395 163 l 436 341 l 321 341 q 217 300 260 341 q 165 203 174 259 q 177 121 157 151 q 242 92 197 92 m 627 1028 q 577 922 617 964 q 485 880 538 880 q 401 913 446 880 q 326 947 357 947 q 284 924 304 947 q 260 868 264 901 l 188 887 q 236 994 196 951 q 329 1036 276 1036 q 409 1003 360 1036 q 488 969 458 969 q 530 992 510 969 q 555 1049 550 1016 l 627 1028 z "},"ä":{"ha":656,"x_min":12,"x_max":635,"o":"m 406 0 q 401 58 402 31 q 403 112 400 85 q 312 22 366 58 q 198 -14 259 -14 q 58 44 104 -14 q 27 203 12 103 q 124 369 43 311 q 336 427 205 427 l 449 427 l 460 502 q 447 608 471 572 q 367 644 423 644 q 283 611 319 644 q 240 528 248 578 l 109 528 l 108 532 q 196 684 117 620 q 391 747 275 747 q 556 683 496 747 q 599 500 616 618 l 547 160 q 540 78 541 117 q 546 0 540 39 l 406 0 m 242 92 q 346 127 296 92 q 417 212 395 163 l 436 341 l 321 341 q 217 300 260 341 q 165 203 174 259 q 177 121 157 151 q 242 92 197 92 m 617 878 l 475 878 l 493 1004 l 635 1004 l 617 878 m 321 878 l 180 878 l 197 1004 l 339 1004 l 321 878 z "},"å":{"ha":656,"x_min":12,"x_max":616,"o":"m 406 0 q 401 58 402 31 q 403 112 400 85 q 312 22 366 58 q 198 -14 259 -14 q 58 44 104 -14 q 27 203 12 103 q 124 369 43 311 q 336 427 205 427 l 449 427 l 460 502 q 447 608 471 572 q 367 644 423 644 q 283 611 319 644 q 240 528 248 578 l 109 528 l 108 532 q 196 684 117 620 q 391 747 275 747 q 556 683 496 747 q 599 500 616 618 l 547 160 q 540 78 541 117 q 546 0 540 39 l 406 0 m 242 92 q 346 127 296 92 q 417 212 395 163 l 436 341 l 321 341 q 217 300 260 341 q 165 203 174 259 q 177 121 157 151 q 242 92 197 92 m 307 959 q 350 1039 314 1008 q 432 1070 386 1070 q 501 1038 475 1070 q 521 959 528 1005 q 478 880 513 909 q 399 850 444 850 q 327 881 355 850 q 307 959 299 912 m 369 959 q 376 922 365 936 q 408 908 387 908 q 439 923 425 908 q 458 959 454 937 q 451 997 461 982 q 423 1011 441 1011 q 388 996 404 1011 q 369 959 372 981 z "},"æ":{"ha":1048,"x_min":16,"x_max":1027,"o":"m 698 -14 q 568 17 623 -14 q 483 106 513 49 q 374 20 441 55 q 219 -14 306 -14 q 67 45 118 -14 q 32 206 16 105 q 126 370 47 314 q 340 425 204 425 l 460 425 l 470 486 q 460 602 481 562 q 387 642 439 642 q 295 604 334 642 q 249 513 256 567 l 118 524 l 117 528 q 207 687 129 627 q 404 747 286 747 q 510 725 464 747 q 583 659 557 702 q 679 725 626 702 q 793 747 732 747 q 970 659 912 747 q 1005 422 1027 571 l 993 338 l 589 338 q 604 156 573 222 q 723 90 635 90 q 822 109 778 90 q 911 160 865 127 l 939 71 q 838 12 901 38 q 698 -14 775 -14 m 260 86 q 347 113 299 86 q 423 175 395 140 l 447 332 l 328 332 q 220 294 264 332 q 169 203 176 256 q 183 117 160 148 q 260 86 205 86 m 777 642 q 672 585 717 642 q 609 437 628 528 l 611 433 l 871 433 l 873 454 q 864 591 886 541 q 777 642 841 642 z "},"ç":{"ha":629,"x_min":26,"x_max":618,"o":"m 294 90 q 384 130 342 90 q 435 236 425 170 l 558 236 l 560 232 q 464 55 547 124 q 278 -14 382 -14 q 87 91 148 -14 q 50 353 26 195 l 54 379 q 166 646 78 545 q 392 747 255 747 q 558 672 498 747 q 600 477 618 597 l 471 477 q 456 597 482 553 q 376 642 431 642 q 255 566 302 642 q 191 379 208 490 l 187 353 q 192 162 170 234 q 294 90 215 90 m 324 -3 l 311 -42 q 370 -76 349 -49 q 383 -159 391 -104 q 318 -265 372 -227 q 174 -301 264 -302 l 170 -299 l 178 -227 q 239 -210 213 -227 q 270 -159 264 -193 q 257 -111 275 -124 q 190 -94 239 -98 l 221 -3 l 324 -3 z "},"è":{"ha":633,"x_min":26,"x_max":618,"o":"m 288 -14 q 92 87 157 -14 q 50 347 26 189 l 55 379 q 172 647 80 547 q 389 747 263 747 q 564 657 510 747 q 597 420 618 568 l 585 342 l 187 342 q 200 158 170 226 q 313 90 229 90 q 416 109 369 90 q 503 161 463 127 l 535 75 q 429 12 492 37 q 288 -14 365 -14 m 374 642 q 272 586 316 642 q 208 444 228 530 l 210 440 l 464 440 l 467 456 q 458 591 479 541 q 374 642 436 642 m 456 869 l 336 869 l 201 1049 l 366 1049 l 456 869 z "},"é":{"ha":633,"x_min":26,"x_max":627,"o":"m 288 -14 q 92 87 157 -14 q 50 347 26 189 l 55 379 q 172 647 80 547 q 389 747 263 747 q 564 657 510 747 q 597 420 618 568 l 585 342 l 187 342 q 200 158 170 226 q 313 90 229 90 q 416 109 369 90 q 503 161 463 127 l 535 75 q 429 12 492 37 q 288 -14 365 -14 m 374 642 q 272 586 316 642 q 208 444 228 530 l 210 440 l 464 440 l 467 456 q 458 591 479 541 q 374 642 436 642 m 467 1046 l 625 1046 l 627 1042 l 437 866 l 327 866 l 325 869 l 467 1046 z "},"ê":{"ha":633,"x_min":26,"x_max":618,"o":"m 288 -14 q 92 87 157 -14 q 50 347 26 189 l 55 379 q 172 647 80 547 q 389 747 263 747 q 564 657 510 747 q 597 420 618 568 l 585 342 l 187 342 q 200 158 170 226 q 313 90 229 90 q 416 109 369 90 q 503 161 463 127 l 535 75 q 429 12 492 37 q 288 -14 365 -14 m 374 642 q 272 586 316 642 q 208 444 228 530 l 210 440 l 464 440 l 467 456 q 458 591 479 541 q 374 642 436 642 m 594 882 l 592 867 l 481 867 l 410 969 l 311 867 l 201 867 l 203 882 l 380 1040 l 463 1040 l 594 882 z "},"ë":{"ha":633,"x_min":26,"x_max":629,"o":"m 288 -14 q 92 87 157 -14 q 50 347 26 189 l 55 379 q 172 647 80 547 q 389 747 263 747 q 564 657 510 747 q 597 420 618 568 l 585 342 l 187 342 q 200 158 170 226 q 313 90 229 90 q 416 109 369 90 q 503 161 463 127 l 535 75 q 429 12 492 37 q 288 -14 365 -14 m 374 642 q 272 586 316 642 q 208 444 228 530 l 210 440 l 464 440 l 467 456 q 458 591 479 541 q 374 642 436 642 m 612 879 l 470 879 l 488 1004 l 629 1004 l 612 879 m 316 879 l 174 879 l 192 1004 l 334 1004 l 316 879 z "},"ì":{"ha":319,"x_min":35,"x_max":294,"o":"m 172 0 l 35 0 l 144 734 l 282 734 l 172 0 m 294 854 l 174 854 l 39 1034 l 203 1034 l 294 854 z "},"í":{"ha":319,"x_min":35,"x_max":463,"o":"m 172 0 l 35 0 l 144 734 l 282 734 l 172 0 m 303 1031 l 461 1031 l 463 1027 l 273 851 l 163 851 l 161 854 l 303 1031 z "},"î":{"ha":319,"x_min":35,"x_max":431,"o":"m 172 0 l 35 0 l 144 734 l 282 734 l 172 0 m 431 867 l 429 852 l 318 852 l 248 954 l 149 852 l 39 852 l 41 867 l 217 1025 l 300 1025 l 431 867 z "},"ï":{"ha":319,"x_min":11,"x_max":466,"o":"m 172 0 l 35 0 l 144 734 l 282 734 l 172 0 m 448 864 l 307 864 l 324 989 l 466 989 l 448 864 m 153 864 l 11 864 l 28 989 l 170 989 l 153 864 z "},"ð":{"ha":714,"x_min":12,"x_max":722,"o":"m 597 883 q 667 718 648 812 q 670 509 686 624 l 648 365 q 520 89 622 191 q 285 -14 418 -14 q 85 81 158 -14 q 33 313 12 176 q 149 566 58 475 q 372 656 241 656 q 465 634 422 656 q 534 574 508 612 l 537 576 q 528 710 543 651 q 481 813 513 770 l 302 706 l 268 770 l 430 867 q 384 897 408 883 q 330 922 359 910 l 390 1029 q 475 991 435 1014 q 549 938 515 968 l 688 1021 l 722 957 l 597 883 m 303 91 q 434 169 375 91 q 511 365 492 246 l 525 462 q 471 528 511 501 q 371 554 432 554 q 242 485 298 554 q 171 313 186 416 q 192 156 157 221 q 303 91 227 91 z "},"ñ":{"ha":684,"x_min":24,"x_max":642,"o":"m 252 629 q 344 716 292 686 q 456 747 396 747 q 596 675 551 747 q 619 452 641 602 l 551 0 l 414 0 l 481 451 q 475 600 497 559 q 394 640 453 640 q 310 614 349 640 q 243 544 272 589 l 162 0 l 24 0 l 134 734 l 260 734 l 252 629 m 642 1028 q 593 922 633 964 q 500 880 553 880 q 417 913 461 880 q 342 947 372 947 q 300 924 319 947 q 276 868 280 901 l 203 887 q 252 994 212 951 q 345 1036 292 1036 q 425 1003 376 1036 q 504 969 473 969 q 546 992 526 969 q 570 1049 566 1016 l 642 1028 z "},"ò":{"ha":684,"x_min":26,"x_max":657,"o":"m 54 375 q 171 646 79 545 q 399 747 262 747 q 593 642 528 747 q 633 375 657 536 l 631 357 q 513 86 605 186 q 286 -14 422 -14 q 91 90 155 -14 q 51 357 26 195 l 54 375 m 189 357 q 197 163 170 236 q 302 90 224 90 q 424 166 374 90 q 492 357 475 242 l 495 375 q 486 568 513 494 q 383 642 460 642 q 259 565 310 642 q 192 375 208 488 l 189 357 m 479 868 l 359 868 l 224 1048 l 389 1048 l 479 868 z "},"ó":{"ha":684,"x_min":26,"x_max":657,"o":"m 54 375 q 171 646 79 545 q 399 747 262 747 q 593 642 528 747 q 633 375 657 536 l 631 357 q 513 86 605 186 q 286 -14 422 -14 q 91 90 155 -14 q 51 357 26 195 l 54 375 m 189 357 q 197 163 170 236 q 302 90 224 90 q 424 166 374 90 q 492 357 475 242 l 495 375 q 486 568 513 494 q 383 642 460 642 q 259 565 310 642 q 192 375 208 488 l 189 357 m 490 1046 l 648 1046 l 650 1042 l 460 865 l 350 865 l 348 869 l 490 1046 z "},"ô":{"ha":684,"x_min":26,"x_max":657,"o":"m 54 375 q 171 646 79 545 q 399 747 262 747 q 593 642 528 747 q 633 375 657 536 l 631 357 q 513 86 605 186 q 286 -14 422 -14 q 91 90 155 -14 q 51 357 26 195 l 54 375 m 189 357 q 197 163 170 236 q 302 90 224 90 q 424 166 374 90 q 492 357 475 242 l 495 375 q 486 568 513 494 q 383 642 460 642 q 259 565 310 642 q 192 375 208 488 l 189 357 m 617 881 l 615 866 l 504 866 l 433 968 l 334 866 l 224 866 l 227 882 l 403 1039 l 486 1039 l 617 881 z "},"õ":{"ha":684,"x_min":26,"x_max":657,"o":"m 54 375 q 171 646 79 545 q 399 747 262 747 q 593 642 528 747 q 633 375 657 536 l 631 357 q 513 86 605 186 q 286 -14 422 -14 q 91 90 155 -14 q 51 357 26 195 l 54 375 m 189 357 q 197 163 170 236 q 302 90 224 90 q 424 166 374 90 q 492 357 475 242 l 495 375 q 486 568 513 494 q 383 642 460 642 q 259 565 310 642 q 192 375 208 488 l 189 357 m 644 1028 q 595 922 635 964 q 503 880 555 880 q 419 913 463 880 q 344 947 374 947 q 302 924 321 947 q 278 868 282 901 l 205 887 q 254 994 214 951 q 347 1036 294 1036 q 427 1003 378 1036 q 506 969 475 969 q 548 992 528 969 q 572 1049 568 1016 l 644 1028 z "},"ö":{"ha":684,"x_min":26,"x_max":657,"o":"m 54 375 q 171 646 79 545 q 399 747 262 747 q 593 642 528 747 q 633 375 657 536 l 631 357 q 513 86 605 186 q 286 -14 422 -14 q 91 90 155 -14 q 51 357 26 195 l 54 375 m 189 357 q 197 163 170 236 q 302 90 224 90 q 424 166 374 90 q 492 357 475 242 l 495 375 q 486 568 513 494 q 383 642 460 642 q 259 565 310 642 q 192 375 208 488 l 189 357 m 635 878 l 493 878 l 511 1004 l 652 1004 l 635 878 m 339 878 l 197 878 l 215 1004 l 357 1004 l 339 878 z "},"÷":{"ha":690,"x_min":51,"x_max":660,"o":"m 642 412 l 51 412 l 68 528 l 660 528 l 642 412 m 456 675 l 317 675 l 337 807 l 477 807 l 456 675 m 374 127 l 235 127 l 254 260 l 394 260 l 374 127 z "},"ø":{"ha":684,"x_min":36,"x_max":650,"o":"m 54 375 q 171 646 79 545 q 399 747 262 747 q 456 741 429 747 q 509 722 484 734 l 567 823 l 650 823 l 566 677 q 629 548 612 627 q 633 375 647 470 l 631 357 q 513 86 605 186 q 286 -14 422 -14 q 231 -9 257 -14 q 183 7 205 -3 l 125 -94 l 43 -94 l 125 48 q 55 177 75 97 q 51 357 36 258 l 54 375 m 189 357 q 181 254 180 300 q 195 178 182 208 l 198 178 l 451 619 q 420 636 437 630 q 383 642 404 642 q 259 565 310 642 q 192 375 208 488 l 189 357 m 495 375 q 502 469 503 426 q 492 541 501 512 l 488 541 l 240 106 q 268 94 252 98 q 302 90 283 90 q 424 166 374 90 q 492 357 475 242 l 495 375 z "},"ù":{"ha":684,"x_min":43,"x_max":661,"o":"m 433 0 l 436 104 q 348 16 399 46 q 235 -14 296 -14 q 90 64 137 -14 q 68 306 43 143 l 132 734 l 270 734 l 205 304 q 207 137 187 182 q 283 92 227 92 q 373 117 334 92 q 441 189 413 142 l 522 734 l 661 734 l 551 0 l 433 0 m 476 854 l 356 854 l 221 1034 l 385 1034 l 476 854 z "},"ú":{"ha":684,"x_min":43,"x_max":661,"o":"m 433 0 l 436 104 q 348 16 399 46 q 235 -14 296 -14 q 90 64 137 -14 q 68 306 43 143 l 132 734 l 270 734 l 205 304 q 207 137 187 182 q 283 92 227 92 q 373 117 334 92 q 441 189 413 142 l 522 734 l 661 734 l 551 0 l 433 0 m 486 1031 l 644 1031 l 646 1027 l 456 851 l 346 851 l 344 854 l 486 1031 z "},"û":{"ha":684,"x_min":43,"x_max":661,"o":"m 433 0 l 436 104 q 348 16 399 46 q 235 -14 296 -14 q 90 64 137 -14 q 68 306 43 143 l 132 734 l 270 734 l 205 304 q 207 137 187 182 q 283 92 227 92 q 373 117 334 92 q 441 189 413 142 l 522 734 l 661 734 l 551 0 l 433 0 m 614 867 l 612 852 l 500 852 l 430 954 l 331 852 l 221 852 l 223 867 l 399 1025 l 483 1025 l 614 867 z "},"ü":{"ha":684,"x_min":43,"x_max":661,"o":"m 433 0 l 436 104 q 348 16 399 46 q 235 -14 296 -14 q 90 64 137 -14 q 68 306 43 143 l 132 734 l 270 734 l 205 304 q 207 137 187 182 q 283 92 227 92 q 373 117 334 92 q 441 189 413 142 l 522 734 l 661 734 l 551 0 l 433 0 m 631 864 l 489 864 l 507 989 l 648 989 l 631 864 m 335 864 l 193 864 l 211 989 l 353 989 l 335 864 z "},"ý":{"ha":612,"x_min":-35,"x_max":654,"o":"m 272 253 l 275 204 l 279 203 l 503 734 l 654 734 l 264 -114 q 175 -243 228 -189 q 38 -296 122 -296 q 2 -293 22 -296 q -35 -284 -17 -289 l -4 -182 q 15 -185 2 -184 q 36 -186 28 -186 q 105 -152 75 -186 q 155 -71 135 -117 l 191 5 l 69 734 l 220 734 l 272 253 m 451 1031 l 609 1031 l 610 1027 l 421 851 l 311 851 l 309 854 l 451 1031 z "},"þ":{"ha":691,"x_min":-10,"x_max":662,"o":"m 634 344 q 530 80 608 175 q 335 -14 452 -14 q 244 8 282 -14 q 181 74 205 31 l 128 -282 l -10 -282 l 32 0 l 30 0 l 189 1058 l 327 1058 l 267 655 q 348 724 302 700 q 448 747 393 747 q 611 640 560 747 q 636 358 662 532 l 634 344 m 498 358 q 493 564 517 487 q 395 640 469 640 q 314 614 351 640 q 252 543 277 587 l 197 176 q 238 113 209 135 q 313 90 267 90 q 431 160 383 90 q 496 344 478 231 l 498 358 z "},"ÿ":{"ha":612,"x_min":-35,"x_max":654,"o":"m 272 253 l 275 204 l 279 203 l 503 734 l 654 734 l 264 -114 q 175 -243 228 -189 q 38 -296 122 -296 q 2 -293 22 -296 q -35 -284 -17 -289 l -4 -182 q 15 -185 2 -184 q 36 -186 28 -186 q 105 -152 75 -186 q 155 -71 135 -117 l 191 5 l 69 734 l 220 734 l 272 253 m 596 864 l 454 864 l 472 989 l 614 989 l 596 864 m 300 864 l 159 864 l 176 989 l 318 989 l 300 864 z "},"Ā":{"ha":764,"x_min":-33,"x_max":722,"o":"m 515 250 l 219 250 l 111 0 l -33 0 l 412 987 l 545 987 l 691 0 l 548 0 l 515 250 m 267 359 l 500 359 l 446 760 l 443 761 l 267 359 m 709 1120 l 273 1120 l 286 1210 l 722 1210 l 709 1120 z "},"ā":{"ha":656,"x_min":12,"x_max":633,"o":"m 406 0 q 401 58 402 31 q 403 112 400 85 q 312 22 366 58 q 198 -14 259 -14 q 58 44 104 -14 q 27 203 12 103 q 124 369 43 311 q 336 427 205 427 l 449 427 l 460 502 q 447 608 471 572 q 367 644 423 644 q 283 611 319 644 q 240 528 248 578 l 109 528 l 108 532 q 196 684 117 620 q 391 747 275 747 q 556 683 496 747 q 599 500 616 618 l 547 160 q 540 78 541 117 q 546 0 540 39 l 406 0 m 242 92 q 346 127 296 92 q 417 212 395 163 l 436 341 l 321 341 q 217 300 260 341 q 165 203 174 259 q 177 121 157 151 q 242 92 197 92 m 620 902 l 183 902 l 196 991 l 633 991 l 620 902 z "},"Ă":{"ha":764,"x_min":-33,"x_max":703,"o":"m 515 250 l 219 250 l 111 0 l -33 0 l 412 987 l 545 987 l 691 0 l 548 0 l 515 250 m 267 359 l 500 359 l 446 760 l 443 761 l 267 359 m 702 1270 l 703 1265 q 635 1134 694 1182 q 486 1085 576 1085 q 352 1136 399 1085 q 319 1266 305 1187 l 321 1270 l 425 1270 q 435 1195 418 1223 q 498 1168 452 1168 q 566 1197 540 1168 q 598 1270 592 1225 l 702 1270 z "},"ă":{"ha":656,"x_min":12,"x_max":616,"o":"m 406 0 q 401 58 402 31 q 403 112 400 85 q 312 22 366 58 q 198 -14 259 -14 q 58 44 104 -14 q 27 203 12 103 q 124 369 43 311 q 336 427 205 427 l 449 427 l 460 502 q 447 608 471 572 q 367 644 423 644 q 283 611 319 644 q 240 528 248 578 l 109 528 l 108 532 q 196 684 117 620 q 391 747 275 747 q 556 683 496 747 q 599 500 616 618 l 547 160 q 540 78 541 117 q 546 0 540 39 l 406 0 m 242 92 q 346 127 296 92 q 417 212 395 163 l 436 341 l 321 341 q 217 300 260 341 q 165 203 174 259 q 177 121 157 151 q 242 92 197 92 m 612 1051 l 614 1047 q 546 915 605 964 q 397 867 487 867 q 263 918 310 867 q 230 1048 216 968 l 231 1051 l 335 1051 q 345 977 328 1004 q 408 949 362 949 q 476 978 450 949 q 509 1051 503 1007 l 612 1051 z "},"Ą":{"ha":764,"x_min":-33,"x_max":691,"o":"m 515 250 l 219 250 l 111 0 l -33 0 l 412 987 l 545 987 l 691 0 l 548 0 l 515 250 m 267 359 l 500 359 l 446 760 l 443 761 l 267 359 m 660 0 q 595 -68 618 -38 q 566 -134 572 -98 q 572 -173 563 -157 q 611 -189 581 -189 q 643 -183 627 -189 q 670 -171 658 -178 l 678 -250 q 629 -271 656 -262 q 568 -280 602 -280 q 479 -245 512 -280 q 455 -148 446 -210 q 500 -48 463 -94 q 606 33 537 -3 l 660 0 z "},"ą":{"ha":656,"x_min":12,"x_max":616,"o":"m 406 0 q 401 58 402 31 q 403 112 400 85 q 312 22 366 58 q 198 -14 259 -14 q 58 44 104 -14 q 27 203 12 103 q 124 369 43 311 q 336 427 205 427 l 449 427 l 460 502 q 447 608 471 572 q 367 644 423 644 q 283 611 319 644 q 240 528 248 578 l 109 528 l 108 532 q 196 684 117 620 q 391 747 275 747 q 556 683 496 747 q 599 500 616 618 l 547 160 q 540 78 541 117 q 546 0 540 39 l 406 0 m 242 92 q 346 127 296 92 q 417 212 395 163 l 436 341 l 321 341 q 217 300 260 341 q 165 203 174 259 q 177 121 157 151 q 242 92 197 92 m 514 0 q 449 -68 472 -38 q 420 -134 426 -98 q 426 -173 417 -157 q 465 -189 435 -189 q 497 -183 481 -189 q 524 -171 512 -178 l 532 -250 q 483 -271 510 -262 q 422 -280 456 -280 q 333 -245 366 -280 q 309 -148 300 -210 q 354 -48 317 -94 q 460 33 391 -3 l 514 0 z "},"Ć":{"ha":768,"x_min":41,"x_max":789,"o":"m 702 297 l 703 293 q 588 63 683 141 q 345 -14 494 -14 q 120 84 198 -14 q 68 356 41 182 l 109 630 q 238 907 136 812 q 492 1002 340 1002 q 714 922 638 1002 q 764 694 789 843 l 763 690 l 630 690 q 608 848 646 801 q 476 896 570 896 q 327 827 389 896 q 247 632 265 758 l 205 356 q 225 156 185 222 q 360 90 266 90 q 500 140 446 90 q 570 297 553 190 l 702 297 m 582 1278 l 740 1278 l 741 1274 l 552 1098 l 441 1098 l 439 1101 l 582 1278 z "},"ć":{"ha":629,"x_min":26,"x_max":627,"o":"m 294 90 q 384 130 342 90 q 435 236 425 170 l 558 236 l 560 232 q 464 55 547 124 q 278 -14 382 -14 q 87 91 148 -14 q 50 353 26 195 l 54 379 q 166 646 78 545 q 392 747 255 747 q 558 672 498 747 q 600 477 618 597 l 471 477 q 456 597 482 553 q 376 642 431 642 q 255 566 302 642 q 191 379 208 490 l 187 353 q 192 162 170 234 q 294 90 215 90 m 467 1046 l 625 1046 l 627 1042 l 437 865 l 327 865 l 325 869 l 467 1046 z "},"Ĉ":{"ha":768,"x_min":41,"x_max":789,"o":"m 702 297 l 703 293 q 588 63 683 141 q 345 -14 494 -14 q 120 84 198 -14 q 68 356 41 182 l 109 630 q 238 907 136 812 q 492 1002 340 1002 q 714 922 638 1002 q 764 694 789 843 l 763 690 l 630 690 q 608 848 646 801 q 476 896 570 896 q 327 827 389 896 q 247 632 265 758 l 205 356 q 225 156 185 222 q 360 90 266 90 q 500 140 446 90 q 570 297 553 190 l 702 297 m 709 1114 l 707 1099 l 595 1099 l 525 1201 l 426 1099 l 316 1099 l 318 1114 l 494 1272 l 578 1272 l 709 1114 z "},"ĉ":{"ha":629,"x_min":26,"x_max":618,"o":"m 294 90 q 384 130 342 90 q 435 236 425 170 l 558 236 l 560 232 q 464 55 547 124 q 278 -14 382 -14 q 87 91 148 -14 q 50 353 26 195 l 54 379 q 166 646 78 545 q 392 747 255 747 q 558 672 498 747 q 600 477 618 597 l 471 477 q 456 597 482 553 q 376 642 431 642 q 255 566 302 642 q 191 379 208 490 l 187 353 q 192 162 170 234 q 294 90 215 90 m 594 881 l 592 866 l 481 866 l 410 968 l 311 866 l 201 866 l 203 882 l 380 1039 l 463 1039 l 594 881 z "},"Ċ":{"ha":768,"x_min":41,"x_max":789,"o":"m 702 297 l 703 293 q 588 63 683 141 q 345 -14 494 -14 q 120 84 198 -14 q 68 356 41 182 l 109 630 q 238 907 136 812 q 492 1002 340 1002 q 714 922 638 1002 q 764 694 789 843 l 763 690 l 630 690 q 608 848 646 801 q 476 896 570 896 q 327 827 389 896 q 247 632 265 758 l 205 356 q 225 156 185 222 q 360 90 266 90 q 500 140 446 90 q 570 297 553 190 l 702 297 m 589 1110 l 434 1110 l 454 1246 l 610 1246 l 589 1110 z "},"ċ":{"ha":629,"x_min":26,"x_max":618,"o":"m 294 90 q 384 130 342 90 q 435 236 425 170 l 558 236 l 560 232 q 464 55 547 124 q 278 -14 382 -14 q 87 91 148 -14 q 50 353 26 195 l 54 379 q 166 646 78 545 q 392 747 255 747 q 558 672 498 747 q 600 477 618 597 l 471 477 q 456 597 482 553 q 376 642 431 642 q 255 566 302 642 q 191 379 208 490 l 187 353 q 192 162 170 234 q 294 90 215 90 m 474 878 l 319 878 l 339 1013 l 494 1013 l 474 878 z "},"Č":{"ha":768,"x_min":41,"x_max":789,"o":"m 702 297 l 703 293 q 588 63 683 141 q 345 -14 494 -14 q 120 84 198 -14 q 68 356 41 182 l 109 630 q 238 907 136 812 q 492 1002 340 1002 q 714 922 638 1002 q 764 694 789 843 l 763 690 l 630 690 q 608 848 646 801 q 476 896 570 896 q 327 827 389 896 q 247 632 265 758 l 205 356 q 225 156 185 222 q 360 90 266 90 q 500 140 446 90 q 570 297 553 190 l 702 297 m 522 1173 l 614 1275 l 738 1275 l 736 1263 l 557 1101 l 465 1101 l 335 1263 l 336 1275 l 458 1275 l 522 1173 z "},"č":{"ha":629,"x_min":26,"x_max":623,"o":"m 294 90 q 384 130 342 90 q 435 236 425 170 l 558 236 l 560 232 q 464 55 547 124 q 278 -14 382 -14 q 87 91 148 -14 q 50 353 26 195 l 54 379 q 166 646 78 545 q 392 747 255 747 q 558 672 498 747 q 600 477 618 597 l 471 477 q 456 597 482 553 q 376 642 431 642 q 255 566 302 642 q 191 379 208 490 l 187 353 q 192 162 170 234 q 294 90 215 90 m 406 941 l 499 1042 l 623 1042 l 621 1031 l 441 868 l 350 868 l 220 1030 l 221 1042 l 343 1042 l 406 941 z "},"Ď":{"ha":808,"x_min":40,"x_max":795,"o":"m 40 0 l 188 987 l 468 987 q 708 867 622 987 q 768 564 795 747 l 747 423 q 600 115 717 229 q 320 0 482 0 l 40 0 m 309 882 l 193 104 l 336 104 q 510 195 433 104 q 608 423 587 285 l 629 565 q 603 795 650 709 q 452 882 555 882 l 309 882 m 475 1159 l 568 1261 l 691 1261 l 690 1249 l 510 1086 l 418 1086 l 288 1249 l 290 1261 l 412 1261 l 475 1159 z "},"ď":{"ha":684,"x_min":26,"x_max":886,"o":"m 53 358 q 159 644 80 541 q 357 747 239 747 q 446 722 408 747 q 507 651 484 697 l 568 1058 l 706 1058 l 547 0 l 433 0 l 433 88 q 347 12 395 38 q 241 -14 299 -14 q 78 85 130 -14 q 51 344 26 184 l 53 358 m 188 344 q 194 158 170 224 q 292 92 218 92 q 374 118 337 92 q 438 189 410 143 l 491 541 q 449 613 477 587 q 376 640 421 640 q 257 561 306 640 q 190 358 208 481 l 188 344 m 871 963 l 778 811 l 716 811 l 774 968 l 788 1057 l 886 1057 l 871 963 z "},"Đ":{"ha":808,"x_min":20,"x_max":795,"o":"m 40 0 l 108 454 l 20 454 l 34 550 l 122 550 l 188 987 l 468 987 q 708 867 622 987 q 768 564 795 747 l 747 423 q 600 115 717 229 q 320 0 482 0 l 40 0 m 401 454 l 245 454 l 193 104 l 336 104 q 510 195 433 104 q 608 423 587 285 l 629 565 q 603 795 650 709 q 452 882 555 882 l 309 882 l 260 550 l 416 550 l 401 454 z "},"đ":{"ha":684,"x_min":26,"x_max":785,"o":"m 771 840 l 673 840 l 547 0 l 433 0 l 433 88 q 347 12 395 38 q 241 -14 299 -14 q 78 85 130 -14 q 51 344 26 184 l 53 358 q 159 644 80 541 q 357 747 239 747 q 446 722 408 747 q 507 651 484 697 l 536 840 l 389 840 l 404 935 l 550 935 l 568 1058 l 706 1058 l 687 935 l 785 935 l 771 840 m 188 344 q 194 158 170 224 q 292 92 218 92 q 374 118 337 92 q 438 189 410 143 l 491 541 q 449 613 477 587 q 376 640 421 640 q 257 561 306 640 q 190 358 208 481 l 188 344 z "},"Ē":{"ha":671,"x_min":40,"x_max":717,"o":"m 581 458 l 246 458 l 193 104 l 588 104 l 572 0 l 40 0 l 188 987 l 717 987 l 701 882 l 309 882 l 262 564 l 597 564 l 581 458 m 688 1120 l 251 1120 l 264 1210 l 701 1210 l 688 1120 z "},"ē":{"ha":633,"x_min":26,"x_max":627,"o":"m 288 -14 q 92 87 157 -14 q 50 347 26 189 l 55 379 q 172 647 80 547 q 389 747 263 747 q 564 657 510 747 q 597 420 618 568 l 585 342 l 187 342 q 200 158 170 226 q 313 90 229 90 q 416 109 369 90 q 503 161 463 127 l 535 75 q 429 12 492 37 q 288 -14 365 -14 m 374 642 q 272 586 316 642 q 208 444 228 530 l 210 440 l 464 440 l 467 456 q 458 591 479 541 q 374 642 436 642 m 614 903 l 178 903 l 191 992 l 627 992 l 614 903 z "},"Ĕ":{"ha":671,"x_min":40,"x_max":717,"o":"m 581 458 l 246 458 l 193 104 l 588 104 l 572 0 l 40 0 l 188 987 l 717 987 l 701 882 l 309 882 l 262 564 l 597 564 l 581 458 m 680 1270 l 682 1265 q 614 1134 673 1182 q 465 1085 555 1085 q 331 1136 378 1085 q 298 1266 283 1187 l 299 1270 l 403 1270 q 413 1195 396 1223 q 476 1168 430 1168 q 544 1197 518 1168 q 576 1270 570 1225 l 680 1270 z "},"ĕ":{"ha":633,"x_min":26,"x_max":618,"o":"m 288 -14 q 92 87 157 -14 q 50 347 26 189 l 55 379 q 172 647 80 547 q 389 747 263 747 q 564 657 510 747 q 597 420 618 568 l 585 342 l 187 342 q 200 158 170 226 q 313 90 229 90 q 416 109 369 90 q 503 161 463 127 l 535 75 q 429 12 492 37 q 288 -14 365 -14 m 374 642 q 272 586 316 642 q 208 444 228 530 l 210 440 l 464 440 l 467 456 q 458 591 479 541 q 374 642 436 642 m 607 1052 l 608 1048 q 541 916 600 964 q 391 867 481 867 q 257 918 304 867 q 224 1048 210 969 l 226 1052 l 330 1052 q 340 978 323 1005 q 403 950 357 950 q 471 979 445 950 q 503 1052 497 1008 l 607 1052 z "},"Ė":{"ha":671,"x_min":40,"x_max":717,"o":"m 581 458 l 246 458 l 193 104 l 588 104 l 572 0 l 40 0 l 188 987 l 717 987 l 701 882 l 309 882 l 262 564 l 597 564 l 581 458 m 548 1096 l 393 1096 l 413 1232 l 568 1232 l 548 1096 z "},"ė":{"ha":633,"x_min":26,"x_max":618,"o":"m 288 -14 q 92 87 157 -14 q 50 347 26 189 l 55 379 q 172 647 80 547 q 389 747 263 747 q 564 657 510 747 q 597 420 618 568 l 585 342 l 187 342 q 200 158 170 226 q 313 90 229 90 q 416 109 369 90 q 503 161 463 127 l 535 75 q 429 12 492 37 q 288 -14 365 -14 m 374 642 q 272 586 316 642 q 208 444 228 530 l 210 440 l 464 440 l 467 456 q 458 591 479 541 q 374 642 436 642 m 474 878 l 319 878 l 339 1014 l 494 1014 l 474 878 z "},"Ę":{"ha":671,"x_min":40,"x_max":717,"o":"m 581 458 l 246 458 l 193 104 l 588 104 l 572 0 l 40 0 l 188 987 l 717 987 l 701 882 l 309 882 l 262 564 l 597 564 l 581 458 m 345 0 q 279 -68 302 -38 q 251 -134 256 -98 q 256 -173 248 -157 q 296 -189 265 -189 q 327 -183 312 -189 q 355 -171 342 -178 l 363 -250 q 314 -271 340 -262 q 252 -280 287 -280 q 164 -245 197 -280 q 140 -148 131 -210 q 185 -48 148 -94 q 290 33 222 -3 l 345 0 z "},"ę":{"ha":633,"x_min":26,"x_max":618,"o":"m 288 -14 q 92 87 157 -14 q 50 347 26 189 l 55 379 q 172 647 80 547 q 389 747 263 747 q 564 657 510 747 q 597 420 618 568 l 585 342 l 187 342 q 200 158 170 226 q 313 90 229 90 q 416 109 369 90 q 503 161 463 127 l 535 75 q 429 12 492 37 q 288 -14 365 -14 m 374 642 q 272 586 316 642 q 208 444 228 530 l 210 440 l 464 440 l 467 456 q 458 591 479 541 q 374 642 436 642 m 466 37 q 401 -31 424 -1 q 372 -97 378 -61 q 378 -137 369 -121 q 417 -153 387 -153 q 449 -147 433 -153 q 476 -134 464 -141 l 484 -214 q 435 -235 462 -226 q 374 -243 408 -243 q 285 -208 318 -243 q 261 -111 252 -173 q 306 -12 269 -58 q 412 70 343 34 l 466 37 z "},"Ě":{"ha":671,"x_min":40,"x_max":717,"o":"m 581 458 l 246 458 l 193 104 l 588 104 l 572 0 l 40 0 l 188 987 l 717 987 l 701 882 l 309 882 l 262 564 l 597 564 l 581 458 m 480 1159 l 573 1261 l 696 1261 l 695 1249 l 515 1086 l 424 1086 l 294 1249 l 295 1261 l 417 1261 l 480 1159 z "},"ě":{"ha":633,"x_min":26,"x_max":623,"o":"m 288 -14 q 92 87 157 -14 q 50 347 26 189 l 55 379 q 172 647 80 547 q 389 747 263 747 q 564 657 510 747 q 597 420 618 568 l 585 342 l 187 342 q 200 158 170 226 q 313 90 229 90 q 416 109 369 90 q 503 161 463 127 l 535 75 q 429 12 492 37 q 288 -14 365 -14 m 374 642 q 272 586 316 642 q 208 444 228 530 l 210 440 l 464 440 l 467 456 q 458 591 479 541 q 374 642 436 642 m 406 941 l 499 1043 l 623 1043 l 621 1031 l 441 869 l 350 869 l 220 1031 l 221 1043 l 343 1043 l 406 941 z "},"Ĝ":{"ha":812,"x_min":41,"x_max":790,"o":"m 690 129 q 562 29 646 73 q 357 -14 479 -14 q 125 81 208 -14 q 68 349 41 176 l 112 642 q 243 911 138 820 q 501 1002 347 1002 q 718 924 646 1002 q 768 712 790 846 l 766 709 l 636 709 q 612 848 650 801 q 488 896 574 896 q 333 830 398 896 q 250 643 269 765 l 206 349 q 232 154 186 217 q 373 90 277 90 q 487 112 440 90 q 556 165 534 134 l 591 395 l 409 395 l 425 495 l 745 495 l 690 129 m 705 1114 l 703 1099 l 592 1099 l 522 1201 l 422 1099 l 313 1099 l 315 1114 l 491 1272 l 574 1272 l 705 1114 z "},"ĝ":{"ha":684,"x_min":29,"x_max":661,"o":"m 56 358 q 162 644 83 541 q 360 747 241 747 q 455 719 416 747 q 517 638 494 690 l 545 734 l 661 734 l 551 -1 q 443 -222 528 -148 q 218 -296 357 -296 q 121 -282 174 -296 q 31 -243 69 -267 l 68 -140 q 145 -174 103 -162 q 234 -185 186 -185 q 353 -139 308 -185 q 412 -1 398 -92 l 423 72 q 343 7 387 29 q 245 -14 298 -14 q 81 85 134 -14 q 54 344 29 184 l 56 358 m 192 344 q 197 158 174 224 q 296 92 221 92 q 377 117 340 92 q 440 186 413 142 l 494 545 q 453 614 481 589 q 379 640 425 640 q 261 561 309 640 q 194 358 212 481 l 192 344 m 606 881 l 604 866 l 493 866 l 422 968 l 323 866 l 214 866 l 216 882 l 392 1039 l 475 1039 l 606 881 z "},"Ğ":{"ha":812,"x_min":41,"x_max":790,"o":"m 690 129 q 562 29 646 73 q 357 -14 479 -14 q 125 81 208 -14 q 68 349 41 176 l 112 642 q 243 911 138 820 q 501 1002 347 1002 q 718 924 646 1002 q 768 712 790 846 l 766 709 l 636 709 q 612 848 650 801 q 488 896 574 896 q 333 830 398 896 q 250 643 269 765 l 206 349 q 232 154 186 217 q 373 90 277 90 q 487 112 440 90 q 556 165 534 134 l 591 395 l 409 395 l 425 495 l 745 495 l 690 129 m 719 1284 l 720 1280 q 652 1148 711 1196 q 503 1099 593 1099 q 369 1150 416 1099 q 336 1280 322 1201 l 338 1284 l 441 1284 q 452 1210 435 1237 q 515 1182 469 1182 q 583 1211 557 1182 q 615 1284 609 1240 l 719 1284 z "},"ğ":{"ha":684,"x_min":29,"x_max":661,"o":"m 56 358 q 162 644 83 541 q 360 747 241 747 q 455 719 416 747 q 517 638 494 690 l 545 734 l 661 734 l 551 -1 q 443 -222 528 -148 q 218 -296 357 -296 q 121 -282 174 -296 q 31 -243 69 -267 l 68 -140 q 145 -174 103 -162 q 234 -185 186 -185 q 353 -139 308 -185 q 412 -1 398 -92 l 423 72 q 343 7 387 29 q 245 -14 298 -14 q 81 85 134 -14 q 54 344 29 184 l 56 358 m 192 344 q 197 158 174 224 q 296 92 221 92 q 377 117 340 92 q 440 186 413 142 l 494 545 q 453 614 481 589 q 379 640 425 640 q 261 561 309 640 q 194 358 212 481 l 192 344 m 619 1051 l 621 1047 q 553 915 612 964 q 404 867 494 867 q 270 918 317 867 q 237 1048 222 968 l 238 1051 l 342 1051 q 352 977 335 1004 q 415 949 369 949 q 483 978 457 949 q 515 1051 509 1007 l 619 1051 z "},"Ġ":{"ha":812,"x_min":41,"x_max":790,"o":"m 690 129 q 562 29 646 73 q 357 -14 479 -14 q 125 81 208 -14 q 68 349 41 176 l 112 642 q 243 911 138 820 q 501 1002 347 1002 q 718 924 646 1002 q 768 712 790 846 l 766 709 l 636 709 q 612 848 650 801 q 488 896 574 896 q 333 830 398 896 q 250 643 269 765 l 206 349 q 232 154 186 217 q 373 90 277 90 q 487 112 440 90 q 556 165 534 134 l 591 395 l 409 395 l 425 495 l 745 495 l 690 129 m 586 1110 l 431 1110 l 451 1246 l 606 1246 l 586 1110 z "},"ġ":{"ha":684,"x_min":29,"x_max":661,"o":"m 56 358 q 162 644 83 541 q 360 747 241 747 q 455 719 416 747 q 517 638 494 690 l 545 734 l 661 734 l 551 -1 q 443 -222 528 -148 q 218 -296 357 -296 q 121 -282 174 -296 q 31 -243 69 -267 l 68 -140 q 145 -174 103 -162 q 234 -185 186 -185 q 353 -139 308 -185 q 412 -1 398 -92 l 423 72 q 343 7 387 29 q 245 -14 298 -14 q 81 85 134 -14 q 54 344 29 184 l 56 358 m 192 344 q 197 158 174 224 q 296 92 221 92 q 377 117 340 92 q 440 186 413 142 l 494 545 q 453 614 481 589 q 379 640 425 640 q 261 561 309 640 q 194 358 212 481 l 192 344 m 486 878 l 331 878 l 351 1013 l 507 1013 l 486 878 z "},"Ģ":{"ha":812,"x_min":41,"x_max":790,"o":"m 690 129 q 562 29 646 73 q 357 -14 479 -14 q 125 81 208 -14 q 68 349 41 176 l 112 642 q 243 911 138 820 q 501 1002 347 1002 q 718 924 646 1002 q 768 712 790 846 l 766 709 l 636 709 q 612 848 650 801 q 488 896 574 896 q 333 830 398 896 q 250 643 269 765 l 206 349 q 232 154 186 217 q 373 90 277 90 q 487 112 440 90 q 556 165 534 134 l 591 395 l 409 395 l 425 495 l 745 495 l 690 129 m 367 -177 l 273 -329 l 212 -329 l 270 -172 l 283 -83 l 381 -83 l 367 -177 z "},"ģ":{"ha":684,"x_min":29,"x_max":661,"o":"m 56 358 q 162 644 83 541 q 360 747 241 747 q 455 719 416 747 q 517 638 494 690 l 545 734 l 661 734 l 551 -1 q 443 -222 528 -148 q 218 -296 357 -296 q 121 -282 174 -296 q 31 -243 69 -267 l 68 -140 q 145 -174 103 -162 q 234 -185 186 -185 q 353 -139 308 -185 q 412 -1 398 -92 l 423 72 q 343 7 387 29 q 245 -14 298 -14 q 81 85 134 -14 q 54 344 29 184 l 56 358 m 192 344 q 197 158 174 224 q 296 92 221 92 q 377 117 340 92 q 440 186 413 142 l 494 545 q 453 614 481 589 q 379 640 425 640 q 261 561 309 640 q 194 358 212 481 l 192 344 m 357 957 l 448 1118 l 522 1118 l 479 953 l 464 854 l 342 854 l 357 957 z "},"Ĥ":{"ha":850,"x_min":40,"x_max":850,"o":"m 702 0 l 564 0 l 629 435 l 243 435 l 178 0 l 40 0 l 188 987 l 326 987 l 258 541 l 645 541 l 712 987 l 850 987 l 702 0 m 729 1099 l 727 1084 l 616 1084 l 545 1187 l 446 1084 l 336 1084 l 338 1100 l 515 1257 l 598 1257 l 729 1099 z "},"ĥ":{"ha":684,"x_min":23,"x_max":642,"o":"m 257 640 q 346 719 296 691 q 452 747 395 747 q 595 673 548 747 q 619 449 642 600 l 552 0 l 414 0 l 481 450 q 474 598 496 555 q 395 640 452 640 q 310 616 349 640 q 243 549 272 591 l 161 0 l 23 0 l 182 1058 l 320 1058 l 257 640 m 610 1099 l 608 1084 l 496 1084 l 426 1186 l 327 1084 l 217 1084 l 219 1099 l 395 1257 l 479 1257 l 610 1099 z "},"Ħ":{"ha":848,"x_min":45,"x_max":900,"o":"m 825 786 l 900 786 l 886 696 l 811 696 l 707 0 l 570 0 l 635 435 l 248 435 l 183 0 l 45 0 l 149 696 l 68 696 l 81 786 l 163 786 l 193 987 l 331 987 l 300 786 l 687 786 l 718 987 l 855 987 l 825 786 m 264 541 l 650 541 l 673 696 l 287 696 l 264 541 z "},"ħ":{"ha":684,"x_min":23,"x_max":642,"o":"m 448 839 l 287 839 l 257 640 q 346 719 296 691 q 452 747 395 747 q 595 673 548 747 q 619 449 642 600 l 552 0 l 414 0 l 481 450 q 474 598 496 555 q 395 640 452 640 q 310 616 349 640 q 243 549 272 591 l 161 0 l 23 0 l 149 839 l 66 839 l 81 935 l 163 935 l 182 1058 l 320 1058 l 301 935 l 463 935 l 448 839 z "},"Ĩ":{"ha":351,"x_min":52,"x_max":510,"o":"m 190 0 l 52 0 l 200 987 l 338 987 l 190 0 m 510 1246 q 461 1140 500 1182 q 368 1099 421 1099 q 284 1132 329 1099 q 210 1165 240 1165 q 168 1142 187 1165 q 144 1086 148 1120 l 71 1105 q 119 1212 79 1169 q 212 1255 159 1255 q 292 1221 243 1255 q 372 1187 341 1187 q 413 1211 393 1187 q 438 1267 433 1234 l 510 1246 z "},"ĩ":{"ha":319,"x_min":20,"x_max":458,"o":"m 172 0 l 35 0 l 144 734 l 282 734 l 172 0 m 458 1014 q 409 908 449 949 q 317 866 370 866 q 233 899 277 866 q 158 932 189 932 q 116 910 136 932 q 92 854 96 887 l 20 873 q 68 979 28 937 q 161 1022 108 1022 q 241 988 192 1022 q 320 955 290 955 q 362 978 342 955 q 387 1035 382 1002 l 458 1014 z "},"Ī":{"ha":351,"x_min":52,"x_max":516,"o":"m 190 0 l 52 0 l 200 987 l 338 987 l 190 0 m 503 1120 l 66 1120 l 79 1210 l 516 1210 l 503 1120 z "},"ī":{"ha":319,"x_min":15,"x_max":465,"o":"m 172 0 l 35 0 l 144 734 l 282 734 l 172 0 m 452 888 l 15 888 l 28 978 l 465 978 l 452 888 z "},"Ĭ":{"ha":351,"x_min":52,"x_max":497,"o":"m 190 0 l 52 0 l 200 987 l 338 987 l 190 0 m 496 1270 l 497 1265 q 429 1134 488 1182 q 280 1085 370 1085 q 146 1136 193 1085 q 113 1266 99 1187 l 115 1270 l 218 1270 q 229 1195 212 1223 q 292 1168 245 1168 q 360 1197 334 1168 q 392 1270 386 1225 l 496 1270 z "},"ĭ":{"ha":319,"x_min":35,"x_max":446,"o":"m 172 0 l 35 0 l 144 734 l 282 734 l 172 0 m 444 1037 l 446 1033 q 378 901 437 949 q 229 852 319 852 q 95 903 142 852 q 62 1034 47 954 l 63 1037 l 167 1037 q 177 963 160 990 q 240 935 194 935 q 308 964 282 935 q 340 1037 334 993 l 444 1037 z "},"Į":{"ha":351,"x_min":-55,"x_max":338,"o":"m 190 0 l 52 0 l 200 987 l 338 987 l 190 0 m 159 0 q 94 -68 117 -38 q 65 -134 71 -98 q 71 -173 62 -157 q 110 -189 79 -189 q 141 -183 126 -189 q 169 -171 157 -178 l 177 -250 q 128 -271 155 -262 q 66 -280 101 -280 q -22 -245 11 -280 q -46 -148 -55 -210 q -1 -48 -38 -94 q 104 33 36 -3 l 159 0 z "},"į":{"ha":315,"x_min":-73,"x_max":331,"o":"m 172 0 l 34 0 l 144 734 l 282 734 l 172 0 m 311 926 l 173 926 l 193 1058 l 331 1058 l 311 926 m 141 0 q 76 -68 99 -38 q 47 -134 53 -98 q 53 -173 44 -157 q 92 -189 62 -189 q 124 -183 109 -189 q 151 -171 139 -178 l 159 -250 q 110 -271 137 -262 q 49 -280 83 -280 q -40 -245 -7 -280 q -64 -148 -73 -210 q -19 -48 -56 -94 q 87 33 18 -3 l 141 0 z "},"İ":{"ha":351,"x_min":52,"x_max":383,"o":"m 190 0 l 52 0 l 200 987 l 338 987 l 190 0 m 363 1096 l 208 1096 l 228 1232 l 383 1232 l 363 1096 z "},"ı":{"ha":319,"x_min":35,"x_max":282,"o":"m 172 0 l 35 0 l 144 734 l 282 734 l 172 0 z "},"Ĳ":{"ha":1019,"x_min":52,"x_max":1021,"o":"m 190 0 l 52 0 l 200 987 l 338 987 l 190 0 m 882 987 l 1021 987 l 917 292 q 809 66 895 146 q 604 -14 724 -14 q 417 61 482 -14 q 374 278 352 136 l 511 278 q 525 135 496 179 q 620 90 555 90 q 719 145 674 90 q 779 292 764 200 l 882 987 z "},"ĳ":{"ha":634,"x_min":34,"x_max":648,"o":"m 172 0 l 34 0 l 144 734 l 282 734 l 172 0 m 311 926 l 173 926 l 193 1058 l 331 1058 l 311 926 m 603 734 l 486 -50 q 404 -235 467 -173 q 243 -296 341 -296 q 208 -293 224 -296 q 172 -284 191 -290 l 196 -179 q 221 -186 207 -183 q 246 -189 235 -189 q 310 -154 283 -189 q 348 -50 337 -119 l 465 734 l 603 734 m 629 928 l 490 928 l 510 1058 l 648 1058 l 629 928 z "},"Ĵ":{"ha":668,"x_min":1,"x_max":806,"o":"m 531 987 l 669 987 l 566 292 q 458 66 543 146 q 253 -14 372 -14 q 66 61 131 -14 q 22 278 1 136 l 160 278 q 174 135 144 179 q 269 90 203 90 q 368 145 323 90 q 427 292 413 200 l 531 987 m 806 1090 l 804 1075 l 692 1075 l 622 1177 l 523 1075 l 413 1075 l 415 1090 l 591 1248 l 675 1248 l 806 1090 z "},"ĵ":{"ha":327,"x_min":-140,"x_max":432,"o":"m 292 734 l 174 -50 q 93 -235 155 -173 q -68 -296 30 -296 q -104 -293 -87 -296 q -140 -284 -121 -290 l -116 -182 q -89 -188 -105 -185 q -61 -191 -73 -191 q 0 -153 -26 -191 q 37 -50 26 -115 l 154 734 l 292 734 m 432 857 l 430 842 l 319 842 l 248 944 l 149 842 l 39 842 l 41 857 l 218 1015 l 301 1015 l 432 857 z "},"Ķ":{"ha":766,"x_min":33,"x_max":797,"o":"m 303 444 l 238 444 l 172 0 l 33 0 l 181 987 l 319 987 l 255 559 l 326 559 l 618 987 l 797 987 l 422 497 l 661 0 l 503 0 l 303 444 m 340 -169 l 246 -321 l 184 -321 l 243 -164 l 256 -75 l 354 -75 l 340 -169 z "},"ķ":{"ha":633,"x_min":26,"x_max":657,"o":"m 265 336 l 214 336 l 163 0 l 26 0 l 184 1058 l 322 1058 l 229 441 l 278 441 l 498 734 l 655 734 l 657 730 l 386 401 l 574 0 l 414 0 l 265 336 m 291 -168 l 197 -319 l 136 -319 l 194 -163 l 208 -73 l 305 -73 l 291 -168 z "},"ĸ":{"ha":694,"x_min":33,"x_max":700,"o":"m 280 310 l 217 310 l 171 0 l 33 0 l 143 734 l 281 734 l 235 427 l 288 427 l 531 734 l 699 734 l 700 730 l 401 389 l 608 0 l 433 0 l 280 310 z "},"Ĺ":{"ha":669,"x_min":40,"x_max":593,"o":"m 193 104 l 593 104 l 577 0 l 40 0 l 188 987 l 326 987 l 193 104 m 338 1230 l 496 1230 l 497 1225 l 308 1049 l 197 1049 l 195 1053 l 338 1230 z "},"ĺ":{"ha":315,"x_min":34,"x_max":498,"o":"m 172 0 l 34 0 l 193 1058 l 331 1058 l 172 0 m 339 1276 l 497 1276 l 498 1272 l 309 1095 l 199 1095 l 197 1099 l 339 1276 z "},"Ļ":{"ha":669,"x_min":40,"x_max":593,"o":"m 193 104 l 593 104 l 577 0 l 40 0 l 188 987 l 326 987 l 193 104 m 327 -168 l 233 -319 l 172 -319 l 230 -163 l 243 -73 l 341 -73 l 327 -168 z "},"ļ":{"ha":315,"x_min":-32,"x_max":331,"o":"m 172 0 l 34 0 l 193 1058 l 331 1058 l 172 0 m 123 -168 l 30 -319 l -32 -319 l 26 -163 l 40 -73 l 138 -73 l 123 -168 z "},"Ľ":{"ha":669,"x_min":40,"x_max":593,"o":"m 193 104 l 593 104 l 577 0 l 40 0 l 188 987 l 326 987 l 193 104 m 562 893 l 469 741 l 407 741 l 465 898 l 479 987 l 576 987 l 562 893 z "},"ľ":{"ha":315,"x_min":34,"x_max":524,"o":"m 172 0 l 34 0 l 193 1058 l 331 1058 l 172 0 m 509 963 l 416 811 l 354 811 l 412 968 l 426 1057 l 524 1057 l 509 963 z "},"Ŀ":{"ha":669,"x_min":40,"x_max":593,"o":"m 193 104 l 593 104 l 577 0 l 40 0 l 188 987 l 326 987 l 193 104 m 525 464 l 370 464 l 390 600 l 545 600 l 525 464 z "},"ŀ":{"ha":315,"x_min":34,"x_max":422,"o":"m 172 0 l 34 0 l 193 1058 l 331 1058 l 172 0 m 402 453 l 247 453 l 267 589 l 422 589 l 402 453 z "},"Ł":{"ha":626,"x_min":24,"x_max":588,"o":"m 259 577 l 421 631 l 406 529 l 244 475 l 189 104 l 588 104 l 572 0 l 35 0 l 99 427 l 24 402 l 40 505 l 115 529 l 183 987 l 321 987 l 259 577 z "},"ł":{"ha":344,"x_min":26,"x_max":368,"o":"m 275 600 l 368 635 l 352 533 l 260 497 l 186 0 l 47 0 l 113 440 l 26 406 l 41 509 l 129 543 l 206 1058 l 345 1058 l 275 600 z "},"Ń":{"ha":851,"x_min":40,"x_max":850,"o":"m 703 0 l 564 0 l 290 728 l 286 728 l 178 0 l 40 0 l 188 987 l 326 987 l 600 261 l 604 262 l 712 987 l 850 987 l 703 0 m 604 1264 l 762 1264 l 764 1260 l 574 1084 l 464 1084 l 462 1087 l 604 1264 z "},"ń":{"ha":684,"x_min":24,"x_max":648,"o":"m 252 629 q 344 716 292 686 q 456 747 396 747 q 596 675 551 747 q 619 452 641 602 l 551 0 l 414 0 l 481 451 q 475 600 497 559 q 394 640 453 640 q 310 614 349 640 q 243 544 272 589 l 162 0 l 24 0 l 134 734 l 260 734 l 252 629 m 488 1046 l 646 1046 l 648 1042 l 458 865 l 348 865 l 346 869 l 488 1046 z "},"Ņ":{"ha":851,"x_min":40,"x_max":850,"o":"m 703 0 l 564 0 l 290 728 l 286 728 l 178 0 l 40 0 l 188 987 l 326 987 l 600 261 l 604 262 l 712 987 l 850 987 l 703 0 m 389 -168 l 296 -319 l 234 -319 l 292 -163 l 306 -73 l 404 -73 l 389 -168 z "},"ņ":{"ha":684,"x_min":24,"x_max":641,"o":"m 252 629 q 344 716 292 686 q 456 747 396 747 q 596 675 551 747 q 619 452 641 602 l 551 0 l 414 0 l 481 451 q 475 600 497 559 q 394 640 453 640 q 310 614 349 640 q 243 544 272 589 l 162 0 l 24 0 l 134 734 l 260 734 l 252 629 m 306 -168 l 212 -319 l 151 -319 l 209 -163 l 222 -73 l 320 -73 l 306 -168 z "},"Ň":{"ha":851,"x_min":40,"x_max":850,"o":"m 703 0 l 564 0 l 290 728 l 286 728 l 178 0 l 40 0 l 188 987 l 326 987 l 600 261 l 604 262 l 712 987 l 850 987 l 703 0 m 544 1159 l 637 1261 l 760 1261 l 759 1249 l 579 1086 l 488 1086 l 357 1249 l 359 1261 l 481 1261 l 544 1159 z "},"ň":{"ha":684,"x_min":24,"x_max":644,"o":"m 252 629 q 344 716 292 686 q 456 747 396 747 q 596 675 551 747 q 619 452 641 602 l 551 0 l 414 0 l 481 451 q 475 600 497 559 q 394 640 453 640 q 310 614 349 640 q 243 544 272 589 l 162 0 l 24 0 l 134 734 l 260 734 l 252 629 m 427 941 l 520 1042 l 644 1042 l 642 1031 l 463 868 l 371 868 l 241 1030 l 242 1042 l 364 1042 l 427 941 z "},"ŉ":{"ha":684,"x_min":24,"x_max":641,"o":"m 252 629 q 344 716 292 686 q 456 747 396 747 q 596 675 551 747 q 619 452 641 602 l 551 0 l 414 0 l 481 451 q 475 600 497 559 q 394 640 453 640 q 310 614 349 640 q 243 544 272 589 l 162 0 l 24 0 l 134 734 l 260 734 l 252 629 m 210 962 l 116 810 l 54 810 l 113 967 l 126 1057 l 224 1057 l 210 962 z "},"Ŋ":{"ha":843,"x_min":37,"x_max":848,"o":"m 848 987 l 692 -50 q 610 -234 673 -172 q 450 -296 547 -296 q 413 -293 430 -296 q 376 -284 395 -290 l 400 -182 q 427 -188 410 -185 q 456 -191 444 -191 q 517 -153 491 -191 q 554 -50 544 -116 l 562 0 l 288 727 l 283 726 l 175 0 l 37 0 l 184 987 l 323 987 l 597 260 l 601 261 l 709 987 l 848 987 z "},"ŋ":{"ha":684,"x_min":24,"x_max":639,"o":"m 252 632 q 343 718 292 688 q 454 747 394 747 q 594 675 549 747 q 617 452 639 602 l 542 -50 q 460 -234 523 -172 q 299 -296 397 -296 q 261 -293 279 -296 q 226 -284 243 -290 l 250 -178 q 277 -184 260 -181 q 307 -187 294 -187 q 367 -151 341 -187 q 404 -50 393 -115 l 479 451 q 472 600 494 559 q 391 640 450 640 q 310 616 347 640 q 245 549 273 592 l 162 0 l 24 0 l 134 734 l 260 734 l 252 632 z "},"Ō":{"ha":826,"x_min":39,"x_max":825,"o":"m 758 357 q 623 80 730 175 q 353 -14 515 -14 q 121 84 202 -14 q 66 357 39 183 l 106 629 q 240 906 134 811 q 505 1002 347 1002 q 742 902 659 1002 q 799 629 825 802 l 758 357 m 663 631 q 637 829 682 765 q 489 893 593 893 q 328 826 393 893 q 244 631 262 758 l 203 357 q 225 157 182 222 q 370 93 269 93 q 535 160 468 93 q 621 357 602 228 l 663 631 m 741 1135 l 304 1135 l 317 1224 l 754 1224 l 741 1135 z "},"ō":{"ha":684,"x_min":26,"x_max":657,"o":"m 54 375 q 171 646 79 545 q 399 747 262 747 q 593 642 528 747 q 633 375 657 536 l 631 357 q 513 86 605 186 q 286 -14 422 -14 q 91 90 155 -14 q 51 357 26 195 l 54 375 m 189 357 q 197 163 170 236 q 302 90 224 90 q 424 166 374 90 q 492 357 475 242 l 495 375 q 486 568 513 494 q 383 642 460 642 q 259 565 310 642 q 192 375 208 488 l 189 357 m 637 902 l 201 902 l 214 991 l 650 991 l 637 902 z "},"Ŏ":{"ha":826,"x_min":39,"x_max":825,"o":"m 758 357 q 623 80 730 175 q 353 -14 515 -14 q 121 84 202 -14 q 66 357 39 183 l 106 629 q 240 906 134 811 q 505 1002 347 1002 q 742 902 659 1002 q 799 629 825 802 l 758 357 m 663 631 q 637 829 682 765 q 489 893 593 893 q 328 826 393 893 q 244 631 262 758 l 203 357 q 225 157 182 222 q 370 93 269 93 q 535 160 468 93 q 621 357 602 228 l 663 631 m 734 1284 l 736 1280 q 668 1148 727 1196 q 519 1099 609 1099 q 385 1150 432 1099 q 352 1280 338 1201 l 353 1284 l 457 1284 q 467 1210 450 1237 q 530 1182 484 1182 q 598 1211 572 1182 q 631 1284 625 1240 l 734 1284 z "},"ŏ":{"ha":684,"x_min":26,"x_max":657,"o":"m 54 375 q 171 646 79 545 q 399 747 262 747 q 593 642 528 747 q 633 375 657 536 l 631 357 q 513 86 605 186 q 286 -14 422 -14 q 91 90 155 -14 q 51 357 26 195 l 54 375 m 189 357 q 197 163 170 236 q 302 90 224 90 q 424 166 374 90 q 492 357 475 242 l 495 375 q 486 568 513 494 q 383 642 460 642 q 259 565 310 642 q 192 375 208 488 l 189 357 m 630 1051 l 631 1047 q 564 915 623 964 q 414 867 505 867 q 280 918 328 867 q 248 1048 233 968 l 249 1051 l 353 1051 q 363 977 346 1004 q 426 949 380 949 q 494 978 468 949 q 526 1051 520 1007 l 630 1051 z "},"Ő":{"ha":826,"x_min":39,"x_max":857,"o":"m 758 357 q 623 80 730 175 q 353 -14 515 -14 q 121 84 202 -14 q 66 357 39 183 l 106 629 q 240 906 134 811 q 505 1002 347 1002 q 742 902 659 1002 q 799 629 825 802 l 758 357 m 663 631 q 637 829 682 765 q 489 893 593 893 q 328 826 393 893 q 244 631 262 758 l 203 357 q 225 157 182 222 q 370 93 269 93 q 535 160 468 93 q 621 357 602 228 l 663 631 m 713 1280 l 856 1280 l 857 1276 l 660 1100 l 547 1100 l 545 1104 l 713 1280 m 507 1280 l 642 1280 l 644 1276 l 477 1100 l 366 1100 l 507 1280 z "},"ő":{"ha":684,"x_min":26,"x_max":753,"o":"m 54 375 q 171 646 79 545 q 399 747 262 747 q 593 642 528 747 q 633 375 657 536 l 631 357 q 513 86 605 186 q 286 -14 422 -14 q 91 90 155 -14 q 51 357 26 195 l 54 375 m 189 357 q 197 163 170 236 q 302 90 224 90 q 424 166 374 90 q 492 357 475 242 l 495 375 q 486 568 513 494 q 383 642 460 642 q 259 565 310 642 q 192 375 208 488 l 189 357 m 609 1048 l 751 1048 l 753 1044 l 555 867 l 442 867 l 440 871 l 609 1048 m 403 1048 l 538 1048 l 540 1044 l 373 867 l 261 867 l 403 1048 z "},"Œ":{"ha":1156,"x_min":41,"x_max":1215,"o":"m 1080 458 l 745 458 l 692 104 l 1086 104 l 1071 0 l 538 0 l 686 987 l 1215 987 l 1200 882 l 808 882 l 760 564 l 1096 564 l 1080 458 m 498 1002 q 579 998 537 1002 q 666 987 622 994 l 650 879 q 569 892 612 887 q 481 897 526 897 q 325 818 391 897 q 237 598 258 739 l 205 391 q 225 167 183 243 q 362 91 267 91 q 449 95 404 91 q 534 109 494 100 l 518 0 q 425 -11 465 -7 q 347 -14 385 -14 q 121 99 201 -14 q 68 391 41 213 l 99 597 q 236 892 127 783 q 498 1002 345 1002 z "},"œ":{"ha":1091,"x_min":26,"x_max":1147,"o":"m 817 -14 q 661 40 722 -14 q 581 188 600 94 q 459 39 535 92 q 286 -14 383 -14 q 91 90 155 -14 q 51 357 26 195 l 54 375 q 171 646 79 545 q 399 747 262 747 q 551 692 490 747 q 631 541 612 636 q 752 693 677 638 q 918 747 827 747 q 1093 657 1039 747 q 1126 420 1147 568 l 1114 342 l 716 342 q 729 158 699 226 q 842 90 758 90 q 945 109 898 90 q 1032 161 991 127 l 1064 75 q 958 12 1021 37 q 817 -14 894 -14 m 189 357 q 197 163 170 236 q 302 90 224 90 q 424 166 374 90 q 492 357 475 242 l 495 375 q 486 568 513 494 q 383 642 460 642 q 259 565 310 642 q 192 375 208 488 l 189 357 m 903 642 q 801 586 845 642 q 737 444 757 530 l 739 440 l 993 440 l 996 456 q 987 591 1008 541 q 903 642 965 642 z "},"Ŕ":{"ha":772,"x_min":39,"x_max":754,"o":"m 241 425 l 177 0 l 39 0 l 187 987 l 478 987 q 685 913 615 987 q 734 706 754 840 q 677 568 722 625 q 559 479 632 511 q 654 394 629 454 q 668 248 680 334 l 655 161 q 651 76 648 115 q 673 16 654 38 l 671 0 l 529 0 q 509 68 509 22 q 516 163 509 115 l 528 246 q 510 378 541 332 q 411 425 479 425 l 241 425 m 256 530 l 403 530 q 534 576 485 530 q 596 703 583 622 q 576 836 609 791 q 463 882 544 882 l 309 882 l 256 530 m 545 1264 l 703 1264 l 705 1260 l 515 1084 l 405 1084 l 403 1087 l 545 1264 z "},"ŕ":{"ha":427,"x_min":25,"x_max":551,"o":"m 433 619 l 374 623 q 298 595 332 623 q 241 518 264 568 l 163 0 l 25 0 l 135 734 l 262 734 l 255 633 l 259 631 q 331 716 288 685 q 423 747 373 747 q 447 745 436 747 q 467 739 458 743 l 433 619 m 392 1046 l 550 1046 l 551 1042 l 362 865 l 252 865 l 250 869 l 392 1046 z "},"Ŗ":{"ha":772,"x_min":39,"x_max":754,"o":"m 241 425 l 177 0 l 39 0 l 187 987 l 478 987 q 685 913 615 987 q 734 706 754 840 q 677 568 722 625 q 559 479 632 511 q 654 394 629 454 q 668 248 680 334 l 655 161 q 651 76 648 115 q 673 16 654 38 l 671 0 l 529 0 q 509 68 509 22 q 516 163 509 115 l 528 246 q 510 378 541 332 q 411 425 479 425 l 241 425 m 256 530 l 403 530 q 534 576 485 530 q 596 703 583 622 q 576 836 609 791 q 463 882 544 882 l 309 882 l 256 530 m 330 -168 l 237 -319 l 175 -319 l 233 -163 l 247 -73 l 345 -73 l 330 -168 z "},"ŗ":{"ha":427,"x_min":-33,"x_max":467,"o":"m 433 619 l 374 623 q 298 595 332 623 q 241 518 264 568 l 163 0 l 25 0 l 135 734 l 262 734 l 255 633 l 259 631 q 331 716 288 685 q 423 747 373 747 q 447 745 436 747 q 467 739 458 743 l 433 619 m 122 -167 l 28 -319 l -33 -319 l 25 -162 l 39 -73 l 136 -73 l 122 -167 z "},"Ř":{"ha":772,"x_min":39,"x_max":754,"o":"m 241 425 l 177 0 l 39 0 l 187 987 l 478 987 q 685 913 615 987 q 734 706 754 840 q 677 568 722 625 q 559 479 632 511 q 654 394 629 454 q 668 248 680 334 l 655 161 q 651 76 648 115 q 673 16 654 38 l 671 0 l 529 0 q 509 68 509 22 q 516 163 509 115 l 528 246 q 510 378 541 332 q 411 425 479 425 l 241 425 m 256 530 l 403 530 q 534 576 485 530 q 596 703 583 622 q 576 836 609 791 q 463 882 544 882 l 309 882 l 256 530 m 485 1159 l 578 1261 l 701 1261 l 700 1249 l 520 1086 l 429 1086 l 298 1249 l 300 1261 l 422 1261 l 485 1159 z "},"ř":{"ha":427,"x_min":25,"x_max":548,"o":"m 433 619 l 374 623 q 298 595 332 623 q 241 518 264 568 l 163 0 l 25 0 l 135 734 l 262 734 l 255 633 l 259 631 q 331 716 288 685 q 423 747 373 747 q 447 745 436 747 q 467 739 458 743 l 433 619 m 332 941 l 425 1042 l 548 1042 l 547 1031 l 367 868 l 275 868 l 145 1030 l 146 1042 l 269 1042 l 332 941 z "},"Ś":{"ha":742,"x_min":38,"x_max":734,"o":"m 541 226 q 516 348 551 302 q 379 439 480 394 q 175 561 238 490 q 130 760 111 632 q 234 938 147 873 q 443 1002 320 1002 q 657 921 581 1002 q 710 701 734 841 l 709 698 l 576 698 q 548 841 589 786 q 427 896 507 896 q 321 857 366 896 q 269 761 277 817 q 291 639 256 682 q 438 549 326 596 q 636 426 575 496 q 678 227 697 355 q 573 47 660 109 q 358 -14 486 -14 q 130 58 222 -14 q 64 284 38 131 l 66 288 l 197 288 q 236 135 181 180 q 374 90 291 90 q 483 129 434 90 q 541 226 532 168 m 553 1278 l 711 1278 l 712 1274 l 523 1098 l 412 1098 l 410 1101 l 553 1278 z "},"ś":{"ha":612,"x_min":10,"x_max":618,"o":"m 402 185 q 384 257 408 229 q 283 321 360 286 q 127 414 176 364 q 89 543 77 465 q 177 689 101 631 q 363 747 252 747 q 534 682 472 747 q 581 524 596 616 l 578 519 l 446 519 q 428 610 453 573 q 349 647 402 647 q 263 617 298 647 q 223 549 228 587 q 238 482 217 505 q 340 420 260 459 q 499 326 449 380 q 539 192 550 273 q 448 41 525 97 q 256 -14 371 -14 q 74 56 137 -14 q 26 216 10 125 l 28 220 l 156 220 q 182 117 149 149 q 272 85 216 85 q 360 114 324 85 q 402 185 396 142 m 458 1046 l 616 1046 l 618 1042 l 429 865 l 318 865 l 316 869 l 458 1046 z "},"Ŝ":{"ha":742,"x_min":38,"x_max":734,"o":"m 541 226 q 516 348 551 302 q 379 439 480 394 q 175 561 238 490 q 130 760 111 632 q 234 938 147 873 q 443 1002 320 1002 q 657 921 581 1002 q 710 701 734 841 l 709 698 l 576 698 q 548 841 589 786 q 427 896 507 896 q 321 857 366 896 q 269 761 277 817 q 291 639 256 682 q 438 549 326 596 q 636 426 575 496 q 678 227 697 355 q 573 47 660 109 q 358 -14 486 -14 q 130 58 222 -14 q 64 284 38 131 l 66 288 l 197 288 q 236 135 181 180 q 374 90 291 90 q 483 129 434 90 q 541 226 532 168 m 680 1114 l 677 1099 l 566 1099 l 496 1201 l 397 1099 l 287 1099 l 289 1114 l 465 1272 l 549 1272 l 680 1114 z "},"ŝ":{"ha":612,"x_min":10,"x_max":596,"o":"m 402 185 q 384 257 408 229 q 283 321 360 286 q 127 414 176 364 q 89 543 77 465 q 177 689 101 631 q 363 747 252 747 q 534 682 472 747 q 581 524 596 616 l 578 519 l 446 519 q 428 610 453 573 q 349 647 402 647 q 263 617 298 647 q 223 549 228 587 q 238 482 217 505 q 340 420 260 459 q 499 326 449 380 q 539 192 550 273 q 448 41 525 97 q 256 -14 371 -14 q 74 56 137 -14 q 26 216 10 125 l 28 220 l 156 220 q 182 117 149 149 q 272 85 216 85 q 360 114 324 85 q 402 185 396 142 m 585 881 l 583 866 l 472 866 l 401 968 l 302 866 l 193 866 l 195 882 l 371 1039 l 454 1039 l 585 881 z "},"Ş":{"ha":742,"x_min":38,"x_max":734,"o":"m 541 226 q 516 348 551 302 q 379 439 480 394 q 175 561 238 490 q 130 760 111 632 q 234 938 147 873 q 443 1002 320 1002 q 657 921 581 1002 q 710 701 734 841 l 709 698 l 576 698 q 548 841 589 786 q 427 896 507 896 q 321 857 366 896 q 269 761 277 817 q 291 639 256 682 q 438 549 326 596 q 636 426 575 496 q 678 227 697 355 q 573 47 660 109 q 358 -14 486 -14 q 130 58 222 -14 q 64 284 38 131 l 66 288 l 197 288 q 236 135 181 180 q 374 90 291 90 q 483 129 434 90 q 541 226 532 168 m 369 -5 l 356 -44 q 414 -78 393 -51 q 428 -161 435 -106 q 363 -267 417 -229 q 218 -303 309 -304 l 215 -301 l 222 -229 q 283 -212 258 -229 q 315 -161 309 -195 q 302 -113 319 -126 q 235 -96 284 -100 l 266 -5 l 369 -5 z "},"ş":{"ha":612,"x_min":10,"x_max":596,"o":"m 402 185 q 384 257 408 229 q 283 321 360 286 q 127 414 176 364 q 89 543 77 465 q 177 689 101 631 q 363 747 252 747 q 534 682 472 747 q 581 524 596 616 l 578 519 l 446 519 q 428 610 453 573 q 349 647 402 647 q 263 617 298 647 q 223 549 228 587 q 238 482 217 505 q 340 420 260 459 q 499 326 449 380 q 539 192 550 273 q 448 41 525 97 q 256 -14 371 -14 q 74 56 137 -14 q 26 216 10 125 l 28 220 l 156 220 q 182 117 149 149 q 272 85 216 85 q 360 114 324 85 q 402 185 396 142 m 309 -3 l 296 -43 q 355 -77 334 -50 q 368 -159 376 -104 q 303 -266 357 -228 q 159 -302 249 -303 l 155 -300 l 163 -228 q 224 -211 198 -228 q 255 -159 250 -193 q 242 -112 260 -125 q 175 -94 224 -99 l 206 -3 l 309 -3 z "},"Š":{"ha":742,"x_min":38,"x_max":734,"o":"m 541 226 q 516 348 551 302 q 379 439 480 394 q 175 561 238 490 q 130 760 111 632 q 234 938 147 873 q 443 1002 320 1002 q 657 921 581 1002 q 710 701 734 841 l 709 698 l 576 698 q 548 841 589 786 q 427 896 507 896 q 321 857 366 896 q 269 761 277 817 q 291 639 256 682 q 438 549 326 596 q 636 426 575 496 q 678 227 697 355 q 573 47 660 109 q 358 -14 486 -14 q 130 58 222 -14 q 64 284 38 131 l 66 288 l 197 288 q 236 135 181 180 q 374 90 291 90 q 483 129 434 90 q 541 226 532 168 m 492 1173 l 585 1275 l 709 1275 l 707 1263 l 528 1101 l 436 1101 l 306 1263 l 307 1275 l 429 1275 l 492 1173 z "},"š":{"ha":612,"x_min":10,"x_max":614,"o":"m 402 185 q 384 257 408 229 q 283 321 360 286 q 127 414 176 364 q 89 543 77 465 q 177 689 101 631 q 363 747 252 747 q 534 682 472 747 q 581 524 596 616 l 578 519 l 446 519 q 428 610 453 573 q 349 647 402 647 q 263 617 298 647 q 223 549 228 587 q 238 482 217 505 q 340 420 260 459 q 499 326 449 380 q 539 192 550 273 q 448 41 525 97 q 256 -14 371 -14 q 74 56 137 -14 q 26 216 10 125 l 28 220 l 156 220 q 182 117 149 149 q 272 85 216 85 q 360 114 324 85 q 402 185 396 142 m 397 941 l 490 1042 l 614 1042 l 612 1031 l 433 868 l 341 868 l 211 1030 l 212 1042 l 334 1042 l 397 941 z "},"Ţ":{"ha":709,"x_min":103,"x_max":779,"o":"m 763 882 l 500 882 l 369 0 l 231 0 l 362 882 l 103 882 l 119 987 l 779 987 l 763 882 m 321 -168 l 227 -319 l 165 -319 l 224 -163 l 237 -73 l 335 -73 l 321 -168 z "},"ţ":{"ha":416,"x_min":62,"x_max":427,"o":"m 340 916 l 312 734 l 427 734 l 412 635 l 298 635 l 232 199 q 236 116 222 139 q 279 94 250 94 q 302 96 291 94 q 326 102 313 98 l 326 7 q 280 -8 305 -3 q 229 -14 255 -14 q 115 37 153 -14 q 94 199 77 89 l 159 635 l 62 635 l 77 734 l 174 734 l 201 916 l 340 916 m 232 -174 l 138 -326 l 77 -326 l 135 -170 l 149 -80 l 246 -80 l 232 -174 z "},"Ť":{"ha":709,"x_min":103,"x_max":779,"o":"m 763 882 l 500 882 l 369 0 l 231 0 l 362 882 l 103 882 l 119 987 l 779 987 l 763 882 m 475 1157 l 568 1259 l 691 1259 l 690 1247 l 510 1084 l 418 1084 l 288 1246 l 290 1259 l 412 1259 l 475 1157 z "},"ť":{"ha":416,"x_min":62,"x_max":572,"o":"m 340 916 l 312 734 l 427 734 l 412 635 l 298 635 l 232 199 q 236 116 222 139 q 279 94 250 94 q 302 96 291 94 q 326 102 313 98 l 326 7 q 280 -8 305 -3 q 229 -14 255 -14 q 115 37 153 -14 q 94 199 77 89 l 159 635 l 62 635 l 77 734 l 174 734 l 201 916 l 340 916 m 558 975 l 465 823 l 403 823 l 461 980 l 475 1069 l 572 1069 l 558 975 z "},"Ŧ":{"ha":709,"x_min":103,"x_max":779,"o":"m 573 546 l 450 546 l 369 0 l 231 0 l 312 546 l 191 546 l 205 642 l 326 642 l 362 882 l 103 882 l 119 987 l 779 987 l 763 882 l 500 882 l 465 642 l 587 642 l 573 546 z "},"ŧ":{"ha":416,"x_min":8,"x_max":427,"o":"m 340 916 l 312 734 l 427 734 l 412 635 l 297 635 l 276 494 l 404 494 l 390 398 l 262 398 l 232 199 q 236 116 222 139 q 279 94 250 94 q 302 96 291 94 q 326 102 313 98 l 326 7 q 280 -8 305 -3 q 229 -14 255 -14 q 115 37 153 -14 q 94 199 77 89 l 123 398 l 8 398 l 22 494 l 138 494 l 159 635 l 62 635 l 77 734 l 174 734 l 201 916 l 340 916 z "},"Ũ":{"ha":823,"x_min":55,"x_max":834,"o":"m 834 987 l 736 334 q 606 75 711 164 q 353 -14 502 -14 q 134 79 214 -14 q 79 334 55 172 l 177 987 l 315 987 l 217 334 q 241 153 199 216 q 368 90 283 90 q 516 155 452 90 q 598 334 581 220 l 696 987 l 834 987 m 747 1246 q 698 1140 738 1182 q 606 1099 659 1099 q 522 1132 566 1099 q 447 1165 477 1165 q 405 1142 425 1165 q 381 1086 385 1120 l 309 1105 q 357 1212 317 1169 q 450 1255 397 1255 q 530 1221 481 1255 q 609 1187 578 1187 q 651 1211 631 1187 q 675 1267 671 1234 l 747 1246 z "},"ũ":{"ha":684,"x_min":43,"x_max":661,"o":"m 433 0 l 436 104 q 348 16 399 46 q 235 -14 296 -14 q 90 64 137 -14 q 68 306 43 143 l 132 734 l 270 734 l 205 304 q 207 137 187 182 q 283 92 227 92 q 373 117 334 92 q 441 189 413 142 l 522 734 l 661 734 l 551 0 l 433 0 m 641 1014 q 592 908 631 949 q 499 866 552 866 q 415 899 460 866 q 340 932 371 932 q 298 910 318 932 q 275 854 279 887 l 202 873 q 250 979 210 937 q 343 1022 290 1022 q 423 988 374 1022 q 503 955 472 955 q 544 978 524 955 q 569 1035 564 1002 l 641 1014 z "},"Ū":{"ha":823,"x_min":55,"x_max":834,"o":"m 834 987 l 736 334 q 606 75 711 164 q 353 -14 502 -14 q 134 79 214 -14 q 79 334 55 172 l 177 987 l 315 987 l 217 334 q 241 153 199 216 q 368 90 283 90 q 516 155 452 90 q 598 334 581 220 l 696 987 l 834 987 m 741 1120 l 304 1120 l 317 1210 l 753 1210 l 741 1120 z "},"ū":{"ha":684,"x_min":43,"x_max":661,"o":"m 433 0 l 436 104 q 348 16 399 46 q 235 -14 296 -14 q 90 64 137 -14 q 68 306 43 143 l 132 734 l 270 734 l 205 304 q 207 137 187 182 q 283 92 227 92 q 373 117 334 92 q 441 189 413 142 l 522 734 l 661 734 l 551 0 l 433 0 m 634 888 l 197 888 l 210 978 l 647 978 l 634 888 z "},"Ŭ":{"ha":823,"x_min":55,"x_max":834,"o":"m 834 987 l 736 334 q 606 75 711 164 q 353 -14 502 -14 q 134 79 214 -14 q 79 334 55 172 l 177 987 l 315 987 l 217 334 q 241 153 199 216 q 368 90 283 90 q 516 155 452 90 q 598 334 581 220 l 696 987 l 834 987 m 733 1270 l 734 1265 q 667 1134 726 1182 q 517 1085 608 1085 q 384 1136 431 1085 q 351 1266 336 1187 l 352 1270 l 456 1270 q 466 1195 449 1223 q 529 1168 483 1168 q 597 1197 571 1168 q 629 1270 623 1225 l 733 1270 z "},"ŭ":{"ha":684,"x_min":43,"x_max":661,"o":"m 433 0 l 436 104 q 348 16 399 46 q 235 -14 296 -14 q 90 64 137 -14 q 68 306 43 143 l 132 734 l 270 734 l 205 304 q 207 137 187 182 q 283 92 227 92 q 373 117 334 92 q 441 189 413 142 l 522 734 l 661 734 l 551 0 l 433 0 m 627 1037 l 628 1033 q 560 901 619 949 q 411 852 501 852 q 277 903 324 852 q 244 1034 230 954 l 245 1037 l 349 1037 q 359 963 342 990 q 422 935 376 935 q 491 964 465 935 q 523 1037 517 993 l 627 1037 z "},"Ů":{"ha":823,"x_min":55,"x_max":834,"o":"m 834 987 l 736 334 q 606 75 711 164 q 353 -14 502 -14 q 134 79 214 -14 q 79 334 55 172 l 177 987 l 315 987 l 217 334 q 241 153 199 216 q 368 90 283 90 q 516 155 452 90 q 598 334 581 220 l 696 987 l 834 987 m 427 1177 q 471 1257 435 1226 q 553 1289 507 1289 q 622 1256 595 1289 q 642 1177 648 1223 q 599 1098 633 1128 q 519 1069 564 1069 q 448 1100 475 1069 q 427 1177 420 1131 m 490 1177 q 497 1140 486 1154 q 528 1126 508 1126 q 560 1141 545 1126 q 578 1177 575 1156 q 572 1215 582 1200 q 544 1230 562 1230 q 509 1215 525 1230 q 490 1177 493 1200 z "},"ů":{"ha":684,"x_min":43,"x_max":661,"o":"m 433 0 l 436 104 q 348 16 399 46 q 235 -14 296 -14 q 90 64 137 -14 q 68 306 43 143 l 132 734 l 270 734 l 205 304 q 207 137 187 182 q 283 92 227 92 q 373 117 334 92 q 441 189 413 142 l 522 734 l 661 734 l 551 0 l 433 0 m 321 945 q 364 1025 328 994 q 446 1056 400 1056 q 515 1023 489 1056 q 535 945 542 991 q 492 866 527 895 q 413 836 458 836 q 341 867 369 836 q 321 945 313 898 m 383 945 q 390 908 379 922 q 422 894 401 894 q 454 908 439 894 q 472 945 469 923 q 466 982 475 968 q 437 997 456 997 q 402 982 418 997 q 383 945 387 967 z "},"Ű":{"ha":823,"x_min":55,"x_max":856,"o":"m 834 987 l 736 334 q 606 75 711 164 q 353 -14 502 -14 q 134 79 214 -14 q 79 334 55 172 l 177 987 l 315 987 l 217 334 q 241 153 199 216 q 368 90 283 90 q 516 155 452 90 q 598 334 581 220 l 696 987 l 834 987 m 712 1266 l 854 1266 l 856 1262 l 659 1086 l 545 1086 l 543 1090 l 712 1266 m 506 1266 l 641 1266 l 643 1262 l 476 1086 l 364 1086 l 506 1266 z "},"ű":{"ha":684,"x_min":43,"x_max":749,"o":"m 433 0 l 436 104 q 348 16 399 46 q 235 -14 296 -14 q 90 64 137 -14 q 68 306 43 143 l 132 734 l 270 734 l 205 304 q 207 137 187 182 q 283 92 227 92 q 373 117 334 92 q 441 189 413 142 l 522 734 l 661 734 l 551 0 l 433 0 m 606 1034 l 748 1034 l 749 1029 l 552 853 l 439 853 l 437 857 l 606 1034 m 399 1034 l 534 1034 l 536 1029 l 370 853 l 258 853 l 399 1034 z "},"Ų":{"ha":823,"x_min":55,"x_max":834,"o":"m 834 987 l 736 334 q 606 75 711 164 q 353 -14 502 -14 q 134 79 214 -14 q 79 334 55 172 l 177 987 l 315 987 l 217 334 q 241 153 199 216 q 368 90 283 90 q 516 155 452 90 q 598 334 581 220 l 696 987 l 834 987 m 420 0 q 355 -68 378 -38 q 327 -134 332 -98 q 332 -173 323 -157 q 372 -189 341 -189 q 403 -183 388 -189 q 431 -171 418 -178 l 439 -250 q 390 -271 416 -262 q 328 -280 363 -280 q 240 -245 273 -280 q 216 -148 207 -210 q 261 -48 224 -94 q 366 33 298 -3 l 420 0 z "},"ų":{"ha":684,"x_min":43,"x_max":661,"o":"m 433 0 l 436 104 q 348 16 399 46 q 235 -14 296 -14 q 90 64 137 -14 q 68 306 43 143 l 132 734 l 270 734 l 205 304 q 207 137 187 182 q 283 92 227 92 q 373 117 334 92 q 441 189 413 142 l 522 734 l 661 734 l 551 0 l 433 0 m 518 0 q 453 -68 476 -38 q 425 -134 430 -98 q 430 -173 421 -157 q 469 -189 439 -189 q 501 -183 486 -189 q 528 -171 516 -178 l 536 -250 q 487 -271 514 -262 q 426 -280 460 -280 q 337 -245 370 -280 q 313 -148 304 -210 q 358 -48 321 -94 q 464 33 395 -3 l 518 0 z "},"Ŵ":{"ha":1053,"x_min":115,"x_max":1124,"o":"m 742 286 l 746 286 l 979 987 l 1124 987 l 773 0 l 646 0 l 578 700 l 574 701 l 297 0 l 170 0 l 115 987 l 260 987 l 284 288 l 288 288 l 559 987 l 680 987 l 742 286 m 833 1099 l 831 1084 l 720 1084 l 649 1187 l 550 1084 l 440 1084 l 442 1100 l 618 1257 l 702 1257 l 833 1099 z "},"ŵ":{"ha":901,"x_min":83,"x_max":925,"o":"m 615 239 l 619 239 l 787 734 l 925 734 l 644 0 l 530 0 l 467 475 l 463 476 l 259 0 l 144 0 l 83 734 l 220 734 l 243 245 l 248 245 l 454 734 l 553 734 l 615 239 m 721 867 l 719 852 l 608 852 l 537 954 l 438 852 l 328 852 l 330 867 l 507 1025 l 590 1025 l 721 867 z "},"Ŷ":{"ha":764,"x_min":113,"x_max":838,"o":"m 401 506 l 405 506 l 683 987 l 838 987 l 447 356 l 393 0 l 256 0 l 311 365 l 113 987 l 266 987 l 401 506 m 689 1097 l 687 1082 l 576 1082 l 505 1184 l 406 1082 l 296 1082 l 298 1097 l 475 1255 l 558 1255 l 689 1097 z "},"ŷ":{"ha":612,"x_min":-35,"x_max":654,"o":"m 272 253 l 275 204 l 279 203 l 503 734 l 654 734 l 264 -114 q 175 -243 228 -189 q 38 -296 122 -296 q 2 -293 22 -296 q -35 -284 -17 -289 l -4 -182 q 15 -185 2 -184 q 36 -186 28 -186 q 105 -152 75 -186 q 155 -71 135 -117 l 191 5 l 69 734 l 220 734 l 272 253 m 578 867 l 576 852 l 465 852 l 395 954 l 296 852 l 186 852 l 188 867 l 364 1025 l 448 1025 l 578 867 z "},"Ÿ":{"ha":764,"x_min":113,"x_max":838,"o":"m 401 506 l 405 506 l 683 987 l 838 987 l 447 356 l 393 0 l 256 0 l 311 365 l 113 987 l 266 987 l 401 506 m 707 1094 l 565 1094 l 583 1219 l 724 1219 l 707 1094 m 411 1094 l 269 1094 l 287 1219 l 429 1219 l 411 1094 z "},"Ź":{"ha":682,"x_min":12,"x_max":685,"o":"m 172 104 l 597 104 l 582 0 l 14 0 l 12 85 l 504 882 l 127 882 l 142 987 l 679 987 l 667 905 l 172 104 m 526 1264 l 684 1264 l 685 1260 l 496 1084 l 385 1084 l 383 1087 l 526 1264 z "},"ź":{"ha":612,"x_min":-1,"x_max":614,"o":"m 170 104 l 527 104 l 511 0 l -1 0 l 12 87 l 432 627 l 101 627 l 117 734 l 606 734 l 593 648 l 170 104 m 455 1031 l 613 1031 l 614 1027 l 425 851 l 315 851 l 313 854 l 455 1031 z "},"Ż":{"ha":682,"x_min":12,"x_max":679,"o":"m 172 104 l 597 104 l 582 0 l 14 0 l 12 85 l 504 882 l 127 882 l 142 987 l 679 987 l 667 905 l 172 104 m 533 1096 l 378 1096 l 398 1232 l 553 1232 l 533 1096 z "},"ż":{"ha":612,"x_min":-1,"x_max":606,"o":"m 170 104 l 527 104 l 511 0 l -1 0 l 12 87 l 432 627 l 101 627 l 117 734 l 606 734 l 593 648 l 170 104 m 463 863 l 307 863 l 328 999 l 483 999 l 463 863 z "},"Ž":{"ha":682,"x_min":12,"x_max":682,"o":"m 172 104 l 597 104 l 582 0 l 14 0 l 12 85 l 504 882 l 127 882 l 142 987 l 679 987 l 667 905 l 172 104 m 465 1159 l 558 1261 l 682 1261 l 680 1249 l 500 1086 l 409 1086 l 279 1249 l 280 1261 l 402 1261 l 465 1159 z "},"ž":{"ha":612,"x_min":-1,"x_max":611,"o":"m 170 104 l 527 104 l 511 0 l -1 0 l 12 87 l 432 627 l 101 627 l 117 734 l 606 734 l 593 648 l 170 104 m 395 926 l 488 1028 l 611 1028 l 610 1017 l 430 854 l 338 854 l 208 1016 l 210 1028 l 332 1028 l 395 926 z "},"ſ":{"ha":311,"x_min":31,"x_max":492,"o":"m 31 0 l 155 828 q 238 1011 173 949 q 406 1072 303 1072 q 447 1068 426 1072 q 492 1058 469 1064 l 464 959 q 438 964 450 962 q 410 966 426 966 q 333 930 365 966 q 292 828 302 893 l 168 0 l 31 0 z "},"ƒ":{"ha":427,"x_min":-109,"x_max":522,"o":"m 418 635 l 298 635 l 202 -50 q 122 -235 184 -173 q -37 -296 60 -296 q -75 -293 -57 -296 q -109 -284 -92 -290 l -87 -182 q -61 -188 -78 -185 q -31 -191 -45 -191 q 28 -153 3 -191 q 64 -50 54 -116 l 160 635 l 63 635 l 77 734 l 174 734 l 187 828 q 268 1011 204 949 q 436 1072 332 1072 q 477 1068 456 1072 q 522 1058 499 1064 l 495 957 q 469 962 484 960 q 438 964 455 964 q 364 929 393 964 q 326 828 334 893 l 312 734 l 432 734 l 418 635 z "},"Ơ":{"ha":839,"x_min":36,"x_max":1019,"o":"m 755 357 q 620 80 727 175 q 350 -14 512 -14 q 117 84 199 -14 q 62 357 36 183 l 103 629 q 237 906 130 811 q 502 1002 343 1002 q 647 972 583 1002 q 751 886 711 942 q 851 961 811 905 q 905 1106 891 1018 l 1019 1106 q 942 899 1000 978 q 791 793 884 821 q 801 715 800 756 q 795 629 802 674 l 755 357 m 659 631 q 634 829 679 765 q 486 893 589 893 q 325 826 390 893 q 241 631 259 758 l 199 357 q 222 157 178 222 q 366 93 266 93 q 531 160 465 93 q 618 357 598 228 l 659 631 z "},"ơ":{"ha":697,"x_min":26,"x_max":809,"o":"m 54 375 q 171 646 79 545 q 399 747 262 747 q 506 723 458 747 q 585 654 553 699 q 660 719 630 672 q 701 836 690 766 l 809 836 q 746 671 793 735 q 620 583 698 608 q 638 486 635 539 q 633 375 642 433 l 631 357 q 513 86 605 186 q 286 -14 422 -14 q 91 90 155 -14 q 51 357 26 195 l 54 375 m 189 357 q 197 163 170 236 q 302 90 224 90 q 424 166 374 90 q 492 357 475 242 l 495 375 q 486 568 513 494 q 383 642 460 642 q 259 565 310 642 q 192 375 208 488 l 189 357 z "},"Ư":{"ha":850,"x_min":55,"x_max":1068,"o":"m 834 987 l 816 867 l 820 866 q 907 938 873 881 q 956 1086 942 995 l 1067 1086 l 1068 1083 q 982 860 1048 940 q 800 762 915 780 l 736 334 q 606 75 711 164 q 353 -14 502 -14 q 134 79 214 -14 q 79 334 55 172 l 177 987 l 315 987 l 217 334 q 241 153 199 216 q 368 90 283 90 q 516 155 452 90 q 598 334 581 220 l 696 987 l 834 987 z "},"ư":{"ha":697,"x_min":43,"x_max":882,"o":"m 880 832 l 882 828 q 805 642 865 706 q 635 568 745 578 l 551 0 l 433 0 l 436 104 q 348 16 399 46 q 235 -14 296 -14 q 90 64 137 -14 q 68 306 43 143 l 132 734 l 270 734 l 205 304 q 207 137 187 182 q 283 92 227 92 q 373 117 334 92 q 441 189 413 142 l 522 734 l 661 734 l 649 656 l 652 654 q 737 705 706 661 q 781 832 768 750 l 880 832 z "},"ǰ":{"ha":327,"x_min":-140,"x_max":461,"o":"m 292 734 l 174 -50 q 93 -235 155 -173 q -68 -296 30 -296 q -104 -293 -87 -296 q -140 -284 -121 -290 l -116 -182 q -89 -188 -105 -185 q -61 -191 -73 -191 q 0 -153 -26 -191 q 37 -50 26 -115 l 154 734 l 292 734 m 245 916 l 338 1018 l 461 1018 l 460 1006 l 280 844 l 189 844 l 58 1006 l 60 1018 l 182 1018 l 245 916 z "},"Ǻ":{"ha":764,"x_min":-33,"x_max":730,"o":"m 515 250 l 219 250 l 111 0 l -33 0 l 412 987 l 545 987 l 691 0 l 548 0 l 515 250 m 267 359 l 500 359 l 446 760 l 443 761 l 267 359 m 602 1424 l 729 1424 l 730 1420 l 572 1289 l 488 1289 l 487 1292 l 602 1424 m 391 1141 q 434 1223 398 1191 q 517 1255 470 1255 q 587 1222 559 1255 q 606 1141 614 1189 q 563 1060 598 1090 q 484 1030 528 1030 q 411 1062 439 1030 q 391 1141 383 1093 m 448 1141 q 456 1099 444 1115 q 491 1082 469 1082 q 528 1099 511 1082 q 549 1141 545 1116 q 542 1185 553 1168 q 509 1202 530 1202 q 469 1184 488 1202 q 448 1141 451 1166 z "},"ǻ":{"ha":656,"x_min":12,"x_max":641,"o":"m 406 0 q 401 58 402 31 q 403 112 400 85 q 312 22 366 58 q 198 -14 259 -14 q 58 44 104 -14 q 27 203 12 103 q 124 369 43 311 q 336 427 205 427 l 449 427 l 460 502 q 447 608 471 572 q 367 644 423 644 q 283 611 319 644 q 240 528 248 578 l 109 528 l 108 532 q 196 684 117 620 q 391 747 275 747 q 556 683 496 747 q 599 500 616 618 l 547 160 q 540 78 541 117 q 546 0 540 39 l 406 0 m 242 92 q 346 127 296 92 q 417 212 395 163 l 436 341 l 321 341 q 217 300 260 341 q 165 203 174 259 q 177 121 157 151 q 242 92 197 92 m 513 1206 l 640 1206 l 641 1202 l 483 1070 l 399 1070 l 397 1074 l 513 1206 m 301 922 q 345 1004 309 972 q 427 1036 380 1036 q 497 1003 470 1036 q 517 922 524 970 q 474 842 509 872 q 394 812 439 812 q 321 843 349 812 q 301 922 294 875 m 358 922 q 367 880 354 897 q 401 864 379 864 q 438 881 421 864 q 460 922 456 897 q 452 966 463 949 q 420 983 441 983 q 380 966 398 983 q 358 922 361 948 z "},"Ǽ":{"ha":1152,"x_min":-41,"x_max":1164,"o":"m 1052 0 l 534 0 l 562 245 l 273 245 l 123 0 l -41 0 l 591 987 l 1164 987 l 1148 881 l 772 881 l 736 564 l 1053 564 l 1038 459 l 724 459 l 684 105 l 1067 105 l 1052 0 m 574 360 l 626 811 l 623 812 l 345 360 l 574 360 m 742 1264 l 900 1264 l 901 1260 l 712 1084 l 602 1084 l 600 1087 l 742 1264 z "},"ǽ":{"ha":1048,"x_min":16,"x_max":1027,"o":"m 698 -14 q 568 17 623 -14 q 483 106 513 49 q 374 20 441 55 q 219 -14 306 -14 q 67 45 118 -14 q 32 206 16 105 q 126 370 47 314 q 340 425 204 425 l 460 425 l 470 486 q 460 602 481 562 q 387 642 439 642 q 295 604 334 642 q 249 513 256 567 l 118 524 l 117 528 q 207 687 129 627 q 404 747 286 747 q 510 725 464 747 q 583 659 557 702 q 679 725 626 702 q 793 747 732 747 q 970 659 912 747 q 1005 422 1027 571 l 993 338 l 589 338 q 604 156 573 222 q 723 90 635 90 q 822 109 778 90 q 911 160 865 127 l 939 71 q 838 12 901 38 q 698 -14 775 -14 m 260 86 q 347 113 299 86 q 423 175 395 140 l 447 332 l 328 332 q 220 294 264 332 q 169 203 176 256 q 183 117 160 148 q 260 86 205 86 m 777 642 q 672 585 717 642 q 609 437 628 528 l 611 433 l 871 433 l 873 454 q 864 591 886 541 q 777 642 841 642 m 673 1046 l 831 1046 l 832 1042 l 643 866 l 532 866 l 530 869 l 673 1046 z "},"Ǿ":{"ha":827,"x_min":41,"x_max":841,"o":"m 758 357 q 623 80 730 175 q 353 -14 515 -14 q 261 -3 304 -14 q 183 30 218 7 l 123 -61 l 41 -61 l 130 74 q 69 194 86 122 q 66 357 52 266 l 106 629 q 240 906 134 811 q 505 1002 347 1002 q 614 986 564 1002 q 703 941 664 970 l 759 1025 l 841 1025 l 751 890 q 798 775 785 841 q 799 629 810 709 l 758 357 m 203 357 q 196 265 195 306 q 209 199 198 224 l 212 198 l 633 835 q 574 879 610 864 q 489 893 538 893 q 328 826 393 893 q 244 631 262 758 l 203 357 m 663 631 q 668 698 668 667 q 664 751 668 729 l 660 752 l 250 130 q 300 102 271 111 q 370 93 330 93 q 535 160 468 93 q 621 357 602 228 l 663 631 m 603 1306 l 761 1306 l 762 1302 l 573 1126 l 463 1126 l 460 1129 l 603 1306 z "},"ǿ":{"ha":684,"x_min":36,"x_max":650,"o":"m 54 375 q 171 646 79 545 q 399 747 262 747 q 456 741 429 747 q 509 722 484 734 l 567 823 l 650 823 l 566 677 q 629 548 612 627 q 633 375 647 470 l 631 357 q 513 86 605 186 q 286 -14 422 -14 q 231 -9 257 -14 q 183 7 205 -3 l 125 -94 l 43 -94 l 125 48 q 55 177 75 97 q 51 357 36 258 l 54 375 m 189 357 q 181 254 180 300 q 195 178 182 208 l 198 178 l 451 619 q 420 636 437 630 q 383 642 404 642 q 259 565 310 642 q 192 375 208 488 l 189 357 m 495 375 q 502 469 503 426 q 492 541 501 512 l 488 541 l 240 106 q 268 94 252 98 q 302 90 283 90 q 424 166 374 90 q 492 357 475 242 l 495 375 m 465 1044 l 623 1044 l 625 1040 l 435 864 l 325 864 l 323 867 l 465 1044 z "},"Ș":{"ha":742,"x_min":38,"x_max":734,"o":"m 541 226 q 516 348 551 302 q 379 439 480 394 q 175 561 238 490 q 130 760 111 632 q 234 938 147 873 q 443 1002 320 1002 q 657 921 581 1002 q 710 701 734 841 l 709 698 l 576 698 q 548 841 589 786 q 427 896 507 896 q 321 857 366 896 q 269 761 277 817 q 291 639 256 682 q 438 549 326 596 q 636 426 575 496 q 678 227 697 355 q 573 47 660 109 q 358 -14 486 -14 q 130 58 222 -14 q 64 284 38 131 l 66 288 l 197 288 q 236 135 181 180 q 374 90 291 90 q 483 129 434 90 q 541 226 532 168 m 334 -181 l 240 -333 l 178 -333 l 237 -176 l 250 -87 l 348 -87 l 334 -181 z "},"ș":{"ha":612,"x_min":10,"x_max":596,"o":"m 402 185 q 384 257 408 229 q 283 321 360 286 q 127 414 176 364 q 89 543 77 465 q 177 689 101 631 q 363 747 252 747 q 534 682 472 747 q 581 524 596 616 l 578 519 l 446 519 q 428 610 453 573 q 349 647 402 647 q 263 617 298 647 q 223 549 228 587 q 238 482 217 505 q 340 420 260 459 q 499 326 449 380 q 539 192 550 273 q 448 41 525 97 q 256 -14 371 -14 q 74 56 137 -14 q 26 216 10 125 l 28 220 l 156 220 q 182 117 149 149 q 272 85 216 85 q 360 114 324 85 q 402 185 396 142 m 274 -180 l 180 -332 l 119 -332 l 177 -175 l 191 -85 l 288 -85 l 274 -180 z "},"ȷ":{"ha":327,"x_min":-140,"x_max":292,"o":"m 292 734 l 174 -50 q 93 -235 155 -173 q -68 -296 30 -296 q -104 -293 -87 -296 q -140 -284 -121 -290 l -116 -182 q -89 -188 -105 -185 q -61 -191 -73 -191 q 0 -153 -26 -191 q 37 -50 26 -115 l 154 734 l 292 734 z "},"ʼ":{"ha":319,"x_min":139,"x_max":317,"o":"m 296 846 l 208 635 l 139 635 l 172 845 l 193 987 l 317 987 l 296 846 z "},"ˆ":{"ha":584,"x_min":167,"x_max":559,"o":"m 559 864 l 557 849 l 446 849 l 376 951 l 277 849 l 167 849 l 169 865 l 345 1022 l 429 1022 l 559 864 z "},"ˇ":{"ha":554,"x_min":172,"x_max":574,"o":"m 358 922 l 451 1023 l 574 1023 l 573 1012 l 393 849 l 302 849 l 172 1011 l 173 1023 l 295 1023 l 358 922 z "},"˘":{"ha":552,"x_min":154,"x_max":552,"o":"m 551 987 l 552 983 q 484 851 543 900 q 335 803 425 803 q 201 854 248 803 q 168 984 154 905 l 170 987 l 273 987 q 283 913 267 941 q 347 886 300 886 q 415 915 389 886 q 447 987 441 943 l 551 987 z "},"˙":{"ha":350,"x_min":165,"x_max":340,"o":"m 320 854 l 165 854 l 185 989 l 340 989 l 320 854 z "},"˚":{"ha":427,"x_min":176,"x_max":405,"o":"m 184 890 q 227 970 191 939 q 309 1002 263 1002 q 378 969 352 1002 q 398 890 405 937 q 355 811 390 841 q 276 782 321 782 q 204 813 232 782 q 184 890 176 844 m 246 890 q 253 853 242 867 q 285 840 264 840 q 317 854 302 840 q 335 890 332 869 q 329 928 338 913 q 300 943 319 943 q 266 928 281 943 q 246 890 250 913 z "},"˛":{"ha":350,"x_min":-35,"x_max":197,"o":"m 178 0 q 113 -68 136 -38 q 85 -134 90 -98 q 90 -173 81 -157 q 130 -189 99 -189 q 161 -183 146 -189 q 189 -171 176 -178 l 197 -250 q 148 -271 174 -262 q 86 -280 121 -280 q -2 -245 31 -280 q -26 -148 -35 -210 q 19 -48 -18 -94 q 124 33 56 -3 l 178 0 z "},"˜":{"ha":576,"x_min":146,"x_max":585,"o":"m 585 1006 q 536 900 576 942 q 444 859 496 859 q 360 892 404 859 q 285 925 315 925 q 243 902 262 925 q 219 846 223 880 l 146 865 q 195 972 155 929 q 288 1015 235 1015 q 368 981 319 1015 q 447 947 416 947 q 489 971 469 947 q 513 1027 509 994 l 585 1006 z "},"˝":{"ha":488,"x_min":150,"x_max":642,"o":"m 498 1029 l 640 1029 l 642 1025 l 444 849 l 331 849 l 329 853 l 498 1029 m 292 1029 l 427 1029 l 429 1025 l 262 849 l 150 849 l 292 1029 z "},"˳":{"ha":397,"x_min":20,"x_max":227,"o":"m 26 -155 q 65 -82 33 -111 q 140 -54 98 -54 q 203 -83 178 -54 q 222 -155 227 -112 q 183 -225 214 -199 q 110 -252 151 -252 q 45 -224 70 -252 q 26 -155 20 -197 m 84 -155 q 91 -186 81 -174 q 118 -199 100 -199 q 147 -186 134 -199 q 163 -155 160 -174 q 157 -121 166 -134 q 132 -109 148 -109 q 101 -122 115 -109 q 84 -155 87 -135 z "},"̀":{"ha":9,"x_min":-522,"x_max":-344,"o":"m -343 857 l -427 857 l -521 1095 l -407 1095 l -343 857 z "},"́":{"ha":9,"x_min":-432,"x_max":-227,"o":"m -335 1096 l -227 1096 l -226 1091 l -355 857 l -430 857 l -432 862 l -335 1096 z "},"̃":{"ha":9,"x_min":-545,"x_max":-106,"o":"m -106 1006 q -155 900 -115 942 q -248 859 -195 859 q -331 892 -287 859 q -406 925 -376 925 q -448 902 -429 925 q -472 846 -468 880 l -545 865 q -496 972 -536 929 q -404 1015 -456 1015 q -323 981 -372 1015 q -244 947 -275 947 q -202 971 -222 947 q -178 1027 -182 994 l -106 1006 z "},"̉":{"ha":9,"x_min":-322,"x_max":-99,"o":"m -322 844 l -313 937 q -246 952 -267 941 q -222 991 -225 963 q -241 1033 -217 1019 q -304 1046 -264 1046 l -290 1116 q -145 1084 -192 1116 q -109 991 -99 1051 q -145 919 -115 945 q -214 888 -175 894 l -220 844 l -322 844 z "},"̏":{"ha":9,"x_min":-483,"x_max":-44,"o":"m -220 849 l -339 849 l -483 1026 l -481 1029 l -338 1029 l -220 849 m -44 849 l -157 849 l -273 1029 l -132 1029 l -44 849 z "},"̣":{"ha":9,"x_min":-509,"x_max":-334,"o":"m -354 -226 l -509 -226 l -489 -90 l -334 -90 l -354 -226 z "},"΄":{"ha":366,"x_min":212,"x_max":403,"o":"m 265 1044 l 403 1044 l 277 871 l 212 871 l 265 1044 z "},"΅":{"ha":637,"x_min":172,"x_max":627,"o":"m 608 864 l 479 864 l 497 987 l 627 987 l 608 864 m 301 864 l 172 864 l 190 987 l 319 987 l 301 864 m 420 1168 l 564 1168 l 451 998 l 370 998 l 420 1168 z "},"Ά":{"ha":764,"x_min":-33,"x_max":691,"o":"m 515 250 l 219 250 l 111 0 l -33 0 l 412 987 l 545 987 l 691 0 l 548 0 l 515 250 m 267 359 l 500 359 l 446 760 l 443 761 l 267 359 m 220 1044 l 358 1044 l 232 871 l 168 871 l 220 1044 z "},"·":{"ha":345,"x_min":106,"x_max":267,"o":"m 245 411 l 106 411 l 127 556 l 267 556 l 245 411 z "},"Έ":{"ha":671,"x_min":-23,"x_max":717,"o":"m 581 458 l 246 458 l 193 104 l 588 104 l 572 0 l 40 0 l 188 987 l 717 987 l 701 882 l 309 882 l 262 564 l 597 564 l 581 458 m 30 1046 l 168 1046 l 41 872 l -23 872 l 30 1046 z "},"Ή":{"ha":850,"x_min":3,"x_max":850,"o":"m 702 0 l 564 0 l 629 435 l 243 435 l 178 0 l 40 0 l 188 987 l 326 987 l 258 541 l 645 541 l 712 987 l 850 987 l 702 0 m 56 1044 l 193 1044 l 67 871 l 3 871 l 56 1044 z "},"Ί":{"ha":351,"x_min":9,"x_max":338,"o":"m 190 0 l 52 0 l 200 987 l 338 987 l 190 0 m 62 1044 l 200 1044 l 74 871 l 9 871 l 62 1044 z "},"Ό":{"ha":826,"x_min":39,"x_max":825,"o":"m 758 357 q 623 80 730 175 q 353 -14 515 -14 q 121 84 202 -14 q 66 357 39 183 l 106 629 q 240 906 134 811 q 505 1002 347 1002 q 742 902 659 1002 q 799 629 825 802 l 758 357 m 663 631 q 637 829 682 765 q 489 893 593 893 q 328 826 393 893 q 244 631 262 758 l 203 357 q 225 157 182 222 q 370 93 269 93 q 535 160 468 93 q 621 357 602 228 l 663 631 m 146 1044 l 284 1044 l 158 871 l 94 871 l 146 1044 z "},"Ύ":{"ha":764,"x_min":-57,"x_max":838,"o":"m 401 506 l 405 506 l 683 987 l 838 987 l 447 356 l 393 0 l 256 0 l 311 365 l 113 987 l 266 987 l 401 506 m -4 1044 l 134 1044 l 7 871 l -57 871 l -4 1044 z "},"Ώ":{"ha":806,"x_min":22,"x_max":787,"o":"m 387 45 l 395 105 l 397 111 q 522 232 469 135 q 601 500 574 328 l 612 575 q 599 813 635 732 q 477 895 563 895 q 333 810 395 895 q 248 575 270 724 l 237 500 q 234 228 209 321 q 328 111 260 135 l 317 45 l 311 0 l 22 0 l 37 105 l 199 105 q 101 271 132 166 q 90 500 71 376 l 100 574 q 237 886 130 771 q 493 1002 345 1002 q 711 882 635 1002 q 759 574 787 762 l 748 500 q 667 268 728 372 q 522 105 606 165 l 685 105 l 669 0 l 380 0 l 387 45 m 138 1044 l 276 1044 l 150 871 l 85 871 l 138 1044 z "},"ΐ":{"ha":399,"x_min":22,"x_max":477,"o":"m 294 733 l 214 194 q 216 113 204 134 q 256 92 227 92 q 283 96 271 92 q 314 106 296 99 l 321 12 q 267 -8 292 -3 q 210 -14 241 -14 q 95 37 132 -14 q 76 199 59 89 l 156 733 l 294 733 m 458 816 l 329 816 l 347 939 l 477 939 l 458 816 m 151 816 l 22 816 l 40 939 l 170 939 l 151 816 m 271 1120 l 414 1120 l 301 950 l 220 950 l 271 1120 z "},"Α":{"ha":764,"x_min":-33,"x_max":691,"o":"m 515 250 l 219 250 l 111 0 l -33 0 l 412 987 l 545 987 l 691 0 l 548 0 l 515 250 m 267 359 l 500 359 l 446 760 l 443 761 l 267 359 z "},"Β":{"ha":766,"x_min":40,"x_max":742,"o":"m 40 0 l 188 987 l 461 987 q 670 920 597 987 q 723 722 742 853 q 670 597 711 650 q 563 520 628 545 q 682 438 646 505 q 705 279 718 371 q 595 69 683 138 q 368 0 508 0 l 40 0 m 247 460 l 193 104 l 384 104 q 505 150 456 104 q 566 279 553 195 q 546 410 578 363 q 442 460 514 458 l 435 460 l 247 460 m 262 559 l 412 559 q 526 601 479 559 q 584 719 572 642 q 562 843 597 804 q 446 882 526 882 l 310 882 l 262 559 z "},"Γ":{"ha":668,"x_min":37,"x_max":721,"o":"m 705 882 l 307 882 l 175 0 l 37 0 l 184 987 l 721 987 l 705 882 z "},"Δ":{"ha":865,"x_min":-34,"x_max":786,"o":"m 464 987 l 597 987 l 786 0 l -34 0 l 464 987 m 160 104 l 625 104 l 503 792 l 499 793 l 160 104 z "},"∆":{"ha":865,"x_min":-34,"x_max":786,"o":"m 464 987 l 597 987 l 786 0 l -34 0 l 464 987 m 160 104 l 625 104 l 503 792 l 499 793 l 160 104 z "},"Ε":{"ha":671,"x_min":40,"x_max":717,"o":"m 581 458 l 246 458 l 193 104 l 588 104 l 572 0 l 40 0 l 188 987 l 717 987 l 701 882 l 309 882 l 262 564 l 597 564 l 581 458 z "},"Ζ":{"ha":682,"x_min":12,"x_max":679,"o":"m 172 104 l 597 104 l 582 0 l 14 0 l 12 85 l 504 882 l 127 882 l 142 987 l 679 987 l 667 905 l 172 104 z "},"Η":{"ha":850,"x_min":40,"x_max":850,"o":"m 702 0 l 564 0 l 629 435 l 243 435 l 178 0 l 40 0 l 188 987 l 326 987 l 258 541 l 645 541 l 712 987 l 850 987 l 702 0 z "},"Θ":{"ha":827,"x_min":39,"x_max":825,"o":"m 559 442 l 298 442 l 313 547 l 575 547 l 559 442 m 758 357 q 623 80 730 175 q 353 -14 515 -14 q 121 84 202 -14 q 66 357 39 183 l 106 629 q 240 906 134 811 q 505 1002 347 1002 q 742 902 659 1002 q 799 629 825 802 l 758 357 m 663 631 q 637 829 682 765 q 489 893 593 893 q 328 826 393 893 q 244 631 262 758 l 203 357 q 225 157 182 222 q 370 93 269 93 q 535 160 468 93 q 621 357 602 228 l 663 631 z "},"Ι":{"ha":351,"x_min":52,"x_max":338,"o":"m 190 0 l 52 0 l 200 987 l 338 987 l 190 0 z "},"Κ":{"ha":766,"x_min":33,"x_max":797,"o":"m 303 444 l 238 444 l 172 0 l 33 0 l 181 987 l 319 987 l 255 559 l 326 559 l 618 987 l 797 987 l 422 497 l 661 0 l 503 0 l 303 444 z "},"Λ":{"ha":787,"x_min":-28,"x_max":704,"o":"m 460 808 l 456 808 l 115 0 l -28 0 l 418 987 l 553 987 l 704 0 l 561 0 l 460 808 z "},"Μ":{"ha":1013,"x_min":36,"x_max":1017,"o":"m 479 182 l 483 182 l 840 987 l 1017 987 l 869 0 l 732 0 l 838 711 l 834 712 l 501 0 l 407 0 l 285 723 l 281 723 l 173 0 l 36 0 l 184 987 l 363 987 l 479 182 z "},"Ν":{"ha":851,"x_min":40,"x_max":850,"o":"m 703 0 l 564 0 l 290 728 l 286 728 l 178 0 l 40 0 l 188 987 l 326 987 l 600 261 l 604 262 l 712 987 l 850 987 l 703 0 z "},"Ξ":{"ha":688,"x_min":14,"x_max":703,"o":"m 30 104 l 588 104 l 572 0 l 14 0 l 30 104 m 155 554 l 595 554 l 579 451 l 140 451 l 155 554 m 169 987 l 703 987 l 688 882 l 153 882 l 169 987 z "},"Ο":{"ha":826,"x_min":39,"x_max":825,"o":"m 758 357 q 623 80 730 175 q 353 -14 515 -14 q 121 84 202 -14 q 66 357 39 183 l 106 629 q 240 906 134 811 q 505 1002 347 1002 q 742 902 659 1002 q 799 629 825 802 l 758 357 m 663 631 q 637 829 682 765 q 489 893 593 893 q 328 826 393 893 q 244 631 262 758 l 203 357 q 225 157 182 222 q 370 93 269 93 q 535 160 468 93 q 621 357 602 228 l 663 631 z "},"Π":{"ha":850,"x_min":39,"x_max":850,"o":"m 702 0 l 564 0 l 696 882 l 309 882 l 177 0 l 39 0 l 186 987 l 850 987 l 702 0 z "},"Ρ":{"ha":766,"x_min":40,"x_max":783,"o":"m 236 389 l 178 0 l 40 0 l 188 987 l 509 987 q 713 904 644 987 q 764 688 783 821 q 652 469 743 548 q 419 389 561 389 l 236 389 m 252 495 l 435 495 q 564 550 513 495 q 627 687 614 606 q 607 828 640 774 q 493 882 574 882 l 310 882 l 252 495 z "},"Σ":{"ha":688,"x_min":-9,"x_max":715,"o":"m 482 494 l 174 108 l 176 104 l 606 104 l 590 0 l -9 0 l 4 85 l 337 503 l 126 901 l 139 987 l 715 987 l 700 882 l 290 882 l 485 513 l 482 494 z "},"Τ":{"ha":709,"x_min":103,"x_max":779,"o":"m 763 882 l 500 882 l 369 0 l 231 0 l 362 882 l 103 882 l 119 987 l 779 987 l 763 882 z "},"Υ":{"ha":764,"x_min":113,"x_max":838,"o":"m 401 506 l 405 506 l 683 987 l 838 987 l 447 356 l 393 0 l 256 0 l 311 365 l 113 987 l 266 987 l 401 506 z "},"Φ":{"ha":868,"x_min":44,"x_max":867,"o":"m 578 838 q 789 733 712 830 q 845 489 867 635 q 719 241 822 335 q 473 140 616 146 l 452 0 l 314 0 l 335 140 q 122 244 199 146 q 66 488 44 341 q 192 736 89 642 q 439 838 296 831 l 462 987 l 600 987 l 578 838 m 202 488 q 224 317 185 378 q 348 253 263 255 l 352 254 l 422 724 l 418 725 q 277 656 337 722 q 202 488 217 591 m 709 489 q 686 660 724 598 q 565 725 648 722 l 561 724 l 491 255 l 494 254 q 633 321 574 256 q 709 489 692 385 z "},"Χ":{"ha":764,"x_min":-22,"x_max":821,"o":"m 416 602 l 420 602 l 659 987 l 821 987 l 486 498 l 684 0 l 519 0 l 391 394 l 387 395 l 141 0 l -22 0 l 321 498 l 132 987 l 294 987 l 416 602 z "},"Ψ":{"ha":855,"x_min":60,"x_max":893,"o":"m 489 345 l 492 344 q 626 426 570 355 q 699 614 682 497 l 755 987 l 893 987 l 838 614 q 713 341 810 439 q 471 229 616 243 l 437 0 l 300 0 l 334 230 q 130 346 200 245 q 86 614 60 448 l 142 987 l 279 987 l 224 614 q 238 424 205 493 q 347 344 272 355 l 351 344 l 448 987 l 585 987 l 489 345 z "},"Ω":{"ha":806,"x_min":22,"x_max":787,"o":"m 387 45 l 395 105 l 397 111 q 522 232 469 135 q 601 500 574 328 l 612 575 q 599 813 635 732 q 477 895 563 895 q 333 810 395 895 q 248 575 270 724 l 237 500 q 234 228 209 321 q 328 111 260 135 l 317 45 l 311 0 l 22 0 l 37 105 l 199 105 q 101 271 132 166 q 90 500 71 376 l 100 574 q 237 886 130 771 q 493 1002 345 1002 q 711 882 635 1002 q 759 574 787 762 l 748 500 q 667 268 728 372 q 522 105 606 165 l 685 105 l 669 0 l 380 0 l 387 45 z "},"Ω":{"ha":806,"x_min":22,"x_max":787,"o":"m 387 45 l 395 105 l 397 111 q 522 232 469 135 q 601 500 574 328 l 612 575 q 599 813 635 732 q 477 895 563 895 q 333 810 395 895 q 248 575 270 724 l 237 500 q 234 228 209 321 q 328 111 260 135 l 317 45 l 311 0 l 22 0 l 37 105 l 199 105 q 101 271 132 166 q 90 500 71 376 l 100 574 q 237 886 130 771 q 493 1002 345 1002 q 711 882 635 1002 q 759 574 787 762 l 748 500 q 667 268 728 372 q 522 105 606 165 l 685 105 l 669 0 l 380 0 l 387 45 z "},"Ϊ":{"ha":351,"x_min":52,"x_max":518,"o":"m 190 0 l 52 0 l 200 987 l 338 987 l 190 0 m 500 1097 l 359 1097 l 376 1222 l 518 1222 l 500 1097 m 205 1097 l 63 1097 l 81 1222 l 222 1222 l 205 1097 z "},"Ϋ":{"ha":764,"x_min":113,"x_max":838,"o":"m 401 506 l 405 506 l 683 987 l 838 987 l 447 356 l 393 0 l 256 0 l 311 365 l 113 987 l 266 987 l 401 506 m 707 1094 l 565 1094 l 583 1219 l 724 1219 l 707 1094 m 411 1094 l 269 1094 l 287 1219 l 429 1219 l 411 1094 z "},"ά":{"ha":684,"x_min":28,"x_max":650,"o":"m 650 733 l 569 191 q 569 116 561 136 q 600 96 577 96 q 614 97 607 96 q 627 101 621 98 l 627 4 q 588 -10 607 -6 q 548 -14 570 -14 q 470 9 500 -14 q 431 81 439 32 q 347 10 393 34 q 243 -14 300 -14 q 80 85 132 -14 q 52 344 28 184 l 54 358 q 161 644 81 541 q 359 747 240 747 q 452 721 413 747 q 515 645 491 694 l 555 733 l 650 733 m 190 344 q 196 157 172 224 q 294 90 220 90 q 369 113 335 90 q 429 176 404 136 l 431 191 l 486 554 q 446 618 472 595 q 377 642 419 642 q 259 562 308 642 q 192 358 210 481 l 190 344 m 448 1025 l 586 1025 l 460 852 l 395 852 l 448 1025 z "},"έ":{"ha":664,"x_min":22,"x_max":639,"o":"m 37 205 q 85 314 47 271 q 188 378 123 357 q 115 444 139 402 q 98 535 90 486 q 193 693 114 640 q 397 746 273 746 q 571 687 503 746 q 621 534 639 627 l 620 530 l 488 530 q 464 613 495 582 q 378 644 433 644 q 281 611 319 644 q 235 531 243 578 q 253 450 227 478 q 341 422 279 422 l 455 422 l 451 396 l 452 396 l 445 352 l 441 326 l 327 326 q 224 297 264 326 q 176 208 185 267 q 198 121 168 154 q 294 87 229 87 q 398 124 353 87 q 450 214 442 161 l 581 214 l 583 210 q 482 42 569 98 q 283 -13 395 -13 q 94 46 165 -13 q 37 205 22 104 m 417 1025 l 555 1025 l 429 851 l 364 851 l 417 1025 z "},"ή":{"ha":684,"x_min":24,"x_max":640,"o":"m 252 632 q 343 718 292 688 q 454 747 394 747 q 595 676 549 747 q 617 452 640 606 l 507 -281 l 369 -281 l 479 451 q 472 600 494 559 q 391 642 450 642 q 310 617 347 642 q 245 550 273 593 l 162 0 l 24 0 l 134 734 l 260 734 l 252 632 m 422 1025 l 559 1025 l 433 852 l 369 852 l 422 1025 z "},"ί":{"ha":399,"x_min":59,"x_max":392,"o":"m 294 733 l 214 194 q 216 113 204 134 q 256 92 227 92 q 283 96 271 92 q 314 106 296 99 l 321 12 q 267 -8 292 -3 q 210 -14 241 -14 q 95 37 132 -14 q 76 199 59 89 l 156 733 l 294 733 m 254 1010 l 392 1010 l 266 837 l 201 837 l 254 1010 z "},"ΰ":{"ha":684,"x_min":47,"x_max":652,"o":"m 273 734 l 211 321 q 219 143 192 196 q 307 90 246 90 q 425 174 376 90 q 490 373 473 257 q 498 554 502 464 q 479 734 495 644 l 615 734 q 639 571 634 659 q 628 373 644 483 q 520 89 600 193 q 296 -14 441 -14 q 109 69 171 -14 q 73 322 47 153 l 135 734 l 273 734 m 634 817 l 505 817 l 523 940 l 652 940 l 634 817 m 327 817 l 197 817 l 216 940 l 345 940 l 327 817 m 446 1120 l 589 1120 l 477 951 l 395 951 l 446 1120 z "},"α":{"ha":684,"x_min":28,"x_max":650,"o":"m 650 733 l 569 191 q 569 116 561 136 q 600 96 577 96 q 614 97 607 96 q 627 101 621 98 l 627 4 q 588 -10 607 -6 q 548 -14 570 -14 q 470 9 500 -14 q 431 81 439 32 q 347 10 393 34 q 243 -14 300 -14 q 80 85 132 -14 q 52 344 28 184 l 54 358 q 161 644 81 541 q 359 747 240 747 q 452 721 413 747 q 515 645 491 694 l 555 733 l 650 733 m 190 344 q 196 157 172 224 q 294 90 220 90 q 369 113 335 90 q 429 176 404 136 l 431 191 l 486 554 q 446 618 472 595 q 377 642 419 642 q 259 562 308 642 q 192 358 210 481 l 190 344 z "},"β":{"ha":722,"x_min":-1,"x_max":699,"o":"m 460 1002 q 636 928 574 1002 q 681 736 699 854 q 632 613 670 667 q 534 529 593 559 q 633 433 602 499 q 652 280 664 367 q 548 61 629 136 q 345 -14 466 -14 q 258 0 300 -14 q 183 44 215 15 l 136 -268 l -1 -268 l 146 717 q 255 922 165 842 q 460 1002 346 1002 m 349 573 l 393 573 q 493 616 455 573 q 543 734 531 659 q 528 849 553 802 q 444 896 503 896 q 342 845 389 896 q 284 717 295 793 l 199 151 q 254 106 219 122 q 336 90 290 90 q 451 142 402 90 q 513 279 500 195 q 497 418 526 365 q 404 471 469 471 l 334 471 l 342 529 l 346 549 l 349 573 z "},"γ":{"ha":613,"x_min":77,"x_max":649,"o":"m 507 734 l 649 734 l 327 26 l 281 -283 l 142 -283 l 189 25 l 77 734 l 221 734 l 274 220 l 277 162 l 281 162 l 302 220 l 507 734 z "},"δ":{"ha":684,"x_min":26,"x_max":658,"o":"m 658 987 l 642 884 l 384 884 l 382 880 l 541 696 q 622 561 595 645 q 633 375 648 476 l 631 357 q 513 86 605 186 q 286 -14 422 -14 q 91 89 155 -14 q 50 351 26 191 l 53 370 q 153 617 75 521 q 338 731 230 714 l 343 731 l 345 734 l 194 904 l 206 987 l 658 987 m 383 642 q 259 565 310 642 q 192 375 208 488 l 189 357 q 197 163 170 236 q 302 90 224 90 q 424 166 374 90 q 492 357 475 242 l 495 375 q 486 568 513 494 q 383 642 460 642 z "},"ε":{"ha":664,"x_min":22,"x_max":639,"o":"m 37 205 q 85 314 47 271 q 188 378 123 357 q 115 444 139 402 q 98 535 90 486 q 193 693 114 640 q 397 746 273 746 q 571 687 503 746 q 621 534 639 627 l 620 530 l 488 530 q 464 613 495 582 q 378 644 433 644 q 281 611 319 644 q 235 531 243 578 q 253 450 227 478 q 341 422 279 422 l 455 422 l 451 396 l 452 396 l 445 352 l 441 326 l 327 326 q 224 297 264 326 q 176 208 185 267 q 198 121 168 154 q 294 87 229 87 q 398 124 353 87 q 450 214 442 161 l 581 214 l 583 210 q 482 42 569 98 q 283 -13 395 -13 q 94 46 165 -13 q 37 205 22 104 z "},"ζ":{"ha":619,"x_min":60,"x_max":660,"o":"m 660 987 l 649 913 l 393 598 q 269 423 310 496 q 215 263 228 349 q 228 144 203 184 q 315 103 252 103 l 342 103 q 471 60 427 103 q 504 -62 515 17 q 434 -197 492 -138 q 299 -281 376 -256 l 262 -193 q 332 -144 301 -175 q 370 -71 363 -114 q 357 -18 375 -35 q 292 0 340 0 l 261 0 q 108 73 157 0 q 76 253 60 146 q 142 439 89 341 q 296 654 196 537 l 489 879 l 488 882 l 134 882 l 150 987 l 660 987 z "},"η":{"ha":684,"x_min":24,"x_max":640,"o":"m 252 632 q 343 718 292 688 q 454 747 394 747 q 595 676 549 747 q 617 452 640 606 l 507 -281 l 369 -281 l 479 451 q 472 600 494 559 q 391 642 450 642 q 310 617 347 642 q 245 550 273 593 l 162 0 l 24 0 l 134 734 l 260 734 l 252 632 z "},"θ":{"ha":703,"x_min":45,"x_max":718,"o":"m 651 351 q 532 80 624 175 q 307 -14 440 -14 q 112 85 179 -14 q 71 351 45 184 l 113 635 q 232 906 139 810 q 458 1002 324 1002 q 651 902 585 1002 q 694 635 718 802 l 651 351 m 238 545 l 540 545 l 557 655 q 544 833 574 771 q 441 896 514 896 q 322 831 372 896 q 255 655 271 766 l 238 545 m 525 441 l 223 441 l 207 332 q 219 153 189 216 q 322 90 250 90 q 441 156 391 90 q 509 332 492 221 l 525 441 z "},"ι":{"ha":399,"x_min":59,"x_max":321,"o":"m 294 733 l 214 194 q 216 113 204 134 q 256 92 227 92 q 283 96 271 92 q 314 106 296 99 l 321 12 q 267 -8 292 -3 q 210 -14 241 -14 q 95 37 132 -14 q 76 199 59 89 l 156 733 l 294 733 z "},"κ":{"ha":694,"x_min":33,"x_max":700,"o":"m 280 310 l 217 310 l 171 0 l 33 0 l 143 734 l 281 734 l 235 427 l 288 427 l 531 734 l 699 734 l 700 730 l 401 389 l 608 0 l 433 0 l 280 310 z "},"λ":{"ha":667,"x_min":-30,"x_max":623,"o":"m 120 0 l -30 0 l 302 713 l 283 805 q 255 890 275 857 q 202 924 235 924 q 183 922 196 924 q 163 920 171 921 l 176 1018 q 214 1026 195 1023 q 250 1029 232 1029 q 367 975 329 1029 q 418 847 406 920 l 535 210 q 554 131 540 161 q 594 100 569 101 q 606 100 601 99 q 623 102 611 100 l 602 0 q 573 -6 589 -4 q 544 -8 557 -9 q 440 45 474 -6 q 391 184 406 97 l 336 520 l 332 521 l 316 476 l 120 0 z "},"μ":{"ha":715,"x_min":-6,"x_max":675,"o":"m 283 734 l 216 290 q 224 131 201 171 q 304 91 248 91 q 395 118 357 91 q 458 196 433 145 l 538 734 l 675 734 l 565 0 l 439 0 l 444 58 q 374 4 412 22 q 289 -14 335 -14 q 225 -3 253 -14 q 178 32 197 7 l 131 -282 l -6 -282 l 146 734 l 283 734 z "},"ν":{"ha":612,"x_min":77,"x_max":649,"o":"m 274 220 l 277 163 l 281 162 l 302 220 l 507 734 l 649 734 l 315 0 l 193 0 l 77 734 l 221 734 l 274 220 z "},"ξ":{"ha":633,"x_min":32,"x_max":652,"o":"m 652 987 l 637 880 l 465 880 q 358 833 399 874 q 309 731 317 792 q 330 630 298 665 q 444 595 362 595 l 528 595 l 516 516 l 512 489 l 429 489 q 269 436 332 489 q 191 279 205 382 q 213 144 177 193 q 326 95 248 95 l 379 95 q 510 51 465 95 q 544 -73 555 7 q 475 -209 532 -152 q 340 -292 419 -265 l 307 -208 q 377 -160 345 -189 q 415 -87 408 -131 q 404 -30 420 -50 q 345 -10 387 -10 l 306 -10 q 104 68 177 -10 q 52 282 32 146 q 125 450 67 385 q 278 545 183 516 q 189 616 218 570 q 168 720 159 663 q 202 815 176 775 q 269 880 227 854 l 144 880 l 160 987 l 652 987 z "},"ο":{"ha":684,"x_min":26,"x_max":657,"o":"m 54 375 q 171 646 79 545 q 399 747 262 747 q 593 642 528 747 q 633 375 657 536 l 631 357 q 513 86 605 186 q 286 -14 422 -14 q 91 90 155 -14 q 51 357 26 195 l 54 375 m 189 357 q 197 163 170 236 q 302 90 224 90 q 424 166 374 90 q 492 357 475 242 l 495 375 q 486 568 513 494 q 383 642 460 642 q 259 565 310 642 q 192 375 208 488 l 189 357 z "},"π":{"ha":752,"x_min":89,"x_max":743,"o":"m 728 631 l 686 631 l 621 194 q 623 113 612 134 q 663 92 635 92 q 691 96 678 92 q 722 106 704 99 l 728 12 q 674 -8 700 -3 q 617 -14 648 -14 q 503 37 539 -14 q 484 199 467 89 l 548 631 l 321 631 l 227 0 l 89 0 l 183 631 l 92 631 l 106 734 l 743 734 l 728 631 z "},"ρ":{"ha":684,"x_min":-17,"x_max":654,"o":"m 626 344 q 523 80 600 175 q 328 -14 446 -14 q 237 7 276 -14 q 174 68 199 28 l 121 -282 l -17 -282 l 85 397 l 86 397 l 85 399 q 198 658 110 568 q 412 747 287 747 q 596 640 538 747 q 628 358 654 532 l 626 344 m 490 358 q 487 565 509 489 q 392 642 465 642 q 283 565 329 642 q 222 391 237 489 l 190 176 q 231 112 203 134 q 307 90 260 90 q 423 160 376 90 q 488 344 470 231 l 490 358 z "},"ς":{"ha":637,"x_min":28,"x_max":623,"o":"m 393 747 q 562 675 501 747 q 604 477 623 602 l 474 477 q 461 598 486 555 q 377 642 437 642 q 256 565 305 642 q 192 379 208 488 l 188 353 q 205 179 172 244 q 330 99 239 113 q 476 46 432 83 q 508 -71 519 8 q 438 -204 496 -146 q 303 -288 380 -261 l 267 -199 q 336 -152 306 -181 q 374 -79 367 -122 q 358 -27 378 -45 q 287 -1 337 -10 q 87 110 146 18 q 51 353 28 202 l 55 379 q 169 646 79 544 q 393 747 258 747 z "},"σ":{"ha":688,"x_min":26,"x_max":729,"o":"m 713 627 l 548 627 q 616 509 595 581 q 625 354 637 438 l 623 336 q 509 84 600 182 q 286 -14 418 -14 q 91 90 155 -14 q 51 357 26 195 l 54 375 q 169 636 78 538 q 396 734 260 734 l 729 734 l 713 627 m 189 357 q 196 163 170 236 q 301 90 223 90 q 420 166 371 90 q 488 357 470 242 l 490 375 q 481 558 507 488 q 380 627 455 627 q 257 555 308 627 q 191 375 207 482 l 189 357 z "},"τ":{"ha":633,"x_min":82,"x_max":648,"o":"m 632 629 l 425 629 l 330 0 l 192 0 l 286 629 l 82 629 l 98 734 l 648 734 l 632 629 z "},"υ":{"ha":684,"x_min":47,"x_max":644,"o":"m 273 734 l 211 321 q 219 143 192 196 q 307 90 246 90 q 425 174 376 90 q 490 373 473 257 q 498 554 502 464 q 479 734 495 644 l 615 734 q 639 571 634 659 q 628 373 644 483 q 520 89 600 193 q 296 -14 441 -14 q 109 69 171 -14 q 73 322 47 153 l 135 734 l 273 734 z "},"φ":{"ha":875,"x_min":25,"x_max":848,"o":"m 557 734 l 463 104 l 467 102 q 615 191 559 119 q 686 358 671 262 q 665 549 702 470 q 542 628 628 628 l 557 728 l 561 729 q 773 623 697 732 q 825 358 848 514 q 708 106 801 205 q 446 -11 616 6 l 399 -324 l 260 -324 l 307 -9 q 88 120 151 12 q 49 385 25 229 q 97 576 65 495 q 174 734 129 658 l 309 734 q 232 558 264 645 q 186 385 201 472 q 200 198 170 274 q 321 104 231 121 l 325 104 l 419 734 l 557 734 z "},"χ":{"ha":667,"x_min":-39,"x_max":682,"o":"m 165 743 q 283 689 244 743 q 336 564 321 635 l 363 429 l 368 428 l 543 734 l 682 734 l 402 245 l 469 -73 q 491 -152 478 -123 q 528 -182 504 -180 q 543 -182 537 -182 q 558 -181 549 -182 l 536 -284 q 508 -290 524 -288 q 478 -292 492 -292 q 381 -240 413 -290 q 334 -99 349 -191 l 301 60 l 297 61 l 101 -281 l -39 -281 l 262 244 l 204 522 q 174 606 195 574 q 119 638 153 638 q 104 637 113 638 q 79 634 95 636 l 92 732 q 128 740 109 736 q 165 743 147 743 z "},"ψ":{"ha":871,"x_min":30,"x_max":842,"o":"m 554 733 l 460 106 l 463 104 q 614 204 556 123 q 688 393 671 285 q 694 562 699 477 q 671 734 688 647 l 805 734 q 834 580 827 663 q 827 393 842 496 q 708 114 801 221 q 442 -11 615 6 l 397 -313 l 259 -313 l 304 -9 q 97 113 164 11 q 58 401 30 216 l 108 734 l 246 734 l 197 400 q 209 189 175 260 q 317 104 243 118 l 321 105 l 416 733 l 554 733 z "},"ω":{"ha":1031,"x_min":37,"x_max":988,"o":"m 342 734 q 252 553 289 642 q 201 373 216 463 q 198 168 181 245 q 279 95 215 92 l 283 94 q 377 148 334 91 q 438 325 420 204 l 470 536 l 613 536 l 581 325 q 587 144 562 198 q 668 95 612 91 l 672 94 q 773 171 730 91 q 834 373 815 250 q 835 554 845 465 q 799 734 825 644 l 936 734 q 977 571 965 659 q 972 373 988 483 q 868 89 944 193 q 659 -14 793 -14 q 546 24 591 -14 q 483 137 500 62 q 388 23 445 60 q 259 -14 331 -14 q 84 94 131 -14 q 63 373 37 202 q 116 572 80 488 q 205 734 153 656 l 342 734 z "},"ϊ":{"ha":399,"x_min":28,"x_max":483,"o":"m 294 733 l 214 194 q 216 113 204 134 q 256 92 227 92 q 283 96 271 92 q 314 106 296 99 l 321 12 q 267 -8 292 -3 q 210 -14 241 -14 q 95 37 132 -14 q 76 199 59 89 l 156 733 l 294 733 m 465 863 l 323 863 l 341 989 l 483 989 l 465 863 m 170 863 l 28 863 l 45 989 l 187 989 l 170 863 z "},"ϋ":{"ha":684,"x_min":47,"x_max":659,"o":"m 273 734 l 211 321 q 219 143 192 196 q 307 90 246 90 q 425 174 376 90 q 490 373 473 257 q 498 554 502 464 q 479 734 495 644 l 615 734 q 639 571 634 659 q 628 373 644 483 q 520 89 600 193 q 296 -14 441 -14 q 109 69 171 -14 q 73 322 47 153 l 135 734 l 273 734 m 641 864 l 499 864 l 517 989 l 659 989 l 641 864 m 345 864 l 203 864 l 221 989 l 363 989 l 345 864 z "},"ό":{"ha":684,"x_min":26,"x_max":657,"o":"m 54 375 q 171 646 79 545 q 399 747 262 747 q 593 642 528 747 q 633 375 657 536 l 631 357 q 513 86 605 186 q 286 -14 422 -14 q 91 90 155 -14 q 51 357 26 195 l 54 375 m 189 357 q 197 163 170 236 q 302 90 224 90 q 424 166 374 90 q 492 357 475 242 l 495 375 q 486 568 513 494 q 383 642 460 642 q 259 565 310 642 q 192 375 208 488 l 189 357 m 424 1025 l 562 1025 l 435 852 l 371 852 l 424 1025 z "},"ύ":{"ha":684,"x_min":47,"x_max":644,"o":"m 273 734 l 211 321 q 219 143 192 196 q 307 90 246 90 q 425 174 376 90 q 490 373 473 257 q 498 554 502 464 q 479 734 495 644 l 615 734 q 639 571 634 659 q 628 373 644 483 q 520 89 600 193 q 296 -14 441 -14 q 109 69 171 -14 q 73 322 47 153 l 135 734 l 273 734 m 431 1011 l 568 1011 l 442 838 l 378 838 l 431 1011 z "},"ώ":{"ha":1031,"x_min":37,"x_max":988,"o":"m 342 734 q 252 553 289 642 q 201 373 216 463 q 198 168 181 245 q 279 95 215 92 l 283 94 q 377 148 334 91 q 438 325 420 204 l 470 536 l 613 536 l 581 325 q 587 144 562 198 q 668 95 612 91 l 672 94 q 773 171 730 91 q 834 373 815 250 q 835 554 845 465 q 799 734 825 644 l 936 734 q 977 571 965 659 q 972 373 988 483 q 868 89 944 193 q 659 -14 793 -14 q 546 24 591 -14 q 483 137 500 62 q 388 23 445 60 q 259 -14 331 -14 q 84 94 131 -14 q 63 373 37 202 q 116 572 80 488 q 205 734 153 656 l 342 734 m 594 1011 l 732 1011 l 606 838 l 541 838 l 594 1011 z "},"ϑ":{"ha":785,"x_min":50,"x_max":807,"o":"m 366 688 l 373 739 q 462 929 391 857 q 623 1002 534 1002 q 763 934 719 1002 q 788 739 807 866 l 734 382 q 598 94 707 202 q 346 -14 489 -14 q 124 94 197 -14 q 77 382 50 202 l 148 849 l 290 850 l 220 382 q 240 175 201 255 q 362 94 280 94 q 511 168 451 94 q 593 382 571 241 l 593 388 q 410 477 473 396 q 366 688 346 559 l 366 688 m 648 745 q 646 852 658 816 q 604 884 634 888 l 600 885 q 543 853 568 888 q 508 745 519 819 l 499 687 q 516 556 487 609 q 606 497 546 503 l 610 498 l 648 745 z "},"ϒ":{"ha":678,"x_min":84,"x_max":778,"o":"m 518 832 q 610 960 564 923 q 719 998 656 998 q 750 994 735 998 q 778 981 766 989 l 749 880 q 737 885 745 882 q 722 887 729 887 q 680 870 700 887 q 644 813 661 852 l 408 376 l 352 0 l 215 0 l 272 380 l 168 813 q 149 870 163 853 q 113 887 134 887 q 96 885 105 887 q 84 880 86 882 l 86 981 q 116 994 100 989 q 150 998 132 998 q 245 960 210 998 q 299 833 281 923 l 355 557 l 358 509 l 362 508 l 381 557 l 518 832 z "},"ϖ":{"ha":973,"x_min":41,"x_max":1009,"o":"m 995 637 l 909 637 q 922 514 920 579 q 913 373 924 448 q 815 89 885 193 q 625 -14 745 -14 q 516 23 559 -14 q 455 134 472 60 q 363 22 418 59 q 239 -14 308 -14 q 83 94 124 -14 q 67 373 41 203 q 99 515 78 450 q 149 637 120 580 l 72 637 l 86 734 l 1009 734 l 995 637 m 774 373 q 781 505 783 439 q 768 637 779 570 l 291 637 q 238 506 260 572 q 205 373 216 439 q 197 169 185 245 q 258 96 208 92 l 262 95 q 352 148 311 91 q 411 325 393 204 l 435 490 l 578 490 l 554 325 q 557 144 534 198 q 633 95 580 91 l 637 95 q 720 171 684 92 q 774 373 755 250 z "},"Ѐ":{"ha":671,"x_min":40,"x_max":717,"o":"m 581 458 l 246 458 l 193 104 l 588 104 l 572 0 l 40 0 l 188 987 l 717 987 l 701 882 l 309 882 l 262 564 l 597 564 l 581 458 m 530 1086 l 410 1086 l 275 1267 l 439 1267 l 530 1086 z "},"Ё":{"ha":671,"x_min":40,"x_max":717,"o":"m 581 458 l 246 458 l 193 104 l 588 104 l 572 0 l 40 0 l 188 987 l 717 987 l 701 882 l 309 882 l 262 564 l 597 564 l 581 458 m 685 1097 l 543 1097 l 561 1222 l 703 1222 l 685 1097 m 389 1097 l 248 1097 l 265 1222 l 407 1222 l 389 1097 z "},"Ђ":{"ha":908,"x_min":117,"x_max":943,"o":"m 777 882 l 514 882 l 382 0 l 244 0 l 376 882 l 117 882 l 132 987 l 792 987 l 777 882 m 475 599 l 643 599 q 864 515 785 599 q 920 277 943 431 q 837 95 907 187 q 654 -25 767 2 l 620 67 q 731 148 690 92 q 783 277 772 204 q 756 437 798 385 q 627 490 714 490 l 459 490 l 475 599 z "},"Ѓ":{"ha":668,"x_min":37,"x_max":721,"o":"m 705 882 l 307 882 l 175 0 l 37 0 l 184 987 l 721 987 l 705 882 m 539 1264 l 697 1264 l 699 1260 l 509 1084 l 399 1084 l 397 1087 l 539 1264 z "},"Є":{"ha":787,"x_min":53,"x_max":801,"o":"m 713 298 l 715 294 q 600 64 694 142 q 356 -14 505 -14 q 131 85 210 -14 q 79 357 53 183 l 121 631 q 250 907 148 812 q 504 1002 352 1002 q 725 923 650 1002 q 776 694 801 844 l 774 691 l 642 691 q 620 849 658 802 q 488 897 581 897 q 338 828 400 897 q 258 633 277 759 l 246 551 l 534 551 l 518 446 l 231 446 l 217 357 q 237 157 197 222 q 372 91 277 91 q 511 141 458 91 q 582 298 565 191 l 713 298 z "},"Ѕ":{"ha":742,"x_min":25,"x_max":748,"o":"m 528 248 q 506 361 538 319 q 381 439 474 403 q 184 551 249 483 q 137 734 120 620 q 248 928 155 855 q 471 1002 341 1002 q 675 917 603 1002 q 726 706 748 831 l 725 703 l 592 703 q 568 845 606 793 q 454 897 530 897 q 334 850 383 897 q 276 735 286 804 q 302 628 266 669 q 435 549 338 587 q 623 434 563 505 q 665 250 682 363 q 554 55 646 124 q 325 -14 461 -14 q 112 64 199 -14 q 50 286 25 142 l 52 289 l 185 289 q 215 137 170 184 q 340 90 260 90 q 465 133 414 90 q 528 248 517 177 z "},"І":{"ha":351,"x_min":52,"x_max":338,"o":"m 190 0 l 52 0 l 200 987 l 338 987 l 190 0 z "},"Ї":{"ha":351,"x_min":52,"x_max":518,"o":"m 190 0 l 52 0 l 200 987 l 338 987 l 190 0 m 500 1097 l 359 1097 l 376 1222 l 518 1222 l 500 1097 m 205 1097 l 63 1097 l 81 1222 l 222 1222 l 205 1097 z "},"Ј":{"ha":668,"x_min":1,"x_max":669,"o":"m 531 987 l 669 987 l 566 292 q 458 66 543 146 q 253 -14 372 -14 q 66 61 131 -14 q 22 278 1 136 l 160 278 q 174 135 144 179 q 269 90 203 90 q 368 145 323 90 q 427 292 413 200 l 531 987 z "},"Љ":{"ha":1284,"x_min":-23,"x_max":1246,"o":"m 850 987 l 792 603 l 970 603 q 1175 518 1104 603 q 1227 302 1246 433 q 1113 81 1205 163 q 880 0 1021 0 l 564 0 l 695 882 l 433 882 l 380 534 q 247 126 336 253 q 4 0 157 0 l -23 0 l -7 104 l 16 104 q 153 200 102 104 q 241 534 204 296 l 311 987 l 850 987 m 777 498 l 718 104 l 895 104 q 1024 162 972 104 q 1089 303 1076 220 q 1068 443 1101 387 q 954 498 1035 498 l 777 498 z "},"Њ":{"ha":1283,"x_min":39,"x_max":1244,"o":"m 259 552 l 646 552 l 711 987 l 849 987 l 788 584 l 966 584 q 1173 503 1101 584 q 1225 294 1244 421 q 1113 79 1205 159 q 879 0 1021 0 l 564 0 l 630 447 l 243 447 l 177 0 l 39 0 l 186 987 l 325 987 l 259 552 m 772 479 l 718 109 l 895 109 q 1024 162 972 109 q 1088 295 1076 216 q 1066 427 1100 375 q 951 479 1032 479 l 772 479 z "},"Ћ":{"ha":970,"x_min":127,"x_max":907,"o":"m 787 882 l 525 882 l 490 649 l 629 649 q 838 571 770 649 q 882 329 907 493 l 833 0 l 694 0 l 744 329 q 731 497 762 451 q 612 544 700 544 l 475 544 l 393 0 l 255 0 l 387 882 l 127 882 l 143 987 l 803 987 l 787 882 z "},"Ќ":{"ha":766,"x_min":33,"x_max":797,"o":"m 303 444 l 238 444 l 172 0 l 33 0 l 181 987 l 319 987 l 255 559 l 326 559 l 618 987 l 797 987 l 422 497 l 661 0 l 503 0 l 303 444 m 527 1204 l 685 1204 l 686 1200 l 497 1024 l 387 1024 l 385 1027 l 527 1204 z "},"Ѝ":{"ha":846,"x_min":37,"x_max":848,"o":"m 710 987 l 848 987 l 701 0 l 562 0 l 670 723 l 666 724 l 175 0 l 37 0 l 185 987 l 323 987 l 214 264 l 218 262 l 710 987 m 594 1086 l 474 1086 l 339 1267 l 503 1267 l 594 1086 z "},"Ў":{"ha":771,"x_min":24,"x_max":831,"o":"m 378 500 l 391 426 l 395 425 l 680 987 l 831 987 l 397 172 q 291 36 347 85 q 144 -14 234 -14 q 78 -6 109 -14 q 24 14 47 1 l 56 111 q 99 96 75 102 q 144 90 123 90 q 225 121 191 90 q 283 203 258 152 l 311 258 l 123 987 l 274 987 l 378 500 m 703 1270 l 705 1265 q 637 1134 696 1182 q 488 1085 578 1085 q 354 1136 401 1085 q 321 1266 307 1187 l 322 1270 l 426 1270 q 436 1195 419 1223 q 499 1168 453 1168 q 567 1197 541 1168 q 600 1270 593 1225 l 703 1270 z "},"Џ":{"ha":846,"x_min":35,"x_max":846,"o":"m 182 987 l 321 987 l 189 104 l 575 104 l 707 987 l 846 987 l 698 0 l 441 0 l 405 -241 l 267 -241 l 302 0 l 35 0 l 182 987 z "},"А":{"ha":764,"x_min":-33,"x_max":691,"o":"m 515 250 l 219 250 l 111 0 l -33 0 l 412 987 l 545 987 l 691 0 l 548 0 l 515 250 m 267 359 l 500 359 l 446 760 l 443 761 l 267 359 z "},"Б":{"ha":760,"x_min":37,"x_max":721,"o":"m 705 882 l 307 882 l 264 600 l 443 600 q 649 516 578 600 q 701 302 720 433 q 587 81 679 163 q 353 0 494 0 l 37 0 l 184 987 l 721 987 l 705 882 m 249 494 l 191 104 l 368 104 q 498 162 446 104 q 563 303 550 220 q 542 440 575 386 q 427 494 508 494 l 249 494 z "},"В":{"ha":766,"x_min":40,"x_max":742,"o":"m 40 0 l 188 987 l 461 987 q 670 920 597 987 q 723 722 742 853 q 670 597 711 650 q 563 520 628 545 q 682 438 646 505 q 705 279 718 371 q 595 69 683 138 q 368 0 508 0 l 40 0 m 247 460 l 193 104 l 384 104 q 505 150 456 104 q 566 279 553 195 q 546 410 578 363 q 442 460 514 458 l 435 460 l 247 460 m 262 559 l 412 559 q 526 601 479 559 q 584 719 572 642 q 562 843 597 804 q 446 882 526 882 l 310 882 l 262 559 z "},"Г":{"ha":668,"x_min":37,"x_max":721,"o":"m 705 882 l 307 882 l 175 0 l 37 0 l 184 987 l 721 987 l 705 882 z "},"Д":{"ha":890,"x_min":-66,"x_max":859,"o":"m 781 -241 l 642 -241 l 678 0 l 107 0 l 71 -241 l -66 -241 l -15 104 l 37 104 q 162 230 107 104 q 265 604 218 355 l 342 987 l 859 987 l 726 104 l 832 104 l 781 -241 m 404 604 q 323 305 370 431 q 218 104 277 179 l 588 104 l 704 882 l 458 882 l 404 604 z "},"Е":{"ha":671,"x_min":40,"x_max":717,"o":"m 581 458 l 246 458 l 193 104 l 588 104 l 572 0 l 40 0 l 188 987 l 717 987 l 701 882 l 309 882 l 262 564 l 597 564 l 581 458 z "},"Ж":{"ha":1045,"x_min":-41,"x_max":1105,"o":"m 649 448 l 607 448 l 540 0 l 402 0 l 469 448 l 423 448 l 132 0 l -41 0 l 325 529 l 125 987 l 293 987 l 444 559 l 486 559 l 550 987 l 688 987 l 623 559 l 663 559 l 939 987 l 1105 987 l 771 530 l 977 0 l 804 0 l 649 448 z "},"З":{"ha":803,"x_min":31,"x_max":791,"o":"m 316 555 l 427 555 q 569 601 516 555 q 635 724 623 646 q 605 849 646 802 q 469 896 564 896 q 338 848 397 896 q 269 726 279 800 l 137 726 l 136 730 q 251 929 151 857 q 486 1002 351 1002 q 712 928 632 1002 q 772 722 791 855 q 712 592 760 649 q 587 505 663 535 q 696 416 661 475 q 718 273 730 357 q 592 59 696 133 q 333 -14 488 -14 q 118 59 205 -14 q 54 270 31 132 l 56 274 l 189 274 q 220 141 176 192 q 349 90 265 90 q 504 140 440 90 q 580 271 567 191 q 552 409 594 367 q 411 451 509 451 l 300 451 l 304 475 l 311 522 l 312 529 l 316 555 z "},"И":{"ha":846,"x_min":37,"x_max":848,"o":"m 710 987 l 848 987 l 701 0 l 562 0 l 670 723 l 666 724 l 175 0 l 37 0 l 185 987 l 323 987 l 214 264 l 218 262 l 710 987 z "},"Й":{"ha":846,"x_min":37,"x_max":848,"o":"m 710 987 l 848 987 l 701 0 l 562 0 l 670 723 l 666 724 l 175 0 l 37 0 l 185 987 l 323 987 l 214 264 l 218 262 l 710 987 m 744 1270 l 745 1265 q 677 1134 736 1182 q 528 1085 618 1085 q 394 1136 441 1085 q 361 1266 347 1187 l 363 1270 l 467 1270 q 477 1195 460 1223 q 540 1168 494 1168 q 608 1197 582 1168 q 640 1270 634 1225 l 744 1270 z "},"К":{"ha":766,"x_min":33,"x_max":797,"o":"m 303 444 l 238 444 l 172 0 l 33 0 l 181 987 l 319 987 l 255 559 l 326 559 l 618 987 l 797 987 l 422 497 l 661 0 l 503 0 l 303 444 z "},"Л":{"ha":849,"x_min":-24,"x_max":850,"o":"m 850 987 l 702 0 l 564 0 l 695 882 l 416 882 l 362 534 q 234 126 319 253 q 3 0 149 0 l -24 0 l -8 104 l 15 104 q 140 199 94 104 q 224 534 187 294 l 294 987 l 850 987 z "},"М":{"ha":1013,"x_min":36,"x_max":1017,"o":"m 479 182 l 483 182 l 840 987 l 1017 987 l 869 0 l 732 0 l 838 711 l 834 712 l 501 0 l 407 0 l 285 723 l 281 723 l 173 0 l 36 0 l 184 987 l 363 987 l 479 182 z "},"Н":{"ha":850,"x_min":40,"x_max":850,"o":"m 702 0 l 564 0 l 629 435 l 243 435 l 178 0 l 40 0 l 188 987 l 326 987 l 258 541 l 645 541 l 712 987 l 850 987 l 702 0 z "},"О":{"ha":826,"x_min":39,"x_max":825,"o":"m 758 357 q 623 80 730 175 q 353 -14 515 -14 q 121 84 202 -14 q 66 357 39 183 l 106 629 q 240 906 134 811 q 505 1002 347 1002 q 742 902 659 1002 q 799 629 825 802 l 758 357 m 663 631 q 637 829 682 765 q 489 893 593 893 q 328 826 393 893 q 244 631 262 758 l 203 357 q 225 157 182 222 q 370 93 269 93 q 535 160 468 93 q 621 357 602 228 l 663 631 z "},"П":{"ha":850,"x_min":39,"x_max":850,"o":"m 702 0 l 564 0 l 696 882 l 309 882 l 177 0 l 39 0 l 186 987 l 850 987 l 702 0 z "},"Р":{"ha":766,"x_min":40,"x_max":783,"o":"m 236 389 l 178 0 l 40 0 l 188 987 l 509 987 q 713 904 644 987 q 764 688 783 821 q 652 469 743 548 q 419 389 561 389 l 236 389 m 252 495 l 435 495 q 564 550 513 495 q 627 687 614 606 q 607 828 640 774 q 493 882 574 882 l 310 882 l 252 495 z "},"С":{"ha":768,"x_min":41,"x_max":789,"o":"m 702 297 l 703 293 q 588 63 683 141 q 345 -14 494 -14 q 120 84 198 -14 q 68 356 41 182 l 109 630 q 238 907 136 812 q 492 1002 340 1002 q 714 922 638 1002 q 764 694 789 843 l 763 690 l 630 690 q 608 848 646 801 q 476 896 570 896 q 327 827 389 896 q 247 632 265 758 l 205 356 q 225 156 185 222 q 360 90 266 90 q 500 140 446 90 q 570 297 553 190 l 702 297 z "},"Т":{"ha":709,"x_min":103,"x_max":779,"o":"m 763 882 l 500 882 l 369 0 l 231 0 l 362 882 l 103 882 l 119 987 l 779 987 l 763 882 z "},"У":{"ha":771,"x_min":24,"x_max":831,"o":"m 378 500 l 391 426 l 395 425 l 680 987 l 831 987 l 397 172 q 291 36 347 85 q 144 -14 234 -14 q 78 -6 109 -14 q 24 14 47 1 l 56 111 q 99 96 75 102 q 144 90 123 90 q 225 121 191 90 q 283 203 258 152 l 311 258 l 123 987 l 274 987 l 378 500 z "},"Ф":{"ha":868,"x_min":44,"x_max":867,"o":"m 578 838 q 789 733 712 830 q 845 489 867 635 q 719 241 822 335 q 473 140 616 146 l 452 0 l 314 0 l 335 140 q 122 244 199 146 q 66 488 44 341 q 192 736 89 642 q 439 838 296 831 l 462 987 l 600 987 l 578 838 m 202 488 q 224 317 185 378 q 348 253 263 255 l 352 254 l 422 724 l 418 725 q 277 656 337 722 q 202 488 217 591 m 709 489 q 686 660 724 598 q 565 725 648 722 l 561 724 l 491 255 l 494 254 q 633 321 574 256 q 709 489 692 385 z "},"Х":{"ha":764,"x_min":-22,"x_max":821,"o":"m 416 602 l 420 602 l 659 987 l 821 987 l 486 498 l 684 0 l 519 0 l 391 394 l 387 395 l 141 0 l -22 0 l 321 498 l 132 987 l 294 987 l 416 602 z "},"Ц":{"ha":907,"x_min":161,"x_max":972,"o":"m 309 987 l 446 987 l 314 106 l 682 106 l 683 111 l 702 111 l 833 987 l 972 987 l 824 0 l 804 0 l 767 -242 l 629 -242 l 666 0 l 161 0 l 309 987 z "},"Ч":{"ha":828,"x_min":115,"x_max":828,"o":"m 828 987 l 680 0 l 543 0 l 604 415 q 504 391 556 399 q 399 383 452 383 q 185 458 256 383 q 139 693 115 532 l 183 987 l 321 987 l 277 693 q 292 532 259 575 q 414 488 326 488 q 515 497 460 488 q 621 520 571 505 l 690 987 l 828 987 z "},"Ш":{"ha":1232,"x_min":36,"x_max":1240,"o":"m 322 987 l 190 104 l 512 104 l 644 987 l 782 987 l 650 104 l 969 104 l 1101 987 l 1240 987 l 1092 0 l 36 0 l 184 987 l 322 987 z "},"Щ":{"ha":1296,"x_min":36,"x_max":1240,"o":"m 322 987 l 190 104 l 512 104 l 644 987 l 782 987 l 650 104 l 969 104 l 1101 987 l 1240 987 l 1107 106 l 1220 106 l 1168 -240 l 1030 -240 l 1066 0 l 36 0 l 184 987 l 322 987 z "},"Ъ":{"ha":869,"x_min":83,"x_max":830,"o":"m 99 987 l 433 987 l 375 600 l 553 600 q 759 516 688 600 q 811 302 830 433 q 697 81 789 163 q 463 0 605 0 l 147 0 l 279 882 l 83 882 l 99 987 m 359 494 l 301 104 l 479 104 q 608 162 556 104 q 673 303 661 220 q 652 440 686 386 q 537 494 618 494 l 359 494 z "},"Ы":{"ha":1034,"x_min":37,"x_max":1150,"o":"m 264 600 l 443 600 q 649 516 578 600 q 701 302 720 433 q 587 81 679 163 q 353 0 494 0 l 37 0 l 184 987 l 323 987 l 264 600 m 1002 0 l 865 0 l 1013 987 l 1150 987 l 1002 0 m 249 494 l 191 104 l 368 104 q 498 162 446 104 q 563 303 550 220 q 542 440 575 386 q 427 494 508 494 l 249 494 z "},"Ь":{"ha":756,"x_min":37,"x_max":720,"o":"m 264 600 l 443 600 q 649 516 578 600 q 701 302 720 433 q 587 81 679 163 q 353 0 494 0 l 37 0 l 184 987 l 323 987 l 264 600 m 249 494 l 191 104 l 368 104 q 498 162 446 104 q 563 303 550 220 q 542 440 575 386 q 427 494 508 494 l 249 494 z "},"Э":{"ha":785,"x_min":50,"x_max":781,"o":"m 132 671 l 130 675 q 247 915 151 828 q 491 1002 344 1002 q 706 883 631 1002 q 753 582 781 764 l 727 406 q 591 100 698 214 q 338 -14 485 -14 q 123 74 197 -14 q 75 313 50 161 l 77 316 l 211 316 q 229 146 193 202 q 354 91 264 91 q 503 180 437 91 q 589 404 568 269 l 597 456 l 299 456 l 315 561 l 612 561 l 616 582 q 600 811 637 725 q 475 897 563 897 q 335 838 390 897 q 264 671 280 780 l 132 671 z "},"Ю":{"ha":1109,"x_min":52,"x_max":1150,"o":"m 1084 357 q 948 80 1056 175 q 679 -14 841 -14 q 446 84 528 -14 q 391 357 365 183 l 402 431 l 254 431 l 190 0 l 52 0 l 200 987 l 338 987 l 270 536 l 418 536 l 432 629 q 566 906 459 811 q 831 1002 672 1002 q 1067 902 985 1002 q 1124 629 1150 802 l 1084 357 m 988 631 q 963 829 1008 765 q 814 893 918 893 q 653 826 719 893 q 570 631 588 758 l 528 357 q 551 157 507 222 q 695 93 595 93 q 860 160 793 93 q 947 357 927 228 l 988 631 z "},"Я":{"ha":713,"x_min":-45,"x_max":730,"o":"m 103 0 l -45 0 l 216 452 q 116 548 146 487 q 100 701 87 610 q 216 911 121 836 q 448 987 311 987 l 730 987 l 582 0 l 444 0 l 505 410 l 336 410 l 103 0 m 576 882 l 433 882 q 300 835 349 882 q 239 699 252 788 q 262 565 226 616 q 374 513 298 513 l 520 513 l 576 882 z "},"а":{"ha":656,"x_min":12,"x_max":616,"o":"m 406 0 q 401 58 402 31 q 403 112 400 85 q 312 22 366 58 q 198 -14 259 -14 q 58 44 104 -14 q 27 203 12 103 q 124 369 43 311 q 336 427 205 427 l 449 427 l 460 502 q 447 608 471 572 q 367 644 423 644 q 283 611 319 644 q 240 528 248 578 l 109 528 l 108 532 q 196 684 117 620 q 391 747 275 747 q 556 683 496 747 q 599 500 616 618 l 547 160 q 540 78 541 117 q 546 0 540 39 l 406 0 m 242 92 q 346 127 296 92 q 417 212 395 163 l 436 341 l 321 341 q 217 300 260 341 q 165 203 174 259 q 177 121 157 151 q 242 92 197 92 z "},"б":{"ha":673,"x_min":26,"x_max":714,"o":"m 416 747 q 597 642 538 747 q 633 375 657 536 l 631 357 q 513 86 605 186 q 286 -14 421 -14 q 91 90 156 -14 q 51 357 26 195 l 54 375 q 55 388 54 379 q 58 399 57 397 l 82 560 q 200 864 113 767 q 435 968 288 960 q 557 990 514 971 q 607 1054 600 1009 l 713 1054 l 714 1050 q 632 900 701 940 q 431 858 563 861 q 279 804 337 855 q 211 656 222 753 l 213 653 q 305 721 252 695 q 416 747 359 747 m 382 642 q 259 565 310 642 q 191 375 208 488 l 189 357 q 197 163 170 236 q 301 90 224 90 q 424 166 373 90 q 493 357 475 242 l 496 375 q 487 568 513 494 q 382 642 460 642 z "},"в":{"ha":684,"x_min":31,"x_max":642,"o":"m 31 0 l 140 734 l 395 734 q 578 683 515 734 q 628 533 642 631 q 584 437 619 478 q 490 376 548 396 q 586 314 556 361 q 607 207 616 268 q 518 51 591 101 q 326 0 446 0 l 31 0 m 216 323 l 184 103 l 341 103 q 428 132 395 103 q 469 214 461 160 q 454 295 477 267 q 374 323 431 323 l 216 323 m 231 420 l 356 420 q 446 447 412 420 q 488 523 480 473 q 469 604 496 578 q 379 629 442 629 l 262 629 l 231 420 z "},"г":{"ha":507,"x_min":24,"x_max":549,"o":"m 534 627 l 256 627 l 162 0 l 24 0 l 134 734 l 549 734 l 534 627 z "},"д":{"ha":779,"x_min":-45,"x_max":707,"o":"m 66 104 q 144 191 109 104 q 214 454 179 278 l 269 734 l 707 734 l 613 104 l 695 104 l 644 -241 l 506 -241 l 542 0 l 129 0 l 93 -241 l -45 -241 l 6 104 l 66 104 m 351 454 q 299 247 327 333 q 235 104 272 160 l 475 104 l 552 621 l 384 621 l 351 454 z "},"е":{"ha":633,"x_min":26,"x_max":618,"o":"m 288 -14 q 92 87 157 -14 q 50 347 26 189 l 55 379 q 172 647 80 547 q 389 747 263 747 q 564 657 510 747 q 597 420 618 568 l 585 342 l 187 342 q 200 158 170 226 q 313 90 229 90 q 416 109 369 90 q 503 161 463 127 l 535 75 q 429 12 492 37 q 288 -14 365 -14 m 374 642 q 272 586 316 642 q 208 444 228 530 l 210 440 l 464 440 l 467 456 q 458 591 479 541 q 374 642 436 642 z "},"ж":{"ha":926,"x_min":-37,"x_max":947,"o":"m 564 313 l 523 313 l 476 0 l 339 0 l 386 313 l 345 313 l 139 0 l -37 0 l 250 396 l 89 734 l 261 734 l 368 431 l 404 431 l 449 734 l 586 734 l 541 431 l 577 431 l 776 734 l 947 734 l 684 396 l 852 0 l 677 0 l 564 313 z "},"з":{"ha":664,"x_min":20,"x_max":633,"o":"m 233 423 l 344 423 q 437 452 402 423 q 479 531 472 481 q 461 613 487 581 q 374 644 436 644 q 279 612 321 644 q 230 530 237 579 l 99 530 l 98 534 q 191 689 109 632 q 385 746 273 746 q 568 690 502 746 q 618 535 633 635 q 574 440 610 482 q 483 376 538 399 q 564 310 538 353 q 581 205 589 267 q 479 43 564 100 q 271 -13 395 -13 q 92 45 164 -13 q 39 210 20 103 l 41 214 l 173 214 q 196 123 165 159 q 290 87 227 87 q 393 122 351 87 q 443 208 435 156 q 423 298 452 271 q 329 325 394 325 l 218 325 l 222 352 l 229 396 l 233 423 z "},"и":{"ha":684,"x_min":24,"x_max":661,"o":"m 523 734 l 661 734 l 551 0 l 413 0 l 488 498 l 484 499 l 161 0 l 24 0 l 134 734 l 271 734 l 196 235 l 200 233 l 523 734 z "},"й":{"ha":684,"x_min":24,"x_max":661,"o":"m 523 734 l 661 734 l 551 0 l 413 0 l 488 498 l 484 499 l 161 0 l 24 0 l 134 734 l 271 734 l 196 235 l 200 233 l 523 734 m 627 1037 l 628 1033 q 560 901 619 949 q 411 852 501 852 q 277 903 324 852 q 244 1034 230 954 l 245 1037 l 349 1037 q 359 963 342 990 q 422 935 376 935 q 491 964 465 935 q 523 1037 517 993 l 627 1037 z "},"к":{"ha":673,"x_min":33,"x_max":690,"o":"m 279 310 l 217 310 l 171 0 l 33 0 l 143 734 l 281 734 l 235 427 l 288 427 l 521 734 l 688 734 l 690 730 l 401 391 l 604 0 l 422 0 l 279 310 z "},"л":{"ha":674,"x_min":-37,"x_max":661,"o":"m 661 734 l 551 0 l 413 0 l 507 627 l 319 627 l 288 416 q 188 96 254 191 q -7 0 121 0 l -37 0 l -20 110 l 1 111 q 92 178 59 111 q 150 416 124 245 l 197 734 l 661 734 z "},"м":{"ha":907,"x_min":33,"x_max":869,"o":"m 419 169 l 423 168 l 696 734 l 869 734 l 760 0 l 621 0 l 693 482 l 690 484 l 444 0 l 350 0 l 248 488 l 243 488 l 171 0 l 33 0 l 143 734 l 317 734 l 419 169 z "},"н":{"ha":684,"x_min":24,"x_max":660,"o":"m 550 0 l 412 0 l 458 313 l 209 313 l 162 0 l 24 0 l 134 734 l 272 734 l 224 418 l 474 418 l 522 734 l 660 734 l 550 0 z "},"о":{"ha":684,"x_min":26,"x_max":657,"o":"m 54 375 q 171 646 79 545 q 399 747 262 747 q 593 642 528 747 q 633 375 657 536 l 631 357 q 513 86 605 186 q 286 -14 422 -14 q 91 90 155 -14 q 51 357 26 195 l 54 375 m 189 357 q 197 163 170 236 q 302 90 224 90 q 424 166 374 90 q 492 357 475 242 l 495 375 q 486 568 513 494 q 383 642 460 642 q 259 565 310 642 q 192 375 208 488 l 189 357 z "},"п":{"ha":684,"x_min":24,"x_max":661,"o":"m 551 0 l 413 0 l 507 627 l 256 627 l 162 0 l 24 0 l 134 734 l 661 734 l 551 0 z "},"р":{"ha":684,"x_min":-17,"x_max":655,"o":"m 627 344 q 524 80 602 175 q 328 -14 446 -14 q 237 8 275 -14 q 174 74 199 31 l 121 -282 l -17 -282 l 135 734 l 252 734 l 252 646 q 337 721 290 695 q 441 747 384 747 q 604 640 553 747 q 629 358 655 532 l 627 344 m 491 358 q 486 564 511 487 q 389 640 462 640 q 307 614 344 640 q 245 543 271 587 l 190 176 q 231 113 202 135 q 307 90 260 90 q 424 160 376 90 q 489 344 471 231 l 491 358 z "},"с":{"ha":629,"x_min":26,"x_max":618,"o":"m 294 90 q 384 130 342 90 q 435 236 425 170 l 558 236 l 560 232 q 464 55 547 124 q 278 -14 382 -14 q 87 91 148 -14 q 50 353 26 195 l 54 379 q 166 646 78 545 q 392 747 255 747 q 558 672 498 747 q 600 477 618 597 l 471 477 q 456 597 482 553 q 376 642 431 642 q 255 566 302 642 q 191 379 208 490 l 187 353 q 192 162 170 234 q 294 90 215 90 z "},"т":{"ha":626,"x_min":79,"x_max":644,"o":"m 629 629 l 421 629 l 327 0 l 189 0 l 283 629 l 79 629 l 94 734 l 644 734 l 629 629 z "},"у":{"ha":612,"x_min":-35,"x_max":654,"o":"m 272 253 l 275 204 l 279 203 l 503 734 l 654 734 l 264 -114 q 175 -243 228 -189 q 38 -296 122 -296 q 2 -293 22 -296 q -35 -284 -17 -289 l -4 -182 q 15 -185 2 -184 q 36 -186 28 -186 q 105 -152 75 -186 q 155 -71 135 -117 l 191 5 l 69 734 l 220 734 l 272 253 z "},"ф":{"ha":1064,"x_min":25,"x_max":1034,"o":"m 52 358 q 158 644 79 541 q 355 747 237 747 q 442 726 405 747 q 504 665 479 705 l 563 1058 l 701 1058 l 642 665 q 722 726 677 705 q 820 747 767 747 q 983 640 932 747 q 1008 358 1034 532 l 1006 344 q 903 80 981 175 q 707 -14 825 -14 q 616 7 654 -14 q 552 68 577 28 l 500 -282 l 362 -282 l 414 61 q 335 5 378 24 q 240 -14 292 -14 q 77 85 129 -14 q 50 344 25 184 l 52 358 m 870 358 q 865 565 890 488 q 767 642 840 642 q 687 615 723 642 q 623 543 650 588 l 568 177 q 610 113 581 136 q 686 90 639 90 q 803 160 755 90 q 868 344 850 231 l 870 358 m 186 344 q 193 157 168 224 q 291 90 217 90 q 369 113 334 90 q 431 178 404 136 l 487 552 q 446 617 473 593 q 374 642 418 642 q 256 562 304 642 q 189 358 207 481 l 186 344 z "},"х":{"ha":612,"x_min":-31,"x_max":639,"o":"m 318 466 l 322 466 l 480 734 l 639 734 l 386 372 l 536 0 l 378 0 l 296 277 l 292 277 l 127 0 l -31 0 l 229 372 l 85 734 l 241 734 l 318 466 z "},"ц":{"ha":725,"x_min":24,"x_max":661,"o":"m 134 734 l 272 734 l 178 104 l 429 104 l 523 734 l 661 734 l 567 104 l 648 104 l 597 -239 l 459 -239 l 495 0 l 24 0 l 134 734 z "},"ч":{"ha":673,"x_min":77,"x_max":651,"o":"m 541 0 l 402 0 l 442 266 q 382 253 412 257 q 323 248 352 248 q 138 316 199 248 q 98 526 77 384 l 129 734 l 267 734 l 235 526 q 245 391 220 428 q 339 353 271 353 q 398 358 369 353 q 458 373 428 363 l 512 734 l 651 734 l 541 0 z "},"ш":{"ha":980,"x_min":24,"x_max":954,"o":"m 272 734 l 178 104 l 380 104 l 475 734 l 613 734 l 519 104 l 722 104 l 816 734 l 954 734 l 844 0 l 24 0 l 134 734 l 272 734 z "},"щ":{"ha":1051,"x_min":24,"x_max":961,"o":"m 272 734 l 178 104 l 380 104 l 475 734 l 613 734 l 519 104 l 722 104 l 816 734 l 954 734 l 850 43 l 961 43 l 928 -174 l 795 -174 l 821 0 l 24 0 l 134 734 l 272 734 z "},"ъ":{"ha":762,"x_min":61,"x_max":750,"o":"m 375 462 l 515 462 q 690 397 629 462 q 735 233 750 332 q 643 63 720 126 q 446 0 566 0 l 168 0 l 262 629 l 61 629 l 77 734 l 416 734 l 375 462 m 359 356 l 321 104 l 461 104 q 553 140 518 104 q 597 230 588 176 q 581 320 604 284 q 499 356 558 356 l 359 356 z "},"ы":{"ha":973,"x_min":47,"x_max":1016,"o":"m 254 462 l 394 462 q 569 397 509 462 q 614 233 629 332 q 522 63 599 126 q 325 0 445 0 l 47 0 l 157 734 l 295 734 l 254 462 m 906 0 l 768 0 l 878 734 l 1016 734 l 906 0 m 238 356 l 201 104 l 340 104 q 432 140 397 104 q 476 230 467 176 q 460 320 484 284 q 378 356 437 356 l 238 356 z "},"ь":{"ha":666,"x_min":33,"x_max":616,"o":"m 241 462 l 380 462 q 555 397 495 462 q 601 233 616 332 q 508 63 585 126 q 311 0 431 0 l 33 0 l 143 734 l 281 734 l 241 462 m 224 356 l 187 104 l 327 104 q 419 140 384 104 q 463 230 454 176 q 447 320 470 284 q 365 356 424 356 l 224 356 z "},"э":{"ha":640,"x_min":18,"x_max":612,"o":"m 345 642 q 253 602 295 642 q 202 496 212 562 l 79 496 l 77 500 q 173 677 90 608 q 360 747 256 747 q 550 642 488 747 q 589 379 612 536 l 585 353 q 471 87 560 189 q 248 -14 381 -14 q 79 61 140 -14 q 37 256 18 136 l 166 256 q 181 134 154 178 q 263 90 208 90 q 375 157 328 90 q 442 324 422 224 l 238 324 l 252 418 l 456 418 q 439 580 465 519 q 345 642 413 642 z "},"ю":{"ha":981,"x_min":35,"x_max":1000,"o":"m 235 422 l 406 422 q 527 660 438 572 q 742 747 615 747 q 936 642 871 747 q 977 375 1000 536 l 974 357 q 857 86 948 186 q 629 -14 765 -14 q 442 78 507 -14 q 389 317 377 170 l 220 317 l 172 0 l 35 0 l 144 734 l 282 734 l 235 422 m 532 357 q 540 163 513 236 q 645 90 567 90 q 767 166 717 90 q 836 357 818 242 l 838 375 q 829 568 856 494 q 726 642 803 642 q 602 565 653 642 q 535 375 551 488 l 532 357 z "},"я":{"ha":683,"x_min":-10,"x_max":650,"o":"m 650 734 l 541 0 l 403 0 l 445 280 l 317 280 l 133 0 l -10 0 l 191 303 q 107 384 134 330 q 91 505 80 437 q 183 671 106 609 q 380 734 260 734 l 650 734 m 229 503 q 243 415 220 450 q 319 379 265 379 l 460 379 l 497 629 l 364 629 q 273 591 309 629 q 229 503 236 553 z "},"ѐ":{"ha":633,"x_min":26,"x_max":618,"o":"m 288 -14 q 92 87 157 -14 q 50 347 26 189 l 55 379 q 172 647 80 547 q 389 747 263 747 q 564 657 510 747 q 597 420 618 568 l 585 342 l 187 342 q 200 158 170 226 q 313 90 229 90 q 416 109 369 90 q 503 161 463 127 l 535 75 q 429 12 492 37 q 288 -14 365 -14 m 374 642 q 272 586 316 642 q 208 444 228 530 l 210 440 l 464 440 l 467 456 q 458 591 479 541 q 374 642 436 642 m 456 869 l 336 869 l 201 1049 l 366 1049 l 456 869 z "},"ё":{"ha":633,"x_min":26,"x_max":629,"o":"m 288 -14 q 92 87 157 -14 q 50 347 26 189 l 55 379 q 172 647 80 547 q 389 747 263 747 q 564 657 510 747 q 597 420 618 568 l 585 342 l 187 342 q 200 158 170 226 q 313 90 229 90 q 416 109 369 90 q 503 161 463 127 l 535 75 q 429 12 492 37 q 288 -14 365 -14 m 374 642 q 272 586 316 642 q 208 444 228 530 l 210 440 l 464 440 l 467 456 q 458 591 479 541 q 374 642 436 642 m 612 879 l 470 879 l 488 1004 l 629 1004 l 612 879 m 316 879 l 174 879 l 192 1004 l 334 1004 l 316 879 z "},"ђ":{"ha":684,"x_min":23,"x_max":642,"o":"m 385 836 l 287 836 l 257 640 q 346 719 296 691 q 452 747 395 747 q 595 673 548 747 q 619 449 642 600 l 597 306 l 599 306 l 545 -50 q 464 -235 526 -173 q 302 -296 401 -296 q 265 -293 282 -296 q 229 -284 248 -290 l 253 -182 q 279 -188 262 -185 q 310 -191 296 -191 q 370 -154 344 -191 q 407 -50 397 -116 l 414 0 l 414 0 l 481 450 q 474 598 496 555 q 395 640 452 640 q 310 616 349 640 q 243 549 272 592 l 161 0 l 23 0 l 149 836 l 41 836 l 54 920 l 161 920 l 182 1058 l 320 1058 l 299 920 l 397 920 l 385 836 z "},"ѓ":{"ha":507,"x_min":24,"x_max":555,"o":"m 534 627 l 256 627 l 162 0 l 24 0 l 134 734 l 549 734 l 534 627 m 395 1031 l 553 1031 l 555 1027 l 366 851 l 255 851 l 253 854 l 395 1031 z "},"є":{"ha":640,"x_min":26,"x_max":618,"o":"m 294 90 q 384 130 342 90 q 435 236 425 170 l 558 236 l 560 232 q 464 55 547 124 q 278 -14 382 -14 q 87 91 148 -14 q 50 353 26 195 l 54 379 q 166 646 78 545 q 392 747 255 747 q 558 672 498 747 q 600 477 618 597 l 471 477 q 456 597 482 553 q 376 642 431 642 q 262 576 308 642 q 197 412 216 511 l 408 412 l 393 317 l 182 317 q 196 152 172 213 q 294 90 221 90 z "},"ѕ":{"ha":612,"x_min":10,"x_max":596,"o":"m 402 185 q 384 257 408 229 q 283 321 360 286 q 127 414 176 364 q 89 543 77 465 q 177 689 101 631 q 363 747 252 747 q 534 682 472 747 q 581 524 596 616 l 578 519 l 446 519 q 428 610 453 573 q 349 647 402 647 q 263 617 298 647 q 223 549 228 587 q 238 482 217 505 q 340 420 260 459 q 499 326 449 380 q 539 192 550 273 q 448 41 525 97 q 256 -14 371 -14 q 74 56 137 -14 q 26 216 10 125 l 28 220 l 156 220 q 182 117 149 149 q 272 85 216 85 q 360 114 324 85 q 402 185 396 142 z "},"і":{"ha":315,"x_min":34,"x_max":331,"o":"m 172 0 l 34 0 l 144 734 l 282 734 l 172 0 m 311 926 l 173 926 l 193 1058 l 331 1058 l 311 926 z "},"ї":{"ha":319,"x_min":11,"x_max":466,"o":"m 172 0 l 35 0 l 144 734 l 282 734 l 172 0 m 448 864 l 307 864 l 324 989 l 466 989 l 448 864 m 153 864 l 11 864 l 28 989 l 170 989 l 153 864 z "},"ј":{"ha":319,"x_min":-143,"x_max":333,"o":"m 288 734 l 170 -50 q 89 -235 151 -173 q -72 -296 26 -296 q -108 -293 -91 -296 q -143 -284 -125 -290 l -119 -179 q -95 -186 -109 -183 q -69 -189 -81 -189 q -5 -154 -33 -189 q 33 -50 22 -119 l 150 734 l 288 734 m 313 928 l 175 928 l 195 1058 l 333 1058 l 313 928 z "},"љ":{"ha":1044,"x_min":-24,"x_max":996,"o":"m 661 734 l 621 462 l 760 462 q 935 397 875 462 q 981 233 996 333 q 888 63 965 126 q 691 0 812 0 l 413 0 l 507 627 l 338 627 l 307 416 q 204 97 273 193 q 5 0 134 0 l -24 0 l -9 106 l 13 106 q 106 180 68 106 q 170 416 144 253 l 217 734 l 661 734 m 605 357 l 567 103 l 707 103 q 799 141 763 103 q 843 234 834 180 q 827 322 850 288 q 745 357 804 357 l 605 357 z "},"њ":{"ha":1043,"x_min":24,"x_max":994,"o":"m 229 449 l 479 449 l 522 734 l 660 734 l 619 462 l 759 462 q 934 397 873 462 q 979 233 994 333 q 887 63 964 126 q 690 0 810 0 l 412 0 l 463 345 l 214 345 l 162 0 l 24 0 l 134 734 l 272 734 l 229 449 m 604 357 l 566 103 l 705 103 q 798 141 762 103 q 842 234 833 180 q 826 322 849 288 q 743 357 803 357 l 604 357 z "},"ћ":{"ha":684,"x_min":23,"x_max":642,"o":"m 456 831 l 286 831 l 257 640 q 346 719 296 691 q 452 747 395 747 q 595 673 548 747 q 619 449 642 600 l 552 0 l 414 0 l 481 450 q 474 598 496 555 q 395 640 452 640 q 310 616 349 640 q 243 549 272 592 l 161 0 l 23 0 l 148 831 l 75 831 l 89 927 l 162 927 l 182 1058 l 320 1058 l 300 927 l 471 927 l 456 831 z "},"ќ":{"ha":673,"x_min":33,"x_max":690,"o":"m 279 310 l 217 310 l 171 0 l 33 0 l 143 734 l 281 734 l 235 427 l 288 427 l 521 734 l 688 734 l 690 730 l 401 391 l 604 0 l 422 0 l 279 310 m 473 1031 l 631 1031 l 632 1027 l 443 850 l 332 850 l 330 854 l 473 1031 z "},"ѝ":{"ha":684,"x_min":24,"x_max":661,"o":"m 523 734 l 661 734 l 551 0 l 413 0 l 488 498 l 484 499 l 161 0 l 24 0 l 134 734 l 271 734 l 196 235 l 200 233 l 523 734 m 476 854 l 356 854 l 221 1034 l 385 1034 l 476 854 z "},"ў":{"ha":612,"x_min":-35,"x_max":654,"o":"m 272 253 l 275 204 l 279 203 l 503 734 l 654 734 l 264 -114 q 175 -243 228 -189 q 38 -296 122 -296 q 2 -293 22 -296 q -35 -284 -17 -289 l -4 -182 q 15 -185 2 -184 q 36 -186 28 -186 q 105 -152 75 -186 q 155 -71 135 -117 l 191 5 l 69 734 l 220 734 l 272 253 m 591 1037 l 593 1033 q 525 901 584 949 q 376 852 466 852 q 242 903 289 852 q 209 1034 195 954 l 210 1037 l 314 1037 q 324 963 307 990 q 387 935 341 935 q 455 964 429 935 q 488 1037 481 993 l 591 1037 z "},"џ":{"ha":684,"x_min":24,"x_max":661,"o":"m 272 734 l 178 104 l 429 104 l 523 734 l 661 734 l 551 0 l 357 0 l 321 -241 l 183 -241 l 219 0 l 24 0 l 134 734 l 272 734 z "},"Ѡ":{"ha":1146,"x_min":45,"x_max":1147,"o":"m 736 970 q 809 994 770 985 q 890 1002 848 1002 q 1080 886 1013 1002 q 1120 593 1147 770 l 1091 397 q 961 97 1062 208 q 728 -14 861 -14 q 614 3 663 -14 q 531 50 566 20 q 434 3 488 20 q 313 -14 380 -14 q 116 101 186 -14 q 73 397 45 217 l 102 593 q 228 891 130 780 q 456 1002 326 1002 q 532 994 495 1002 q 601 970 570 985 l 551 867 q 503 888 531 881 q 442 896 475 896 q 317 810 374 896 q 240 594 260 724 l 211 397 q 222 174 190 257 q 329 90 254 90 q 419 111 382 90 q 477 161 456 132 l 512 393 l 396 393 l 411 494 l 782 494 l 767 393 l 651 393 l 616 161 q 657 111 628 132 q 743 90 686 90 q 872 177 812 90 q 953 397 932 264 l 982 594 q 972 813 1002 731 q 871 896 942 896 q 808 888 838 896 q 753 867 778 881 l 736 970 z "},"ѡ":{"ha":845,"x_min":77,"x_max":871,"o":"m 274 220 l 277 147 l 281 146 l 311 220 l 412 469 l 382 734 l 522 734 l 547 220 l 550 155 l 554 155 l 560 169 q 666 423 624 274 q 728 734 707 572 l 871 734 q 762 351 834 534 q 586 0 689 168 l 466 0 l 435 267 l 431 267 l 311 0 l 193 0 l 77 734 l 221 734 l 274 220 z "},"Ѣ":{"ha":756,"x_min":37,"x_max":720,"o":"m 434 751 l 288 751 l 264 600 l 443 600 q 649 516 578 600 q 701 302 720 433 q 587 81 679 163 q 353 0 494 0 l 37 0 l 149 751 l 52 751 l 66 847 l 163 847 l 184 987 l 323 987 l 302 847 l 448 847 l 434 751 m 249 494 l 191 104 l 368 104 q 498 162 446 104 q 563 303 550 220 q 542 440 575 386 q 427 494 508 494 l 249 494 z "},"ѣ":{"ha":666,"x_min":33,"x_max":616,"o":"m 450 743 l 283 743 l 241 462 l 380 462 q 555 397 495 462 q 601 233 616 332 q 508 63 585 126 q 311 0 431 0 l 33 0 l 144 743 l 48 743 l 63 839 l 159 839 l 192 1059 l 330 1059 l 297 839 l 465 839 l 450 743 m 224 356 l 187 104 l 327 104 q 419 140 384 104 q 463 230 454 176 q 447 320 470 284 q 365 356 424 356 l 224 356 z "},"Ѥ":{"ha":1078,"x_min":53,"x_max":1106,"o":"m 743 436 l 534 436 l 522 357 q 542 157 502 222 q 677 91 583 91 q 817 141 763 91 q 887 298 870 191 l 1019 298 l 1020 294 q 905 64 1000 142 q 661 -14 810 -14 q 436 85 515 -14 q 385 357 358 183 l 396 436 l 256 436 l 191 0 l 53 0 l 201 987 l 338 987 l 271 541 l 412 541 l 426 631 q 555 907 453 812 q 809 1002 657 1002 q 1030 923 955 1002 q 1081 694 1106 844 l 1080 691 l 947 691 q 925 849 963 802 q 793 897 886 897 q 644 828 705 897 q 564 633 582 759 l 549 541 l 760 541 l 743 436 z "},"ѥ":{"ha":906,"x_min":33,"x_max":907,"o":"m 631 323 l 472 323 q 485 153 460 216 q 583 90 509 90 q 672 130 631 90 q 724 236 713 170 l 847 236 l 849 232 q 753 55 836 124 q 567 -14 671 -14 q 381 81 443 -14 q 334 323 320 176 l 219 323 l 171 0 l 33 0 l 143 734 l 281 734 l 233 418 l 349 418 q 466 657 380 568 q 681 747 552 747 q 847 672 787 747 q 889 477 907 597 l 760 477 q 745 597 771 553 q 665 642 720 642 q 553 578 598 642 q 490 422 508 515 l 492 418 l 646 418 l 631 323 z "},"Ѧ":{"ha":762,"x_min":-33,"x_max":705,"o":"m 520 296 l 439 296 l 395 0 l 271 0 l 315 296 l 241 296 l 111 0 l -33 0 l 418 987 l 553 987 l 705 0 l 562 0 l 520 296 m 288 400 l 505 400 l 454 765 l 450 766 l 288 400 z "},"ѧ":{"ha":662,"x_min":-43,"x_max":587,"o":"m 412 209 l 356 209 l 325 0 l 217 0 l 248 209 l 193 209 l 98 0 l -43 0 l 315 734 l 448 734 l 587 0 l 446 0 l 412 209 m 237 306 l 397 306 l 363 511 l 358 571 l 354 572 l 330 511 l 237 306 z "},"Ѩ":{"ha":1095,"x_min":65,"x_max":1063,"o":"m 262 400 l 509 400 l 777 987 l 911 987 l 1063 0 l 920 0 l 879 296 l 798 296 l 753 0 l 630 0 l 674 296 l 600 296 l 469 0 l 326 0 l 462 297 l 247 297 l 203 0 l 65 0 l 213 987 l 351 987 l 262 400 m 646 400 l 864 400 l 813 765 l 809 766 l 646 400 z "},"ѩ":{"ha":939,"x_min":57,"x_max":890,"o":"m 240 306 l 409 306 l 618 734 l 751 734 l 890 0 l 749 0 l 715 209 l 659 209 l 628 0 l 520 0 l 551 209 l 496 209 l 401 0 l 260 0 l 362 210 l 226 210 l 195 0 l 57 0 l 167 734 l 304 734 l 240 306 m 540 306 l 700 306 l 667 511 l 661 571 l 657 572 l 633 511 l 540 306 z "},"Ѫ":{"ha":1036,"x_min":27,"x_max":979,"o":"m 677 541 l 686 541 q 893 471 826 541 q 938 248 960 401 l 901 0 l 763 0 l 800 248 q 785 396 816 357 q 670 435 754 435 l 606 435 l 602 428 l 538 0 l 399 0 l 465 435 l 388 435 q 263 393 308 435 q 203 248 218 351 l 165 0 l 27 0 l 64 248 q 172 474 88 408 q 404 541 256 541 l 425 541 l 258 987 l 979 987 l 677 541 m 553 565 l 557 564 l 758 882 l 447 882 l 553 565 z "},"ѫ":{"ha":884,"x_min":26,"x_max":797,"o":"m 26 0 l 44 122 q 138 337 66 271 q 331 408 209 402 l 207 734 l 797 734 l 575 407 q 736 329 685 398 q 768 122 788 260 l 749 0 l 611 0 l 629 122 q 621 267 645 229 q 526 306 596 306 l 507 306 l 503 301 l 458 0 l 321 0 l 366 306 l 341 306 q 236 264 275 306 q 182 122 197 223 l 164 0 l 26 0 m 454 428 l 458 427 l 585 636 l 389 636 l 454 428 z "},"Ѭ":{"ha":1375,"x_min":52,"x_max":1363,"o":"m 762 435 l 213 435 l 229 541 l 779 541 l 762 435 m 190 0 l 52 0 l 200 987 l 338 987 l 190 0 m 1062 541 l 1071 541 q 1278 471 1211 541 q 1322 248 1345 401 l 1285 0 l 1147 0 l 1185 248 q 1170 396 1200 357 q 1055 435 1139 435 l 991 435 l 987 428 l 922 0 l 784 0 l 849 435 l 772 435 q 647 393 692 435 q 587 248 602 351 l 550 0 l 412 0 l 449 248 q 557 474 473 408 q 789 541 641 541 l 810 541 l 642 987 l 1363 987 l 1062 541 m 937 565 l 941 564 l 1143 882 l 831 882 l 937 565 z "},"ѭ":{"ha":1192,"x_min":35,"x_max":1140,"o":"m 715 308 l 137 308 l 152 409 l 730 409 l 715 308 m 172 0 l 35 0 l 144 734 l 282 734 l 172 0 m 369 0 l 387 122 q 481 337 410 271 q 674 408 552 402 l 550 734 l 1140 734 l 918 407 q 1080 329 1028 398 q 1111 122 1131 260 l 1093 0 l 954 0 l 972 122 q 964 267 988 229 q 869 306 939 306 l 850 306 l 846 301 l 802 0 l 664 0 l 709 306 l 684 306 q 579 264 618 306 q 526 122 541 223 l 507 0 l 369 0 m 797 428 l 801 427 l 928 636 l 732 636 l 797 428 z "},"Ѯ":{"ha":625,"x_min":-46,"x_max":670,"o":"m 186 559 l 271 559 q 394 603 348 559 q 452 723 440 647 q 431 839 463 796 q 322 881 399 881 l 157 881 l 172 987 l 338 987 q 537 918 465 987 q 591 726 608 848 q 531 591 578 648 q 411 507 484 535 q 520 418 486 477 q 542 273 555 359 q 432 62 521 134 q 212 -11 342 -11 l 179 -11 q 118 -31 140 -11 q 91 -87 96 -52 q 105 -162 83 -134 q 161 -208 127 -190 l 104 -292 q -7 -212 31 -268 q -36 -77 -46 -155 q 36 53 -22 11 q 190 96 94 96 l 222 96 q 341 144 291 96 q 404 271 392 193 q 380 409 418 365 q 252 452 341 452 l 170 452 l 174 480 l 176 496 l 181 530 l 186 559 m 454 1187 l 547 1289 l 670 1289 l 669 1277 l 489 1114 l 397 1114 l 267 1276 l 269 1289 l 391 1289 l 454 1187 z "},"ѯ":{"ha":599,"x_min":-41,"x_max":586,"o":"m 297 734 q 484 680 415 734 q 538 532 552 627 q 492 434 529 476 q 397 370 456 393 q 488 306 458 347 q 509 206 517 264 q 412 45 492 101 q 213 -11 332 -11 l 184 -11 q 120 -31 143 -11 q 92 -87 96 -52 q 105 -162 84 -134 q 158 -208 126 -190 l 101 -290 q -2 -207 36 -263 q -31 -77 -41 -151 q 38 48 -18 7 q 185 90 94 90 l 214 90 q 319 122 275 90 q 371 206 362 154 q 345 294 380 267 q 234 321 311 321 l 146 321 l 152 357 l 161 416 l 250 416 q 353 446 315 416 q 399 529 391 476 q 377 605 406 576 q 282 633 348 633 l 119 633 l 134 734 l 297 734 m 370 954 l 463 1055 l 586 1055 l 585 1044 l 405 881 l 313 881 l 183 1043 l 184 1055 l 307 1055 l 370 954 z "},"Ѱ":{"ha":855,"x_min":60,"x_max":893,"o":"m 489 345 l 492 344 q 626 426 570 355 q 699 614 682 497 l 755 987 l 893 987 l 838 614 q 713 341 810 439 q 471 229 616 243 l 437 0 l 300 0 l 334 230 q 130 346 200 245 q 86 614 60 448 l 142 987 l 279 987 l 224 614 q 238 424 205 493 q 347 344 272 355 l 351 344 l 448 987 l 585 987 l 489 345 z "},"ѱ":{"ha":871,"x_min":30,"x_max":842,"o":"m 554 733 l 460 106 l 463 104 q 614 204 556 123 q 688 393 671 285 q 694 562 699 477 q 671 734 688 647 l 805 734 q 834 580 827 663 q 827 393 842 496 q 708 114 801 221 q 442 -11 615 6 l 397 -313 l 259 -313 l 304 -9 q 97 113 164 11 q 58 401 30 216 l 108 734 l 246 734 l 197 400 q 209 189 175 260 q 317 104 243 118 l 321 105 l 416 733 l 554 733 z "},"Ѳ":{"ha":827,"x_min":39,"x_max":825,"o":"m 758 357 q 623 80 730 175 q 353 -14 515 -14 q 121 84 202 -14 q 66 357 39 183 l 106 629 q 240 906 134 811 q 505 1002 347 1002 q 742 902 659 1002 q 799 629 825 802 l 758 357 m 548 479 q 602 495 574 479 q 648 536 629 511 l 663 631 q 637 829 682 765 q 489 893 593 893 q 328 826 393 893 q 244 631 262 758 l 229 528 q 279 562 252 549 q 339 574 307 574 q 444 527 382 574 q 548 479 505 479 m 631 420 q 581 391 608 401 q 524 380 553 380 q 414 428 470 380 q 315 475 357 475 q 255 453 285 475 q 209 400 224 431 l 203 357 q 225 157 182 222 q 370 93 269 93 q 535 160 468 93 q 621 357 602 228 l 631 420 z "},"ѳ":{"ha":686,"x_min":26,"x_max":657,"o":"m 54 375 q 171 646 79 545 q 399 747 262 747 q 593 642 528 747 q 633 375 657 536 l 631 357 q 513 86 605 186 q 286 -14 422 -14 q 91 90 155 -14 q 51 357 26 195 l 54 375 m 429 367 q 470 383 449 367 q 500 425 491 399 q 479 583 508 524 q 383 642 451 642 q 265 572 314 642 q 201 404 216 503 l 203 400 q 236 426 215 416 q 279 436 256 436 q 354 401 310 436 q 429 367 398 367 m 255 353 q 212 335 233 353 q 182 292 191 318 q 206 144 177 198 q 302 90 235 90 q 414 153 367 90 q 479 311 462 216 l 477 314 q 446 291 465 300 q 405 283 426 283 q 326 318 366 283 q 255 353 286 353 z "},"Ѵ":{"ha":768,"x_min":109,"x_max":867,"o":"m 341 227 l 346 167 l 350 167 l 373 226 l 589 800 q 686 951 632 903 q 807 1000 740 1000 q 839 996 824 1000 q 867 984 854 992 l 838 882 q 827 887 835 884 q 811 889 819 889 q 758 866 783 889 q 713 785 734 842 l 390 0 l 256 0 l 109 987 l 256 987 l 341 227 z "},"ѵ":{"ha":613,"x_min":77,"x_max":673,"o":"m 261 220 l 264 165 l 268 165 l 288 220 l 412 566 q 502 703 452 659 q 614 747 551 747 q 646 743 631 747 q 673 730 661 739 l 644 629 q 633 634 642 631 q 618 636 625 636 q 574 616 595 636 q 539 555 553 596 l 302 0 l 180 0 l 77 734 l 221 734 l 261 220 z "},"Ѷ":{"ha":768,"x_min":109,"x_max":867,"o":"m 341 227 l 346 167 l 350 167 l 373 226 l 589 800 q 686 951 632 903 q 807 1000 740 1000 q 839 996 824 1000 q 867 984 854 992 l 838 882 q 827 887 835 884 q 811 889 819 889 q 758 866 783 889 q 713 785 734 842 l 390 0 l 256 0 l 109 987 l 256 987 l 341 227 m 445 1080 l 326 1080 l 182 1257 l 184 1260 l 328 1260 l 445 1080 m 621 1080 l 509 1080 l 393 1260 l 534 1260 l 621 1080 z "},"ѷ":{"ha":613,"x_min":77,"x_max":673,"o":"m 261 220 l 264 165 l 268 165 l 288 220 l 412 566 q 502 703 452 659 q 614 747 551 747 q 646 743 631 747 q 673 730 661 739 l 644 629 q 633 634 642 631 q 618 636 625 636 q 574 616 595 636 q 539 555 553 596 l 302 0 l 180 0 l 77 734 l 221 734 l 261 220 m 357 887 l 239 887 l 95 1064 l 97 1067 l 240 1067 l 357 887 m 534 887 l 421 887 l 305 1067 l 446 1067 l 534 887 z "},"Ѹ":{"ha":1438,"x_min":39,"x_max":1480,"o":"m 758 357 q 623 80 730 175 q 353 -14 515 -14 q 121 84 202 -14 q 66 357 39 183 l 106 629 q 240 906 134 811 q 505 1002 347 1002 q 742 902 659 1002 q 799 629 825 802 l 758 357 m 663 631 q 637 829 682 765 q 489 893 593 893 q 328 826 393 893 q 244 631 262 758 l 203 357 q 225 157 182 222 q 370 93 269 93 q 535 160 468 93 q 621 357 602 228 l 663 631 m 1098 253 l 1101 204 l 1105 203 l 1329 734 l 1480 734 l 1090 -114 q 1001 -243 1054 -189 q 864 -296 948 -296 q 828 -293 848 -296 q 791 -284 809 -289 l 822 -182 q 841 -185 828 -184 q 862 -186 854 -186 q 931 -152 901 -186 q 981 -71 961 -117 l 1017 5 l 895 734 l 1046 734 l 1098 253 z "},"ѹ":{"ha":1296,"x_min":26,"x_max":1337,"o":"m 54 375 q 171 646 79 545 q 399 747 262 747 q 593 642 528 747 q 633 375 657 536 l 631 357 q 513 86 605 186 q 286 -14 422 -14 q 91 90 155 -14 q 51 357 26 195 l 54 375 m 189 357 q 197 163 170 236 q 302 90 224 90 q 424 166 374 90 q 492 357 475 242 l 495 375 q 486 568 513 494 q 383 642 460 642 q 259 565 310 642 q 192 375 208 488 l 189 357 m 956 253 l 959 204 l 963 203 l 1186 734 l 1337 734 l 948 -114 q 859 -243 911 -189 q 722 -296 806 -296 q 686 -293 705 -296 q 648 -284 667 -289 l 680 -182 q 699 -185 686 -184 q 720 -186 712 -186 q 788 -152 758 -186 q 838 -71 819 -117 l 875 5 l 753 734 l 903 734 l 956 253 z "},"Ѻ":{"ha":827,"x_min":39,"x_max":825,"o":"m 535 811 l 426 811 l 466 1076 l 575 1076 l 535 811 m 400 -95 l 291 -95 l 332 176 l 441 176 l 400 -95 m 758 357 q 623 80 730 175 q 353 -14 515 -14 q 121 84 202 -14 q 66 357 39 183 l 106 629 q 240 906 134 811 q 505 1002 347 1002 q 742 902 659 1002 q 799 629 825 802 l 758 357 m 663 631 q 637 829 682 765 q 489 893 593 893 q 328 826 393 893 q 244 631 262 758 l 203 357 q 225 157 182 222 q 370 93 269 93 q 535 160 468 93 q 621 357 602 228 l 663 631 z "},"ѻ":{"ha":684,"x_min":26,"x_max":657,"o":"m 428 563 l 319 563 l 357 819 l 466 819 l 428 563 m 329 -85 l 220 -85 l 258 174 l 368 174 l 329 -85 m 54 375 q 171 646 79 545 q 399 747 262 747 q 593 642 528 747 q 633 375 657 536 l 631 357 q 513 86 605 186 q 286 -14 422 -14 q 91 90 155 -14 q 51 357 26 195 l 54 375 m 189 357 q 197 163 170 236 q 302 90 224 90 q 424 166 374 90 q 492 357 475 242 l 495 375 q 486 568 513 494 q 383 642 460 642 q 259 565 310 642 q 192 375 208 488 l 189 357 z "},"Ѽ":{"ha":1146,"x_min":46,"x_max":1147,"o":"m 747 970 q 816 994 780 985 q 890 1002 852 1002 q 1080 884 1013 1002 q 1120 585 1147 766 l 1093 408 q 963 100 1064 214 q 728 -14 861 -14 q 615 4 663 -14 q 532 54 566 22 q 434 4 489 22 q 313 -14 380 -14 q 116 104 186 -14 q 74 408 46 223 l 100 585 q 228 888 129 775 q 456 1002 326 1002 q 527 994 492 1002 q 589 970 561 985 l 541 867 q 497 888 522 881 q 442 896 472 896 q 317 808 374 896 q 239 586 259 720 l 212 408 q 222 176 190 262 q 329 90 254 90 q 420 112 382 90 q 478 165 457 134 l 482 191 l 621 191 l 617 165 q 657 112 628 134 q 743 90 686 90 q 873 180 813 90 q 955 408 934 270 l 982 586 q 972 811 1002 727 q 871 896 942 896 q 814 888 842 896 q 766 867 787 881 l 747 970 m 993 1264 l 981 1187 l 962 1187 q 808 1234 891 1187 q 698 1280 724 1280 q 648 1258 669 1280 q 621 1198 627 1236 l 619 1185 l 545 1185 l 548 1209 q 600 1320 559 1283 q 708 1358 642 1358 q 828 1311 747 1358 q 975 1264 909 1264 l 993 1264 m 664 993 l 624 1029 l 669 1108 l 684 1204 l 788 1204 l 775 1117 l 664 993 z "},"ѽ":{"ha":981,"x_min":37,"x_max":951,"o":"m 610 717 q 669 738 638 730 q 733 745 700 745 q 895 643 838 745 q 928 381 951 540 l 923 346 q 811 83 898 180 q 610 -14 724 -14 q 517 3 557 -14 q 449 52 477 21 q 366 3 411 21 q 267 -14 320 -14 q 97 87 157 -14 q 61 346 37 189 l 66 381 q 175 647 90 548 q 372 745 260 745 q 432 738 403 745 q 486 717 462 730 l 437 615 q 401 633 421 627 q 358 640 382 640 q 264 567 308 640 q 204 382 220 494 l 199 346 q 204 160 180 231 q 282 90 227 90 q 350 112 322 90 q 395 163 378 133 l 399 192 l 538 192 l 534 162 q 562 111 541 132 q 625 90 583 90 q 723 163 677 90 q 785 346 768 235 l 791 382 q 787 570 808 500 q 715 640 766 640 q 669 633 691 640 q 628 615 646 627 l 610 717 m 882 1022 l 871 945 l 852 945 q 697 992 780 945 q 588 1038 614 1038 q 538 1016 559 1038 q 511 956 516 994 l 509 943 l 434 943 l 437 967 q 490 1078 448 1041 q 597 1116 531 1116 q 717 1069 636 1116 q 864 1022 798 1022 l 882 1022 m 554 753 l 513 790 l 559 869 l 573 962 l 677 962 l 665 878 l 554 753 z "},"Ѿ":{"ha":1147,"x_min":45,"x_max":1147,"o":"m 540 1147 l 528 1065 l 429 1065 l 452 1214 l 945 1214 l 923 1065 l 824 1065 l 836 1147 l 734 1147 l 722 1065 l 621 1065 l 633 1147 l 540 1147 m 753 867 q 808 888 778 881 q 871 896 838 896 q 972 813 942 896 q 982 594 1002 731 l 953 397 q 872 177 932 264 q 743 90 812 90 q 657 111 686 90 q 616 161 628 132 l 651 393 l 767 393 l 782 494 l 411 494 l 396 393 l 512 393 l 477 161 q 419 111 456 132 q 329 90 382 90 q 222 174 254 90 q 211 397 190 257 l 240 594 q 317 810 260 724 q 442 896 374 896 q 503 888 475 896 q 551 867 531 881 l 601 970 q 532 994 570 985 q 456 1002 495 1002 q 228 891 326 1002 q 102 593 130 780 l 73 397 q 116 101 45 217 q 313 -14 186 -14 q 434 3 380 -14 q 531 50 488 20 q 614 3 566 20 q 728 -14 663 -14 q 961 97 861 -14 q 1091 397 1062 208 l 1120 593 q 1080 886 1147 770 q 890 1002 1013 1002 q 809 994 848 1002 q 736 970 770 985 l 753 867 z "},"ѿ":{"ha":845,"x_min":77,"x_max":871,"o":"m 378 936 l 365 848 l 266 849 l 290 1002 l 765 1002 l 742 848 l 643 848 l 656 936 l 562 936 l 549 848 l 449 848 l 462 936 l 378 936 m 221 734 l 77 734 l 193 0 l 311 0 l 431 267 l 435 267 l 466 0 l 586 0 q 762 351 689 168 q 871 734 834 534 l 728 734 q 666 423 707 572 q 560 169 624 274 l 554 155 l 550 155 l 547 220 l 522 734 l 382 734 l 412 469 l 311 220 l 281 146 l 277 147 l 274 220 l 221 734 z "},"Ҁ":{"ha":768,"x_min":48,"x_max":775,"o":"m 387 -251 l 250 -251 l 286 -9 q 107 125 167 12 q 73 405 48 239 l 100 581 q 234 887 127 772 q 488 1002 340 1002 q 702 914 629 1002 q 751 675 775 827 l 749 671 l 616 671 q 596 840 632 785 q 472 896 561 896 q 322 807 387 896 q 237 583 257 718 l 211 405 q 225 176 189 261 q 351 90 262 90 l 438 90 l 387 -251 z "},"ҁ":{"ha":647,"x_min":37,"x_max":628,"o":"m 336 -251 l 198 -251 l 234 -9 q 84 114 131 13 q 58 353 37 214 l 62 379 q 176 646 86 544 q 399 747 265 747 q 567 672 506 747 q 610 477 628 596 l 481 477 q 466 597 492 553 q 384 642 439 642 q 263 565 313 642 q 199 379 214 488 l 195 353 q 201 163 177 236 q 302 90 226 90 l 387 90 l 336 -251 z "}}}
